<mxfile host="app.diagrams.net" agent="Mozilla/5.0 (Windows NT 10.0; Win64; x64) AppleWebKit/537.36 (KHTML, like Gecko) Chrome/132.0.0.0 Safari/537.36" version="26.0.8">
  <diagram name="Page-1" id="rL9C1iVgx98LZylC4TiO">
    <mxGraphModel dx="1793" dy="930" grid="1" gridSize="10" guides="1" tooltips="1" connect="1" arrows="1" fold="1" page="1" pageScale="1" pageWidth="827" pageHeight="1169" math="0" shadow="0">
      <root>
        <mxCell id="0" />
        <mxCell id="1" parent="0" />
        <mxCell id="JJkMY_QVzMOAWTLExX79-8" value="PERIMETER&lt;br&gt;&lt;div&gt;&lt;br&gt;&lt;/div&gt;&lt;div&gt;&lt;br&gt;&lt;/div&gt;&lt;div&gt;&lt;br&gt;&lt;/div&gt;&lt;div&gt;&lt;br&gt;&lt;/div&gt;&lt;div&gt;&lt;br&gt;&lt;/div&gt;&lt;div&gt;&lt;br&gt;&lt;/div&gt;&lt;div&gt;&lt;br&gt;&lt;/div&gt;&lt;div&gt;&lt;br&gt;&lt;/div&gt;&lt;div&gt;&lt;br&gt;&lt;/div&gt;&lt;div&gt;&lt;br&gt;&lt;/div&gt;&lt;div&gt;&lt;br&gt;&lt;/div&gt;&lt;div&gt;&lt;br&gt;&lt;/div&gt;&lt;div&gt;&lt;br&gt;&lt;/div&gt;&lt;div&gt;&lt;br&gt;&lt;/div&gt;&lt;div&gt;&lt;br&gt;&lt;/div&gt;&lt;div&gt;&lt;br&gt;&lt;/div&gt;&lt;div&gt;&lt;br&gt;&lt;/div&gt;&lt;div&gt;&lt;br&gt;&lt;/div&gt;&lt;div&gt;&lt;br&gt;&lt;/div&gt;&lt;div&gt;&lt;br&gt;&lt;/div&gt;&lt;div&gt;&lt;br&gt;&lt;/div&gt;&lt;div&gt;&lt;br&gt;&lt;/div&gt;&lt;div&gt;&lt;br&gt;&lt;/div&gt;&lt;div&gt;&lt;br&gt;&lt;/div&gt;&lt;div&gt;&lt;br&gt;&lt;/div&gt;&lt;div&gt;&lt;br&gt;&lt;/div&gt;&lt;div&gt;&lt;br&gt;&lt;/div&gt;&lt;div&gt;&lt;br&gt;&lt;/div&gt;&lt;div&gt;&lt;br&gt;&lt;/div&gt;&lt;div&gt;&lt;br&gt;&lt;/div&gt;&lt;div&gt;&lt;br&gt;&lt;/div&gt;&lt;div&gt;&lt;br&gt;&lt;/div&gt;&lt;div&gt;&lt;br&gt;&lt;/div&gt;&lt;div&gt;&lt;br&gt;&lt;/div&gt;&lt;div&gt;&lt;br&gt;&lt;/div&gt;&lt;div&gt;&lt;br&gt;&lt;/div&gt;&lt;div&gt;&lt;br&gt;&lt;/div&gt;&lt;div&gt;&lt;br&gt;&lt;/div&gt;&lt;div&gt;&lt;br&gt;&lt;/div&gt;&lt;div&gt;&lt;br&gt;&lt;/div&gt;&lt;div&gt;&lt;br&gt;&lt;/div&gt;&lt;div&gt;&lt;br&gt;&lt;/div&gt;&lt;div&gt;&lt;br&gt;&lt;/div&gt;" style="rounded=0;whiteSpace=wrap;html=1;" vertex="1" parent="1">
          <mxGeometry x="10" y="20" width="920" height="650" as="geometry" />
        </mxCell>
        <mxCell id="JJkMY_QVzMOAWTLExX79-2" value="" style="rounded=0;whiteSpace=wrap;html=1;" vertex="1" parent="1">
          <mxGeometry x="110" y="120" width="720" height="440" as="geometry" />
        </mxCell>
        <mxCell id="JJkMY_QVzMOAWTLExX79-140" value="GLASSWARE&lt;br&gt;&lt;div&gt;&lt;br&gt;&lt;/div&gt;&lt;div&gt;&lt;br&gt;&lt;/div&gt;&lt;div&gt;&lt;br&gt;&lt;/div&gt;&lt;div&gt;&lt;br&gt;&lt;/div&gt;&lt;div&gt;&lt;br&gt;&lt;/div&gt;&lt;div&gt;&lt;br&gt;&lt;/div&gt;&lt;div&gt;&lt;br&gt;&lt;/div&gt;&lt;div&gt;&lt;br&gt;&lt;/div&gt;" style="rounded=0;whiteSpace=wrap;html=1;" vertex="1" parent="1">
          <mxGeometry x="120" y="130" width="340" height="140" as="geometry" />
        </mxCell>
        <mxCell id="JJkMY_QVzMOAWTLExX79-5" value="VEGETABLES&lt;br&gt;&lt;div&gt;&lt;br&gt;&lt;/div&gt;&lt;div&gt;&lt;br&gt;&lt;/div&gt;&lt;div&gt;&lt;br&gt;&lt;/div&gt;&lt;div&gt;&lt;br&gt;&lt;/div&gt;&lt;div&gt;&lt;br&gt;&lt;/div&gt;&lt;div&gt;&lt;br&gt;&lt;/div&gt;&lt;div&gt;&lt;br&gt;&lt;/div&gt;" style="rounded=0;whiteSpace=wrap;html=1;" vertex="1" parent="1">
          <mxGeometry x="120" y="290" width="700" height="120" as="geometry" />
        </mxCell>
        <mxCell id="JJkMY_QVzMOAWTLExX79-7" value="SPM-TRUSS SHEDS&lt;div&gt;&lt;br&gt;&lt;/div&gt;&lt;div&gt;&lt;br&gt;&lt;/div&gt;&lt;div&gt;&lt;br&gt;&lt;/div&gt;&lt;div&gt;&lt;br&gt;&lt;/div&gt;&lt;div&gt;&lt;br&gt;&lt;/div&gt;&lt;div&gt;&lt;br&gt;&lt;/div&gt;&lt;div&gt;&lt;br&gt;&lt;/div&gt;" style="rounded=0;whiteSpace=wrap;html=1;" vertex="1" parent="1">
          <mxGeometry x="120" y="430" width="700" height="120" as="geometry" />
        </mxCell>
        <mxCell id="JJkMY_QVzMOAWTLExX79-65" value="" style="rounded=0;whiteSpace=wrap;html=1;" vertex="1" parent="1">
          <mxGeometry x="410" y="160" width="20" height="10" as="geometry" />
        </mxCell>
        <mxCell id="JJkMY_QVzMOAWTLExX79-66" value="" style="rounded=0;whiteSpace=wrap;html=1;" vertex="1" parent="1">
          <mxGeometry x="430" y="160" width="20" height="10" as="geometry" />
        </mxCell>
        <mxCell id="JJkMY_QVzMOAWTLExX79-67" value="" style="rounded=0;whiteSpace=wrap;html=1;" vertex="1" parent="1">
          <mxGeometry x="410" y="170" width="20" height="10" as="geometry" />
        </mxCell>
        <mxCell id="JJkMY_QVzMOAWTLExX79-68" value="" style="rounded=0;whiteSpace=wrap;html=1;" vertex="1" parent="1">
          <mxGeometry x="430" y="170" width="20" height="10" as="geometry" />
        </mxCell>
        <mxCell id="JJkMY_QVzMOAWTLExX79-69" value="" style="rounded=0;whiteSpace=wrap;html=1;" vertex="1" parent="1">
          <mxGeometry x="410" y="180" width="20" height="10" as="geometry" />
        </mxCell>
        <mxCell id="JJkMY_QVzMOAWTLExX79-70" value="" style="rounded=0;whiteSpace=wrap;html=1;" vertex="1" parent="1">
          <mxGeometry x="430" y="180" width="20" height="10" as="geometry" />
        </mxCell>
        <mxCell id="JJkMY_QVzMOAWTLExX79-71" value="" style="rounded=0;whiteSpace=wrap;html=1;" vertex="1" parent="1">
          <mxGeometry x="410" y="190" width="20" height="10" as="geometry" />
        </mxCell>
        <mxCell id="JJkMY_QVzMOAWTLExX79-72" value="" style="rounded=0;whiteSpace=wrap;html=1;" vertex="1" parent="1">
          <mxGeometry x="430" y="190" width="20" height="10" as="geometry" />
        </mxCell>
        <mxCell id="JJkMY_QVzMOAWTLExX79-73" value="" style="rounded=0;whiteSpace=wrap;html=1;" vertex="1" parent="1">
          <mxGeometry x="410" y="200" width="20" height="10" as="geometry" />
        </mxCell>
        <mxCell id="JJkMY_QVzMOAWTLExX79-74" value="" style="rounded=0;whiteSpace=wrap;html=1;" vertex="1" parent="1">
          <mxGeometry x="430" y="200" width="20" height="10" as="geometry" />
        </mxCell>
        <mxCell id="JJkMY_QVzMOAWTLExX79-75" value="" style="rounded=0;whiteSpace=wrap;html=1;" vertex="1" parent="1">
          <mxGeometry x="410" y="210" width="20" height="10" as="geometry" />
        </mxCell>
        <mxCell id="JJkMY_QVzMOAWTLExX79-76" value="" style="rounded=0;whiteSpace=wrap;html=1;" vertex="1" parent="1">
          <mxGeometry x="430" y="210" width="20" height="10" as="geometry" />
        </mxCell>
        <mxCell id="JJkMY_QVzMOAWTLExX79-77" value="" style="rounded=0;whiteSpace=wrap;html=1;" vertex="1" parent="1">
          <mxGeometry x="410" y="220" width="20" height="10" as="geometry" />
        </mxCell>
        <mxCell id="JJkMY_QVzMOAWTLExX79-78" value="" style="rounded=0;whiteSpace=wrap;html=1;" vertex="1" parent="1">
          <mxGeometry x="430" y="220" width="20" height="10" as="geometry" />
        </mxCell>
        <mxCell id="JJkMY_QVzMOAWTLExX79-109" value="" style="rounded=0;whiteSpace=wrap;html=1;" vertex="1" parent="1">
          <mxGeometry x="300" y="240" width="20" height="10" as="geometry" />
        </mxCell>
        <mxCell id="JJkMY_QVzMOAWTLExX79-110" value="" style="rounded=0;whiteSpace=wrap;html=1;" vertex="1" parent="1">
          <mxGeometry x="320" y="240" width="20" height="10" as="geometry" />
        </mxCell>
        <mxCell id="JJkMY_QVzMOAWTLExX79-111" value="" style="rounded=0;whiteSpace=wrap;html=1;" vertex="1" parent="1">
          <mxGeometry x="300" y="250" width="20" height="10" as="geometry" />
        </mxCell>
        <mxCell id="JJkMY_QVzMOAWTLExX79-112" value="" style="rounded=0;whiteSpace=wrap;html=1;" vertex="1" parent="1">
          <mxGeometry x="320" y="250" width="20" height="10" as="geometry" />
        </mxCell>
        <mxCell id="JJkMY_QVzMOAWTLExX79-113" value="" style="rounded=0;whiteSpace=wrap;html=1;" vertex="1" parent="1">
          <mxGeometry x="260" y="240" width="20" height="10" as="geometry" />
        </mxCell>
        <mxCell id="JJkMY_QVzMOAWTLExX79-114" value="" style="rounded=0;whiteSpace=wrap;html=1;" vertex="1" parent="1">
          <mxGeometry x="280" y="240" width="20" height="10" as="geometry" />
        </mxCell>
        <mxCell id="JJkMY_QVzMOAWTLExX79-115" value="" style="rounded=0;whiteSpace=wrap;html=1;" vertex="1" parent="1">
          <mxGeometry x="260" y="250" width="20" height="10" as="geometry" />
        </mxCell>
        <mxCell id="JJkMY_QVzMOAWTLExX79-116" value="" style="rounded=0;whiteSpace=wrap;html=1;" vertex="1" parent="1">
          <mxGeometry x="280" y="250" width="20" height="10" as="geometry" />
        </mxCell>
        <mxCell id="JJkMY_QVzMOAWTLExX79-117" value="" style="rounded=0;whiteSpace=wrap;html=1;" vertex="1" parent="1">
          <mxGeometry x="240" y="240" width="20" height="10" as="geometry" />
        </mxCell>
        <mxCell id="JJkMY_QVzMOAWTLExX79-118" value="" style="rounded=0;whiteSpace=wrap;html=1;" vertex="1" parent="1">
          <mxGeometry x="240" y="250" width="20" height="10" as="geometry" />
        </mxCell>
        <mxCell id="JJkMY_QVzMOAWTLExX79-119" value="" style="rounded=0;whiteSpace=wrap;html=1;" vertex="1" parent="1">
          <mxGeometry x="190" y="240" width="20" height="10" as="geometry" />
        </mxCell>
        <mxCell id="JJkMY_QVzMOAWTLExX79-120" value="" style="rounded=0;whiteSpace=wrap;html=1;" vertex="1" parent="1">
          <mxGeometry x="210" y="240" width="20" height="10" as="geometry" />
        </mxCell>
        <mxCell id="JJkMY_QVzMOAWTLExX79-121" value="" style="rounded=0;whiteSpace=wrap;html=1;" vertex="1" parent="1">
          <mxGeometry x="190" y="250" width="20" height="10" as="geometry" />
        </mxCell>
        <mxCell id="JJkMY_QVzMOAWTLExX79-122" value="" style="rounded=0;whiteSpace=wrap;html=1;" vertex="1" parent="1">
          <mxGeometry x="210" y="250" width="20" height="10" as="geometry" />
        </mxCell>
        <mxCell id="JJkMY_QVzMOAWTLExX79-123" value="" style="rounded=0;whiteSpace=wrap;html=1;" vertex="1" parent="1">
          <mxGeometry x="150" y="240" width="20" height="10" as="geometry" />
        </mxCell>
        <mxCell id="JJkMY_QVzMOAWTLExX79-124" value="" style="rounded=0;whiteSpace=wrap;html=1;" vertex="1" parent="1">
          <mxGeometry x="170" y="240" width="20" height="10" as="geometry" />
        </mxCell>
        <mxCell id="JJkMY_QVzMOAWTLExX79-125" value="" style="rounded=0;whiteSpace=wrap;html=1;" vertex="1" parent="1">
          <mxGeometry x="150" y="250" width="20" height="10" as="geometry" />
        </mxCell>
        <mxCell id="JJkMY_QVzMOAWTLExX79-126" value="" style="rounded=0;whiteSpace=wrap;html=1;" vertex="1" parent="1">
          <mxGeometry x="170" y="250" width="20" height="10" as="geometry" />
        </mxCell>
        <mxCell id="JJkMY_QVzMOAWTLExX79-127" value="" style="rounded=0;whiteSpace=wrap;html=1;" vertex="1" parent="1">
          <mxGeometry x="130" y="240" width="20" height="10" as="geometry" />
        </mxCell>
        <mxCell id="JJkMY_QVzMOAWTLExX79-128" value="" style="rounded=0;whiteSpace=wrap;html=1;" vertex="1" parent="1">
          <mxGeometry x="130" y="250" width="20" height="10" as="geometry" />
        </mxCell>
        <mxCell id="JJkMY_QVzMOAWTLExX79-129" value="" style="rounded=0;whiteSpace=wrap;html=1;" vertex="1" parent="1">
          <mxGeometry x="410" y="240" width="20" height="10" as="geometry" />
        </mxCell>
        <mxCell id="JJkMY_QVzMOAWTLExX79-130" value="" style="rounded=0;whiteSpace=wrap;html=1;" vertex="1" parent="1">
          <mxGeometry x="430" y="240" width="20" height="10" as="geometry" />
        </mxCell>
        <mxCell id="JJkMY_QVzMOAWTLExX79-131" value="" style="rounded=0;whiteSpace=wrap;html=1;" vertex="1" parent="1">
          <mxGeometry x="410" y="250" width="20" height="10" as="geometry" />
        </mxCell>
        <mxCell id="JJkMY_QVzMOAWTLExX79-132" value="" style="rounded=0;whiteSpace=wrap;html=1;" vertex="1" parent="1">
          <mxGeometry x="430" y="250" width="20" height="10" as="geometry" />
        </mxCell>
        <mxCell id="JJkMY_QVzMOAWTLExX79-133" value="" style="rounded=0;whiteSpace=wrap;html=1;" vertex="1" parent="1">
          <mxGeometry x="370" y="240" width="20" height="10" as="geometry" />
        </mxCell>
        <mxCell id="JJkMY_QVzMOAWTLExX79-134" value="" style="rounded=0;whiteSpace=wrap;html=1;" vertex="1" parent="1">
          <mxGeometry x="390" y="240" width="20" height="10" as="geometry" />
        </mxCell>
        <mxCell id="JJkMY_QVzMOAWTLExX79-135" value="" style="rounded=0;whiteSpace=wrap;html=1;" vertex="1" parent="1">
          <mxGeometry x="370" y="250" width="20" height="10" as="geometry" />
        </mxCell>
        <mxCell id="JJkMY_QVzMOAWTLExX79-136" value="" style="rounded=0;whiteSpace=wrap;html=1;" vertex="1" parent="1">
          <mxGeometry x="390" y="250" width="20" height="10" as="geometry" />
        </mxCell>
        <mxCell id="JJkMY_QVzMOAWTLExX79-137" value="" style="rounded=0;whiteSpace=wrap;html=1;" vertex="1" parent="1">
          <mxGeometry x="350" y="240" width="20" height="10" as="geometry" />
        </mxCell>
        <mxCell id="JJkMY_QVzMOAWTLExX79-138" value="" style="rounded=0;whiteSpace=wrap;html=1;" vertex="1" parent="1">
          <mxGeometry x="350" y="250" width="20" height="10" as="geometry" />
        </mxCell>
        <mxCell id="JJkMY_QVzMOAWTLExX79-139" value="" style="group" vertex="1" connectable="0" parent="1">
          <mxGeometry x="130" y="160" width="320" height="120" as="geometry" />
        </mxCell>
        <mxCell id="JJkMY_QVzMOAWTLExX79-9" value="" style="rounded=0;whiteSpace=wrap;html=1;" vertex="1" parent="JJkMY_QVzMOAWTLExX79-139">
          <mxGeometry width="20" height="10" as="geometry" />
        </mxCell>
        <mxCell id="JJkMY_QVzMOAWTLExX79-40" value="" style="rounded=0;whiteSpace=wrap;html=1;" vertex="1" parent="JJkMY_QVzMOAWTLExX79-139">
          <mxGeometry x="20" width="20" height="10" as="geometry" />
        </mxCell>
        <mxCell id="JJkMY_QVzMOAWTLExX79-41" value="" style="rounded=0;whiteSpace=wrap;html=1;" vertex="1" parent="JJkMY_QVzMOAWTLExX79-139">
          <mxGeometry y="10" width="20" height="10" as="geometry" />
        </mxCell>
        <mxCell id="JJkMY_QVzMOAWTLExX79-42" value="" style="rounded=0;whiteSpace=wrap;html=1;" vertex="1" parent="JJkMY_QVzMOAWTLExX79-139">
          <mxGeometry x="20" y="10" width="20" height="10" as="geometry" />
        </mxCell>
        <mxCell id="JJkMY_QVzMOAWTLExX79-43" value="" style="rounded=0;whiteSpace=wrap;html=1;" vertex="1" parent="JJkMY_QVzMOAWTLExX79-139">
          <mxGeometry y="20" width="20" height="10" as="geometry" />
        </mxCell>
        <mxCell id="JJkMY_QVzMOAWTLExX79-44" value="" style="rounded=0;whiteSpace=wrap;html=1;" vertex="1" parent="JJkMY_QVzMOAWTLExX79-139">
          <mxGeometry x="20" y="20" width="20" height="10" as="geometry" />
        </mxCell>
        <mxCell id="JJkMY_QVzMOAWTLExX79-47" value="" style="rounded=0;whiteSpace=wrap;html=1;" vertex="1" parent="JJkMY_QVzMOAWTLExX79-139">
          <mxGeometry x="50" width="20" height="10" as="geometry" />
        </mxCell>
        <mxCell id="JJkMY_QVzMOAWTLExX79-48" value="" style="rounded=0;whiteSpace=wrap;html=1;" vertex="1" parent="JJkMY_QVzMOAWTLExX79-139">
          <mxGeometry x="70" width="20" height="10" as="geometry" />
        </mxCell>
        <mxCell id="JJkMY_QVzMOAWTLExX79-49" value="" style="rounded=0;whiteSpace=wrap;html=1;" vertex="1" parent="JJkMY_QVzMOAWTLExX79-139">
          <mxGeometry x="50" y="10" width="20" height="10" as="geometry" />
        </mxCell>
        <mxCell id="JJkMY_QVzMOAWTLExX79-50" value="" style="rounded=0;whiteSpace=wrap;html=1;" vertex="1" parent="JJkMY_QVzMOAWTLExX79-139">
          <mxGeometry x="70" y="10" width="20" height="10" as="geometry" />
        </mxCell>
        <mxCell id="JJkMY_QVzMOAWTLExX79-51" value="" style="rounded=0;whiteSpace=wrap;html=1;" vertex="1" parent="JJkMY_QVzMOAWTLExX79-139">
          <mxGeometry x="50" y="20" width="20" height="10" as="geometry" />
        </mxCell>
        <mxCell id="JJkMY_QVzMOAWTLExX79-52" value="" style="rounded=0;whiteSpace=wrap;html=1;" vertex="1" parent="JJkMY_QVzMOAWTLExX79-139">
          <mxGeometry x="70" y="20" width="20" height="10" as="geometry" />
        </mxCell>
        <mxCell id="JJkMY_QVzMOAWTLExX79-53" value="" style="rounded=0;whiteSpace=wrap;html=1;" vertex="1" parent="JJkMY_QVzMOAWTLExX79-139">
          <mxGeometry x="100" width="20" height="10" as="geometry" />
        </mxCell>
        <mxCell id="JJkMY_QVzMOAWTLExX79-54" value="" style="rounded=0;whiteSpace=wrap;html=1;" vertex="1" parent="JJkMY_QVzMOAWTLExX79-139">
          <mxGeometry x="120" width="20" height="10" as="geometry" />
        </mxCell>
        <mxCell id="JJkMY_QVzMOAWTLExX79-55" value="" style="rounded=0;whiteSpace=wrap;html=1;" vertex="1" parent="JJkMY_QVzMOAWTLExX79-139">
          <mxGeometry x="100" y="10" width="20" height="10" as="geometry" />
        </mxCell>
        <mxCell id="JJkMY_QVzMOAWTLExX79-56" value="" style="rounded=0;whiteSpace=wrap;html=1;" vertex="1" parent="JJkMY_QVzMOAWTLExX79-139">
          <mxGeometry x="120" y="10" width="20" height="10" as="geometry" />
        </mxCell>
        <mxCell id="JJkMY_QVzMOAWTLExX79-57" value="" style="rounded=0;whiteSpace=wrap;html=1;" vertex="1" parent="JJkMY_QVzMOAWTLExX79-139">
          <mxGeometry x="100" y="20" width="20" height="10" as="geometry" />
        </mxCell>
        <mxCell id="JJkMY_QVzMOAWTLExX79-58" value="" style="rounded=0;whiteSpace=wrap;html=1;" vertex="1" parent="JJkMY_QVzMOAWTLExX79-139">
          <mxGeometry x="120" y="20" width="20" height="10" as="geometry" />
        </mxCell>
        <mxCell id="JJkMY_QVzMOAWTLExX79-59" value="" style="rounded=0;whiteSpace=wrap;html=1;" vertex="1" parent="JJkMY_QVzMOAWTLExX79-139">
          <mxGeometry x="150" width="20" height="10" as="geometry" />
        </mxCell>
        <mxCell id="JJkMY_QVzMOAWTLExX79-60" value="" style="rounded=0;whiteSpace=wrap;html=1;" vertex="1" parent="JJkMY_QVzMOAWTLExX79-139">
          <mxGeometry x="170" width="20" height="10" as="geometry" />
        </mxCell>
        <mxCell id="JJkMY_QVzMOAWTLExX79-61" value="" style="rounded=0;whiteSpace=wrap;html=1;" vertex="1" parent="JJkMY_QVzMOAWTLExX79-139">
          <mxGeometry x="150" y="10" width="20" height="10" as="geometry" />
        </mxCell>
        <mxCell id="JJkMY_QVzMOAWTLExX79-62" value="" style="rounded=0;whiteSpace=wrap;html=1;" vertex="1" parent="JJkMY_QVzMOAWTLExX79-139">
          <mxGeometry x="170" y="10" width="20" height="10" as="geometry" />
        </mxCell>
        <mxCell id="JJkMY_QVzMOAWTLExX79-63" value="" style="rounded=0;whiteSpace=wrap;html=1;" vertex="1" parent="JJkMY_QVzMOAWTLExX79-139">
          <mxGeometry x="150" y="20" width="20" height="10" as="geometry" />
        </mxCell>
        <mxCell id="JJkMY_QVzMOAWTLExX79-64" value="" style="rounded=0;whiteSpace=wrap;html=1;" vertex="1" parent="JJkMY_QVzMOAWTLExX79-139">
          <mxGeometry x="170" y="20" width="20" height="10" as="geometry" />
        </mxCell>
        <mxCell id="JJkMY_QVzMOAWTLExX79-79" value="" style="rounded=0;whiteSpace=wrap;html=1;" vertex="1" parent="JJkMY_QVzMOAWTLExX79-139">
          <mxGeometry x="150" y="40" width="20" height="10" as="geometry" />
        </mxCell>
        <mxCell id="JJkMY_QVzMOAWTLExX79-80" value="" style="rounded=0;whiteSpace=wrap;html=1;" vertex="1" parent="JJkMY_QVzMOAWTLExX79-139">
          <mxGeometry x="170" y="40" width="20" height="10" as="geometry" />
        </mxCell>
        <mxCell id="JJkMY_QVzMOAWTLExX79-81" value="" style="rounded=0;whiteSpace=wrap;html=1;" vertex="1" parent="JJkMY_QVzMOAWTLExX79-139">
          <mxGeometry x="150" y="50" width="20" height="10" as="geometry" />
        </mxCell>
        <mxCell id="JJkMY_QVzMOAWTLExX79-82" value="" style="rounded=0;whiteSpace=wrap;html=1;" vertex="1" parent="JJkMY_QVzMOAWTLExX79-139">
          <mxGeometry x="170" y="50" width="20" height="10" as="geometry" />
        </mxCell>
        <mxCell id="JJkMY_QVzMOAWTLExX79-83" value="" style="rounded=0;whiteSpace=wrap;html=1;" vertex="1" parent="JJkMY_QVzMOAWTLExX79-139">
          <mxGeometry x="100" y="40" width="20" height="10" as="geometry" />
        </mxCell>
        <mxCell id="JJkMY_QVzMOAWTLExX79-84" value="" style="rounded=0;whiteSpace=wrap;html=1;" vertex="1" parent="JJkMY_QVzMOAWTLExX79-139">
          <mxGeometry x="120" y="40" width="20" height="10" as="geometry" />
        </mxCell>
        <mxCell id="JJkMY_QVzMOAWTLExX79-85" value="" style="rounded=0;whiteSpace=wrap;html=1;" vertex="1" parent="JJkMY_QVzMOAWTLExX79-139">
          <mxGeometry x="100" y="50" width="20" height="10" as="geometry" />
        </mxCell>
        <mxCell id="JJkMY_QVzMOAWTLExX79-86" value="" style="rounded=0;whiteSpace=wrap;html=1;" vertex="1" parent="JJkMY_QVzMOAWTLExX79-139">
          <mxGeometry x="120" y="50" width="20" height="10" as="geometry" />
        </mxCell>
        <mxCell id="JJkMY_QVzMOAWTLExX79-87" value="" style="rounded=0;whiteSpace=wrap;html=1;" vertex="1" parent="JJkMY_QVzMOAWTLExX79-139">
          <mxGeometry x="50" y="40" width="20" height="10" as="geometry" />
        </mxCell>
        <mxCell id="JJkMY_QVzMOAWTLExX79-88" value="" style="rounded=0;whiteSpace=wrap;html=1;" vertex="1" parent="JJkMY_QVzMOAWTLExX79-139">
          <mxGeometry x="70" y="40" width="20" height="10" as="geometry" />
        </mxCell>
        <mxCell id="JJkMY_QVzMOAWTLExX79-89" value="" style="rounded=0;whiteSpace=wrap;html=1;" vertex="1" parent="JJkMY_QVzMOAWTLExX79-139">
          <mxGeometry x="50" y="50" width="20" height="10" as="geometry" />
        </mxCell>
        <mxCell id="JJkMY_QVzMOAWTLExX79-90" value="" style="rounded=0;whiteSpace=wrap;html=1;" vertex="1" parent="JJkMY_QVzMOAWTLExX79-139">
          <mxGeometry x="70" y="50" width="20" height="10" as="geometry" />
        </mxCell>
        <mxCell id="JJkMY_QVzMOAWTLExX79-91" value="" style="rounded=0;whiteSpace=wrap;html=1;" vertex="1" parent="JJkMY_QVzMOAWTLExX79-139">
          <mxGeometry y="40" width="20" height="10" as="geometry" />
        </mxCell>
        <mxCell id="JJkMY_QVzMOAWTLExX79-92" value="" style="rounded=0;whiteSpace=wrap;html=1;" vertex="1" parent="JJkMY_QVzMOAWTLExX79-139">
          <mxGeometry x="20" y="40" width="20" height="10" as="geometry" />
        </mxCell>
        <mxCell id="JJkMY_QVzMOAWTLExX79-93" value="" style="rounded=0;whiteSpace=wrap;html=1;" vertex="1" parent="JJkMY_QVzMOAWTLExX79-139">
          <mxGeometry y="50" width="20" height="10" as="geometry" />
        </mxCell>
        <mxCell id="JJkMY_QVzMOAWTLExX79-94" value="" style="rounded=0;whiteSpace=wrap;html=1;" vertex="1" parent="JJkMY_QVzMOAWTLExX79-139">
          <mxGeometry x="20" y="50" width="20" height="10" as="geometry" />
        </mxCell>
        <mxCell id="JJkMY_QVzMOAWTLExX79-141" value="DRY GOODS&lt;br&gt;&lt;div&gt;&lt;br&gt;&lt;/div&gt;&lt;div&gt;&lt;br&gt;&lt;/div&gt;&lt;div&gt;&lt;br&gt;&lt;/div&gt;&lt;div&gt;&lt;br&gt;&lt;/div&gt;&lt;div&gt;&lt;br&gt;&lt;/div&gt;&lt;div&gt;&lt;br&gt;&lt;/div&gt;&lt;div&gt;&lt;br&gt;&lt;/div&gt;&lt;div&gt;&lt;br&gt;&lt;/div&gt;" style="rounded=0;whiteSpace=wrap;html=1;" vertex="1" parent="1">
          <mxGeometry x="480" y="130" width="340" height="140" as="geometry" />
        </mxCell>
        <mxCell id="JJkMY_QVzMOAWTLExX79-287" value="" style="group" vertex="1" connectable="0" parent="1">
          <mxGeometry x="490" y="163" width="320" height="95" as="geometry" />
        </mxCell>
        <mxCell id="JJkMY_QVzMOAWTLExX79-166" value="" style="rounded=0;whiteSpace=wrap;html=1;" vertex="1" parent="JJkMY_QVzMOAWTLExX79-287">
          <mxGeometry x="224" width="20" height="10" as="geometry" />
        </mxCell>
        <mxCell id="JJkMY_QVzMOAWTLExX79-170" value="" style="rounded=0;whiteSpace=wrap;html=1;" vertex="1" parent="JJkMY_QVzMOAWTLExX79-287">
          <mxGeometry x="280" width="20" height="10" as="geometry" />
        </mxCell>
        <mxCell id="JJkMY_QVzMOAWTLExX79-171" value="" style="rounded=0;whiteSpace=wrap;html=1;" vertex="1" parent="JJkMY_QVzMOAWTLExX79-287">
          <mxGeometry x="300" width="20" height="10" as="geometry" />
        </mxCell>
        <mxCell id="JJkMY_QVzMOAWTLExX79-172" value="" style="rounded=0;whiteSpace=wrap;html=1;" vertex="1" parent="JJkMY_QVzMOAWTLExX79-287">
          <mxGeometry x="280" y="10" width="20" height="10" as="geometry" />
        </mxCell>
        <mxCell id="JJkMY_QVzMOAWTLExX79-173" value="" style="rounded=0;whiteSpace=wrap;html=1;" vertex="1" parent="JJkMY_QVzMOAWTLExX79-287">
          <mxGeometry x="300" y="10" width="20" height="10" as="geometry" />
        </mxCell>
        <mxCell id="JJkMY_QVzMOAWTLExX79-196" value="" style="rounded=0;whiteSpace=wrap;html=1;" vertex="1" parent="JJkMY_QVzMOAWTLExX79-287">
          <mxGeometry x="20" y="10" width="20" height="10" as="geometry" />
        </mxCell>
        <mxCell id="JJkMY_QVzMOAWTLExX79-197" value="" style="rounded=0;whiteSpace=wrap;html=1;" vertex="1" parent="JJkMY_QVzMOAWTLExX79-287">
          <mxGeometry y="10" width="20" height="10" as="geometry" />
        </mxCell>
        <mxCell id="JJkMY_QVzMOAWTLExX79-198" value="" style="rounded=0;whiteSpace=wrap;html=1;" vertex="1" parent="JJkMY_QVzMOAWTLExX79-287">
          <mxGeometry width="20" height="10" as="geometry" />
        </mxCell>
        <mxCell id="JJkMY_QVzMOAWTLExX79-199" value="" style="rounded=0;whiteSpace=wrap;html=1;" vertex="1" parent="JJkMY_QVzMOAWTLExX79-287">
          <mxGeometry x="20" width="20" height="10" as="geometry" />
        </mxCell>
        <mxCell id="JJkMY_QVzMOAWTLExX79-200" value="" style="rounded=0;whiteSpace=wrap;html=1;" vertex="1" parent="JJkMY_QVzMOAWTLExX79-287">
          <mxGeometry x="56" y="10" width="20" height="10" as="geometry" />
        </mxCell>
        <mxCell id="JJkMY_QVzMOAWTLExX79-201" value="" style="rounded=0;whiteSpace=wrap;html=1;" vertex="1" parent="JJkMY_QVzMOAWTLExX79-287">
          <mxGeometry x="76" y="10" width="20" height="10" as="geometry" />
        </mxCell>
        <mxCell id="JJkMY_QVzMOAWTLExX79-202" value="" style="rounded=0;whiteSpace=wrap;html=1;" vertex="1" parent="JJkMY_QVzMOAWTLExX79-287">
          <mxGeometry x="76" width="20" height="10" as="geometry" />
        </mxCell>
        <mxCell id="JJkMY_QVzMOAWTLExX79-203" value="" style="rounded=0;whiteSpace=wrap;html=1;" vertex="1" parent="JJkMY_QVzMOAWTLExX79-287">
          <mxGeometry x="56" width="20" height="10" as="geometry" />
        </mxCell>
        <mxCell id="JJkMY_QVzMOAWTLExX79-204" value="" style="rounded=0;whiteSpace=wrap;html=1;" vertex="1" parent="JJkMY_QVzMOAWTLExX79-287">
          <mxGeometry x="112" y="10" width="20" height="10" as="geometry" />
        </mxCell>
        <mxCell id="JJkMY_QVzMOAWTLExX79-205" value="" style="rounded=0;whiteSpace=wrap;html=1;" vertex="1" parent="JJkMY_QVzMOAWTLExX79-287">
          <mxGeometry x="132" y="10" width="20" height="10" as="geometry" />
        </mxCell>
        <mxCell id="JJkMY_QVzMOAWTLExX79-206" value="" style="rounded=0;whiteSpace=wrap;html=1;" vertex="1" parent="JJkMY_QVzMOAWTLExX79-287">
          <mxGeometry x="132" width="20" height="10" as="geometry" />
        </mxCell>
        <mxCell id="JJkMY_QVzMOAWTLExX79-207" value="" style="rounded=0;whiteSpace=wrap;html=1;" vertex="1" parent="JJkMY_QVzMOAWTLExX79-287">
          <mxGeometry x="112" width="20" height="10" as="geometry" />
        </mxCell>
        <mxCell id="JJkMY_QVzMOAWTLExX79-208" value="" style="rounded=0;whiteSpace=wrap;html=1;" vertex="1" parent="JJkMY_QVzMOAWTLExX79-287">
          <mxGeometry x="188" y="10" width="20" height="10" as="geometry" />
        </mxCell>
        <mxCell id="JJkMY_QVzMOAWTLExX79-209" value="" style="rounded=0;whiteSpace=wrap;html=1;" vertex="1" parent="JJkMY_QVzMOAWTLExX79-287">
          <mxGeometry x="168" y="10" width="20" height="10" as="geometry" />
        </mxCell>
        <mxCell id="JJkMY_QVzMOAWTLExX79-210" value="" style="rounded=0;whiteSpace=wrap;html=1;" vertex="1" parent="JJkMY_QVzMOAWTLExX79-287">
          <mxGeometry x="168" width="20" height="10" as="geometry" />
        </mxCell>
        <mxCell id="JJkMY_QVzMOAWTLExX79-211" value="" style="rounded=0;whiteSpace=wrap;html=1;" vertex="1" parent="JJkMY_QVzMOAWTLExX79-287">
          <mxGeometry x="188" width="20" height="10" as="geometry" />
        </mxCell>
        <mxCell id="JJkMY_QVzMOAWTLExX79-212" value="" style="rounded=0;whiteSpace=wrap;html=1;" vertex="1" parent="JJkMY_QVzMOAWTLExX79-287">
          <mxGeometry x="224" y="10" width="20" height="10" as="geometry" />
        </mxCell>
        <mxCell id="JJkMY_QVzMOAWTLExX79-213" value="" style="rounded=0;whiteSpace=wrap;html=1;" vertex="1" parent="JJkMY_QVzMOAWTLExX79-287">
          <mxGeometry x="244" y="10" width="20" height="10" as="geometry" />
        </mxCell>
        <mxCell id="JJkMY_QVzMOAWTLExX79-214" value="" style="rounded=0;whiteSpace=wrap;html=1;" vertex="1" parent="JJkMY_QVzMOAWTLExX79-287">
          <mxGeometry x="244" width="20" height="10" as="geometry" />
        </mxCell>
        <mxCell id="JJkMY_QVzMOAWTLExX79-215" value="" style="rounded=0;whiteSpace=wrap;html=1;" vertex="1" parent="JJkMY_QVzMOAWTLExX79-287">
          <mxGeometry x="224" y="25" width="20" height="10" as="geometry" />
        </mxCell>
        <mxCell id="JJkMY_QVzMOAWTLExX79-216" value="" style="rounded=0;whiteSpace=wrap;html=1;" vertex="1" parent="JJkMY_QVzMOAWTLExX79-287">
          <mxGeometry x="280" y="25" width="20" height="10" as="geometry" />
        </mxCell>
        <mxCell id="JJkMY_QVzMOAWTLExX79-217" value="" style="rounded=0;whiteSpace=wrap;html=1;" vertex="1" parent="JJkMY_QVzMOAWTLExX79-287">
          <mxGeometry x="300" y="25" width="20" height="10" as="geometry" />
        </mxCell>
        <mxCell id="JJkMY_QVzMOAWTLExX79-218" value="" style="rounded=0;whiteSpace=wrap;html=1;" vertex="1" parent="JJkMY_QVzMOAWTLExX79-287">
          <mxGeometry x="280" y="35" width="20" height="10" as="geometry" />
        </mxCell>
        <mxCell id="JJkMY_QVzMOAWTLExX79-219" value="" style="rounded=0;whiteSpace=wrap;html=1;" vertex="1" parent="JJkMY_QVzMOAWTLExX79-287">
          <mxGeometry x="300" y="35" width="20" height="10" as="geometry" />
        </mxCell>
        <mxCell id="JJkMY_QVzMOAWTLExX79-220" value="" style="rounded=0;whiteSpace=wrap;html=1;" vertex="1" parent="JJkMY_QVzMOAWTLExX79-287">
          <mxGeometry x="20" y="35" width="20" height="10" as="geometry" />
        </mxCell>
        <mxCell id="JJkMY_QVzMOAWTLExX79-221" value="" style="rounded=0;whiteSpace=wrap;html=1;" vertex="1" parent="JJkMY_QVzMOAWTLExX79-287">
          <mxGeometry y="35" width="20" height="10" as="geometry" />
        </mxCell>
        <mxCell id="JJkMY_QVzMOAWTLExX79-222" value="" style="rounded=0;whiteSpace=wrap;html=1;" vertex="1" parent="JJkMY_QVzMOAWTLExX79-287">
          <mxGeometry y="25" width="20" height="10" as="geometry" />
        </mxCell>
        <mxCell id="JJkMY_QVzMOAWTLExX79-223" value="" style="rounded=0;whiteSpace=wrap;html=1;" vertex="1" parent="JJkMY_QVzMOAWTLExX79-287">
          <mxGeometry x="20" y="25" width="20" height="10" as="geometry" />
        </mxCell>
        <mxCell id="JJkMY_QVzMOAWTLExX79-224" value="" style="rounded=0;whiteSpace=wrap;html=1;" vertex="1" parent="JJkMY_QVzMOAWTLExX79-287">
          <mxGeometry x="56" y="35" width="20" height="10" as="geometry" />
        </mxCell>
        <mxCell id="JJkMY_QVzMOAWTLExX79-225" value="" style="rounded=0;whiteSpace=wrap;html=1;" vertex="1" parent="JJkMY_QVzMOAWTLExX79-287">
          <mxGeometry x="76" y="35" width="20" height="10" as="geometry" />
        </mxCell>
        <mxCell id="JJkMY_QVzMOAWTLExX79-226" value="" style="rounded=0;whiteSpace=wrap;html=1;" vertex="1" parent="JJkMY_QVzMOAWTLExX79-287">
          <mxGeometry x="76" y="25" width="20" height="10" as="geometry" />
        </mxCell>
        <mxCell id="JJkMY_QVzMOAWTLExX79-227" value="" style="rounded=0;whiteSpace=wrap;html=1;" vertex="1" parent="JJkMY_QVzMOAWTLExX79-287">
          <mxGeometry x="56" y="25" width="20" height="10" as="geometry" />
        </mxCell>
        <mxCell id="JJkMY_QVzMOAWTLExX79-228" value="" style="rounded=0;whiteSpace=wrap;html=1;" vertex="1" parent="JJkMY_QVzMOAWTLExX79-287">
          <mxGeometry x="112" y="35" width="20" height="10" as="geometry" />
        </mxCell>
        <mxCell id="JJkMY_QVzMOAWTLExX79-229" value="" style="rounded=0;whiteSpace=wrap;html=1;" vertex="1" parent="JJkMY_QVzMOAWTLExX79-287">
          <mxGeometry x="132" y="35" width="20" height="10" as="geometry" />
        </mxCell>
        <mxCell id="JJkMY_QVzMOAWTLExX79-230" value="" style="rounded=0;whiteSpace=wrap;html=1;" vertex="1" parent="JJkMY_QVzMOAWTLExX79-287">
          <mxGeometry x="132" y="25" width="20" height="10" as="geometry" />
        </mxCell>
        <mxCell id="JJkMY_QVzMOAWTLExX79-231" value="" style="rounded=0;whiteSpace=wrap;html=1;" vertex="1" parent="JJkMY_QVzMOAWTLExX79-287">
          <mxGeometry x="112" y="25" width="20" height="10" as="geometry" />
        </mxCell>
        <mxCell id="JJkMY_QVzMOAWTLExX79-232" value="" style="rounded=0;whiteSpace=wrap;html=1;" vertex="1" parent="JJkMY_QVzMOAWTLExX79-287">
          <mxGeometry x="188" y="35" width="20" height="10" as="geometry" />
        </mxCell>
        <mxCell id="JJkMY_QVzMOAWTLExX79-233" value="" style="rounded=0;whiteSpace=wrap;html=1;" vertex="1" parent="JJkMY_QVzMOAWTLExX79-287">
          <mxGeometry x="168" y="35" width="20" height="10" as="geometry" />
        </mxCell>
        <mxCell id="JJkMY_QVzMOAWTLExX79-234" value="" style="rounded=0;whiteSpace=wrap;html=1;" vertex="1" parent="JJkMY_QVzMOAWTLExX79-287">
          <mxGeometry x="168" y="25" width="20" height="10" as="geometry" />
        </mxCell>
        <mxCell id="JJkMY_QVzMOAWTLExX79-235" value="" style="rounded=0;whiteSpace=wrap;html=1;" vertex="1" parent="JJkMY_QVzMOAWTLExX79-287">
          <mxGeometry x="188" y="25" width="20" height="10" as="geometry" />
        </mxCell>
        <mxCell id="JJkMY_QVzMOAWTLExX79-236" value="" style="rounded=0;whiteSpace=wrap;html=1;" vertex="1" parent="JJkMY_QVzMOAWTLExX79-287">
          <mxGeometry x="224" y="35" width="20" height="10" as="geometry" />
        </mxCell>
        <mxCell id="JJkMY_QVzMOAWTLExX79-237" value="" style="rounded=0;whiteSpace=wrap;html=1;" vertex="1" parent="JJkMY_QVzMOAWTLExX79-287">
          <mxGeometry x="244" y="35" width="20" height="10" as="geometry" />
        </mxCell>
        <mxCell id="JJkMY_QVzMOAWTLExX79-238" value="" style="rounded=0;whiteSpace=wrap;html=1;" vertex="1" parent="JJkMY_QVzMOAWTLExX79-287">
          <mxGeometry x="244" y="25" width="20" height="10" as="geometry" />
        </mxCell>
        <mxCell id="JJkMY_QVzMOAWTLExX79-239" value="" style="rounded=0;whiteSpace=wrap;html=1;" vertex="1" parent="JJkMY_QVzMOAWTLExX79-287">
          <mxGeometry x="224" y="50" width="20" height="10" as="geometry" />
        </mxCell>
        <mxCell id="JJkMY_QVzMOAWTLExX79-240" value="" style="rounded=0;whiteSpace=wrap;html=1;" vertex="1" parent="JJkMY_QVzMOAWTLExX79-287">
          <mxGeometry x="280" y="50" width="20" height="10" as="geometry" />
        </mxCell>
        <mxCell id="JJkMY_QVzMOAWTLExX79-241" value="" style="rounded=0;whiteSpace=wrap;html=1;" vertex="1" parent="JJkMY_QVzMOAWTLExX79-287">
          <mxGeometry x="300" y="50" width="20" height="10" as="geometry" />
        </mxCell>
        <mxCell id="JJkMY_QVzMOAWTLExX79-242" value="" style="rounded=0;whiteSpace=wrap;html=1;" vertex="1" parent="JJkMY_QVzMOAWTLExX79-287">
          <mxGeometry x="280" y="60" width="20" height="10" as="geometry" />
        </mxCell>
        <mxCell id="JJkMY_QVzMOAWTLExX79-243" value="" style="rounded=0;whiteSpace=wrap;html=1;" vertex="1" parent="JJkMY_QVzMOAWTLExX79-287">
          <mxGeometry x="300" y="60" width="20" height="10" as="geometry" />
        </mxCell>
        <mxCell id="JJkMY_QVzMOAWTLExX79-244" value="" style="rounded=0;whiteSpace=wrap;html=1;" vertex="1" parent="JJkMY_QVzMOAWTLExX79-287">
          <mxGeometry x="20" y="60" width="20" height="10" as="geometry" />
        </mxCell>
        <mxCell id="JJkMY_QVzMOAWTLExX79-245" value="" style="rounded=0;whiteSpace=wrap;html=1;" vertex="1" parent="JJkMY_QVzMOAWTLExX79-287">
          <mxGeometry y="60" width="20" height="10" as="geometry" />
        </mxCell>
        <mxCell id="JJkMY_QVzMOAWTLExX79-246" value="" style="rounded=0;whiteSpace=wrap;html=1;" vertex="1" parent="JJkMY_QVzMOAWTLExX79-287">
          <mxGeometry y="50" width="20" height="10" as="geometry" />
        </mxCell>
        <mxCell id="JJkMY_QVzMOAWTLExX79-247" value="" style="rounded=0;whiteSpace=wrap;html=1;" vertex="1" parent="JJkMY_QVzMOAWTLExX79-287">
          <mxGeometry x="20" y="50" width="20" height="10" as="geometry" />
        </mxCell>
        <mxCell id="JJkMY_QVzMOAWTLExX79-248" value="" style="rounded=0;whiteSpace=wrap;html=1;" vertex="1" parent="JJkMY_QVzMOAWTLExX79-287">
          <mxGeometry x="56" y="60" width="20" height="10" as="geometry" />
        </mxCell>
        <mxCell id="JJkMY_QVzMOAWTLExX79-249" value="" style="rounded=0;whiteSpace=wrap;html=1;" vertex="1" parent="JJkMY_QVzMOAWTLExX79-287">
          <mxGeometry x="76" y="60" width="20" height="10" as="geometry" />
        </mxCell>
        <mxCell id="JJkMY_QVzMOAWTLExX79-250" value="" style="rounded=0;whiteSpace=wrap;html=1;" vertex="1" parent="JJkMY_QVzMOAWTLExX79-287">
          <mxGeometry x="76" y="50" width="20" height="10" as="geometry" />
        </mxCell>
        <mxCell id="JJkMY_QVzMOAWTLExX79-251" value="" style="rounded=0;whiteSpace=wrap;html=1;" vertex="1" parent="JJkMY_QVzMOAWTLExX79-287">
          <mxGeometry x="56" y="50" width="20" height="10" as="geometry" />
        </mxCell>
        <mxCell id="JJkMY_QVzMOAWTLExX79-252" value="" style="rounded=0;whiteSpace=wrap;html=1;" vertex="1" parent="JJkMY_QVzMOAWTLExX79-287">
          <mxGeometry x="112" y="60" width="20" height="10" as="geometry" />
        </mxCell>
        <mxCell id="JJkMY_QVzMOAWTLExX79-253" value="" style="rounded=0;whiteSpace=wrap;html=1;" vertex="1" parent="JJkMY_QVzMOAWTLExX79-287">
          <mxGeometry x="132" y="60" width="20" height="10" as="geometry" />
        </mxCell>
        <mxCell id="JJkMY_QVzMOAWTLExX79-254" value="" style="rounded=0;whiteSpace=wrap;html=1;" vertex="1" parent="JJkMY_QVzMOAWTLExX79-287">
          <mxGeometry x="132" y="50" width="20" height="10" as="geometry" />
        </mxCell>
        <mxCell id="JJkMY_QVzMOAWTLExX79-255" value="" style="rounded=0;whiteSpace=wrap;html=1;" vertex="1" parent="JJkMY_QVzMOAWTLExX79-287">
          <mxGeometry x="112" y="50" width="20" height="10" as="geometry" />
        </mxCell>
        <mxCell id="JJkMY_QVzMOAWTLExX79-256" value="" style="rounded=0;whiteSpace=wrap;html=1;" vertex="1" parent="JJkMY_QVzMOAWTLExX79-287">
          <mxGeometry x="188" y="60" width="20" height="10" as="geometry" />
        </mxCell>
        <mxCell id="JJkMY_QVzMOAWTLExX79-257" value="" style="rounded=0;whiteSpace=wrap;html=1;" vertex="1" parent="JJkMY_QVzMOAWTLExX79-287">
          <mxGeometry x="168" y="60" width="20" height="10" as="geometry" />
        </mxCell>
        <mxCell id="JJkMY_QVzMOAWTLExX79-258" value="" style="rounded=0;whiteSpace=wrap;html=1;" vertex="1" parent="JJkMY_QVzMOAWTLExX79-287">
          <mxGeometry x="168" y="50" width="20" height="10" as="geometry" />
        </mxCell>
        <mxCell id="JJkMY_QVzMOAWTLExX79-259" value="" style="rounded=0;whiteSpace=wrap;html=1;" vertex="1" parent="JJkMY_QVzMOAWTLExX79-287">
          <mxGeometry x="188" y="50" width="20" height="10" as="geometry" />
        </mxCell>
        <mxCell id="JJkMY_QVzMOAWTLExX79-260" value="" style="rounded=0;whiteSpace=wrap;html=1;" vertex="1" parent="JJkMY_QVzMOAWTLExX79-287">
          <mxGeometry x="224" y="60" width="20" height="10" as="geometry" />
        </mxCell>
        <mxCell id="JJkMY_QVzMOAWTLExX79-261" value="" style="rounded=0;whiteSpace=wrap;html=1;" vertex="1" parent="JJkMY_QVzMOAWTLExX79-287">
          <mxGeometry x="244" y="60" width="20" height="10" as="geometry" />
        </mxCell>
        <mxCell id="JJkMY_QVzMOAWTLExX79-262" value="" style="rounded=0;whiteSpace=wrap;html=1;" vertex="1" parent="JJkMY_QVzMOAWTLExX79-287">
          <mxGeometry x="244" y="50" width="20" height="10" as="geometry" />
        </mxCell>
        <mxCell id="JJkMY_QVzMOAWTLExX79-263" value="" style="rounded=0;whiteSpace=wrap;html=1;" vertex="1" parent="JJkMY_QVzMOAWTLExX79-287">
          <mxGeometry x="224" y="75" width="20" height="10" as="geometry" />
        </mxCell>
        <mxCell id="JJkMY_QVzMOAWTLExX79-264" value="" style="rounded=0;whiteSpace=wrap;html=1;" vertex="1" parent="JJkMY_QVzMOAWTLExX79-287">
          <mxGeometry x="280" y="75" width="20" height="10" as="geometry" />
        </mxCell>
        <mxCell id="JJkMY_QVzMOAWTLExX79-265" value="" style="rounded=0;whiteSpace=wrap;html=1;" vertex="1" parent="JJkMY_QVzMOAWTLExX79-287">
          <mxGeometry x="300" y="75" width="20" height="10" as="geometry" />
        </mxCell>
        <mxCell id="JJkMY_QVzMOAWTLExX79-266" value="" style="rounded=0;whiteSpace=wrap;html=1;" vertex="1" parent="JJkMY_QVzMOAWTLExX79-287">
          <mxGeometry x="280" y="85" width="20" height="10" as="geometry" />
        </mxCell>
        <mxCell id="JJkMY_QVzMOAWTLExX79-267" value="" style="rounded=0;whiteSpace=wrap;html=1;" vertex="1" parent="JJkMY_QVzMOAWTLExX79-287">
          <mxGeometry x="300" y="85" width="20" height="10" as="geometry" />
        </mxCell>
        <mxCell id="JJkMY_QVzMOAWTLExX79-268" value="" style="rounded=0;whiteSpace=wrap;html=1;" vertex="1" parent="JJkMY_QVzMOAWTLExX79-287">
          <mxGeometry x="20" y="85" width="20" height="10" as="geometry" />
        </mxCell>
        <mxCell id="JJkMY_QVzMOAWTLExX79-269" value="" style="rounded=0;whiteSpace=wrap;html=1;" vertex="1" parent="JJkMY_QVzMOAWTLExX79-287">
          <mxGeometry y="85" width="20" height="10" as="geometry" />
        </mxCell>
        <mxCell id="JJkMY_QVzMOAWTLExX79-270" value="" style="rounded=0;whiteSpace=wrap;html=1;" vertex="1" parent="JJkMY_QVzMOAWTLExX79-287">
          <mxGeometry y="75" width="20" height="10" as="geometry" />
        </mxCell>
        <mxCell id="JJkMY_QVzMOAWTLExX79-271" value="" style="rounded=0;whiteSpace=wrap;html=1;" vertex="1" parent="JJkMY_QVzMOAWTLExX79-287">
          <mxGeometry x="20" y="75" width="20" height="10" as="geometry" />
        </mxCell>
        <mxCell id="JJkMY_QVzMOAWTLExX79-272" value="" style="rounded=0;whiteSpace=wrap;html=1;" vertex="1" parent="JJkMY_QVzMOAWTLExX79-287">
          <mxGeometry x="56" y="85" width="20" height="10" as="geometry" />
        </mxCell>
        <mxCell id="JJkMY_QVzMOAWTLExX79-273" value="" style="rounded=0;whiteSpace=wrap;html=1;" vertex="1" parent="JJkMY_QVzMOAWTLExX79-287">
          <mxGeometry x="76" y="85" width="20" height="10" as="geometry" />
        </mxCell>
        <mxCell id="JJkMY_QVzMOAWTLExX79-274" value="" style="rounded=0;whiteSpace=wrap;html=1;" vertex="1" parent="JJkMY_QVzMOAWTLExX79-287">
          <mxGeometry x="76" y="75" width="20" height="10" as="geometry" />
        </mxCell>
        <mxCell id="JJkMY_QVzMOAWTLExX79-275" value="" style="rounded=0;whiteSpace=wrap;html=1;" vertex="1" parent="JJkMY_QVzMOAWTLExX79-287">
          <mxGeometry x="56" y="75" width="20" height="10" as="geometry" />
        </mxCell>
        <mxCell id="JJkMY_QVzMOAWTLExX79-276" value="" style="rounded=0;whiteSpace=wrap;html=1;" vertex="1" parent="JJkMY_QVzMOAWTLExX79-287">
          <mxGeometry x="112" y="85" width="20" height="10" as="geometry" />
        </mxCell>
        <mxCell id="JJkMY_QVzMOAWTLExX79-277" value="" style="rounded=0;whiteSpace=wrap;html=1;" vertex="1" parent="JJkMY_QVzMOAWTLExX79-287">
          <mxGeometry x="132" y="85" width="20" height="10" as="geometry" />
        </mxCell>
        <mxCell id="JJkMY_QVzMOAWTLExX79-278" value="" style="rounded=0;whiteSpace=wrap;html=1;" vertex="1" parent="JJkMY_QVzMOAWTLExX79-287">
          <mxGeometry x="132" y="75" width="20" height="10" as="geometry" />
        </mxCell>
        <mxCell id="JJkMY_QVzMOAWTLExX79-279" value="" style="rounded=0;whiteSpace=wrap;html=1;" vertex="1" parent="JJkMY_QVzMOAWTLExX79-287">
          <mxGeometry x="112" y="75" width="20" height="10" as="geometry" />
        </mxCell>
        <mxCell id="JJkMY_QVzMOAWTLExX79-280" value="" style="rounded=0;whiteSpace=wrap;html=1;" vertex="1" parent="JJkMY_QVzMOAWTLExX79-287">
          <mxGeometry x="188" y="85" width="20" height="10" as="geometry" />
        </mxCell>
        <mxCell id="JJkMY_QVzMOAWTLExX79-281" value="" style="rounded=0;whiteSpace=wrap;html=1;" vertex="1" parent="JJkMY_QVzMOAWTLExX79-287">
          <mxGeometry x="168" y="85" width="20" height="10" as="geometry" />
        </mxCell>
        <mxCell id="JJkMY_QVzMOAWTLExX79-282" value="" style="rounded=0;whiteSpace=wrap;html=1;" vertex="1" parent="JJkMY_QVzMOAWTLExX79-287">
          <mxGeometry x="168" y="75" width="20" height="10" as="geometry" />
        </mxCell>
        <mxCell id="JJkMY_QVzMOAWTLExX79-283" value="" style="rounded=0;whiteSpace=wrap;html=1;" vertex="1" parent="JJkMY_QVzMOAWTLExX79-287">
          <mxGeometry x="188" y="75" width="20" height="10" as="geometry" />
        </mxCell>
        <mxCell id="JJkMY_QVzMOAWTLExX79-284" value="" style="rounded=0;whiteSpace=wrap;html=1;" vertex="1" parent="JJkMY_QVzMOAWTLExX79-287">
          <mxGeometry x="224" y="85" width="20" height="10" as="geometry" />
        </mxCell>
        <mxCell id="JJkMY_QVzMOAWTLExX79-285" value="" style="rounded=0;whiteSpace=wrap;html=1;" vertex="1" parent="JJkMY_QVzMOAWTLExX79-287">
          <mxGeometry x="244" y="85" width="20" height="10" as="geometry" />
        </mxCell>
        <mxCell id="JJkMY_QVzMOAWTLExX79-286" value="" style="rounded=0;whiteSpace=wrap;html=1;" vertex="1" parent="JJkMY_QVzMOAWTLExX79-287">
          <mxGeometry x="244" y="75" width="20" height="10" as="geometry" />
        </mxCell>
        <mxCell id="JJkMY_QVzMOAWTLExX79-318" value="" style="group" vertex="1" connectable="0" parent="1">
          <mxGeometry x="130" y="340" width="220" height="20" as="geometry" />
        </mxCell>
        <mxCell id="JJkMY_QVzMOAWTLExX79-319" value="" style="rounded=0;whiteSpace=wrap;html=1;" vertex="1" parent="JJkMY_QVzMOAWTLExX79-318">
          <mxGeometry x="73.33333333333334" width="24.444444444444446" height="10" as="geometry" />
        </mxCell>
        <mxCell id="JJkMY_QVzMOAWTLExX79-320" value="" style="rounded=0;whiteSpace=wrap;html=1;" vertex="1" parent="JJkMY_QVzMOAWTLExX79-318">
          <mxGeometry x="97.77777777777779" width="24.444444444444446" height="10" as="geometry" />
        </mxCell>
        <mxCell id="JJkMY_QVzMOAWTLExX79-321" value="" style="rounded=0;whiteSpace=wrap;html=1;" vertex="1" parent="JJkMY_QVzMOAWTLExX79-318">
          <mxGeometry x="73.33333333333334" y="10" width="24.444444444444446" height="10" as="geometry" />
        </mxCell>
        <mxCell id="JJkMY_QVzMOAWTLExX79-322" value="" style="rounded=0;whiteSpace=wrap;html=1;" vertex="1" parent="JJkMY_QVzMOAWTLExX79-318">
          <mxGeometry x="97.77777777777779" y="10" width="24.444444444444446" height="10" as="geometry" />
        </mxCell>
        <mxCell id="JJkMY_QVzMOAWTLExX79-323" value="" style="rounded=0;whiteSpace=wrap;html=1;" vertex="1" parent="JJkMY_QVzMOAWTLExX79-318">
          <mxGeometry x="24.444444444444446" width="24.444444444444446" height="10" as="geometry" />
        </mxCell>
        <mxCell id="JJkMY_QVzMOAWTLExX79-324" value="" style="rounded=0;whiteSpace=wrap;html=1;" vertex="1" parent="JJkMY_QVzMOAWTLExX79-318">
          <mxGeometry x="48.88888888888889" width="24.444444444444446" height="10" as="geometry" />
        </mxCell>
        <mxCell id="JJkMY_QVzMOAWTLExX79-325" value="" style="rounded=0;whiteSpace=wrap;html=1;" vertex="1" parent="JJkMY_QVzMOAWTLExX79-318">
          <mxGeometry x="24.444444444444446" y="10" width="24.444444444444446" height="10" as="geometry" />
        </mxCell>
        <mxCell id="JJkMY_QVzMOAWTLExX79-326" value="" style="rounded=0;whiteSpace=wrap;html=1;" vertex="1" parent="JJkMY_QVzMOAWTLExX79-318">
          <mxGeometry x="48.88888888888889" y="10" width="24.444444444444446" height="10" as="geometry" />
        </mxCell>
        <mxCell id="JJkMY_QVzMOAWTLExX79-327" value="" style="rounded=0;whiteSpace=wrap;html=1;" vertex="1" parent="JJkMY_QVzMOAWTLExX79-318">
          <mxGeometry width="24.444444444444446" height="10" as="geometry" />
        </mxCell>
        <mxCell id="JJkMY_QVzMOAWTLExX79-328" value="" style="rounded=0;whiteSpace=wrap;html=1;" vertex="1" parent="JJkMY_QVzMOAWTLExX79-318">
          <mxGeometry y="10" width="24.444444444444446" height="10" as="geometry" />
        </mxCell>
        <mxCell id="JJkMY_QVzMOAWTLExX79-329" value="" style="rounded=0;whiteSpace=wrap;html=1;" vertex="1" parent="JJkMY_QVzMOAWTLExX79-318">
          <mxGeometry x="195.55555555555557" width="24.444444444444446" height="10" as="geometry" />
        </mxCell>
        <mxCell id="JJkMY_QVzMOAWTLExX79-330" value="" style="rounded=0;whiteSpace=wrap;html=1;" vertex="1" parent="JJkMY_QVzMOAWTLExX79-318">
          <mxGeometry x="195.55555555555557" y="10" width="24.444444444444446" height="10" as="geometry" />
        </mxCell>
        <mxCell id="JJkMY_QVzMOAWTLExX79-331" value="" style="rounded=0;whiteSpace=wrap;html=1;" vertex="1" parent="JJkMY_QVzMOAWTLExX79-318">
          <mxGeometry x="146.66666666666669" width="24.444444444444446" height="10" as="geometry" />
        </mxCell>
        <mxCell id="JJkMY_QVzMOAWTLExX79-332" value="" style="rounded=0;whiteSpace=wrap;html=1;" vertex="1" parent="JJkMY_QVzMOAWTLExX79-318">
          <mxGeometry x="171.11111111111111" width="24.444444444444446" height="10" as="geometry" />
        </mxCell>
        <mxCell id="JJkMY_QVzMOAWTLExX79-333" value="" style="rounded=0;whiteSpace=wrap;html=1;" vertex="1" parent="JJkMY_QVzMOAWTLExX79-318">
          <mxGeometry x="146.66666666666669" y="10" width="24.444444444444446" height="10" as="geometry" />
        </mxCell>
        <mxCell id="JJkMY_QVzMOAWTLExX79-334" value="" style="rounded=0;whiteSpace=wrap;html=1;" vertex="1" parent="JJkMY_QVzMOAWTLExX79-318">
          <mxGeometry x="171.11111111111111" y="10" width="24.444444444444446" height="10" as="geometry" />
        </mxCell>
        <mxCell id="JJkMY_QVzMOAWTLExX79-335" value="" style="rounded=0;whiteSpace=wrap;html=1;" vertex="1" parent="JJkMY_QVzMOAWTLExX79-318">
          <mxGeometry x="122.22222222222223" width="24.444444444444446" height="10" as="geometry" />
        </mxCell>
        <mxCell id="JJkMY_QVzMOAWTLExX79-336" value="" style="rounded=0;whiteSpace=wrap;html=1;" vertex="1" parent="JJkMY_QVzMOAWTLExX79-318">
          <mxGeometry x="122.22222222222223" y="10" width="24.444444444444446" height="10" as="geometry" />
        </mxCell>
        <mxCell id="JJkMY_QVzMOAWTLExX79-496" value="" style="group" vertex="1" connectable="0" parent="1">
          <mxGeometry x="360" y="340" width="220" height="20" as="geometry" />
        </mxCell>
        <mxCell id="JJkMY_QVzMOAWTLExX79-497" value="" style="rounded=0;whiteSpace=wrap;html=1;" vertex="1" parent="JJkMY_QVzMOAWTLExX79-496">
          <mxGeometry x="73.33333333333334" width="24.444444444444446" height="10" as="geometry" />
        </mxCell>
        <mxCell id="JJkMY_QVzMOAWTLExX79-498" value="" style="rounded=0;whiteSpace=wrap;html=1;" vertex="1" parent="JJkMY_QVzMOAWTLExX79-496">
          <mxGeometry x="97.77777777777779" width="24.444444444444446" height="10" as="geometry" />
        </mxCell>
        <mxCell id="JJkMY_QVzMOAWTLExX79-499" value="" style="rounded=0;whiteSpace=wrap;html=1;" vertex="1" parent="JJkMY_QVzMOAWTLExX79-496">
          <mxGeometry x="73.33333333333334" y="10" width="24.444444444444446" height="10" as="geometry" />
        </mxCell>
        <mxCell id="JJkMY_QVzMOAWTLExX79-500" value="" style="rounded=0;whiteSpace=wrap;html=1;" vertex="1" parent="JJkMY_QVzMOAWTLExX79-496">
          <mxGeometry x="97.77777777777779" y="10" width="24.444444444444446" height="10" as="geometry" />
        </mxCell>
        <mxCell id="JJkMY_QVzMOAWTLExX79-501" value="" style="rounded=0;whiteSpace=wrap;html=1;" vertex="1" parent="JJkMY_QVzMOAWTLExX79-496">
          <mxGeometry x="24.444444444444446" width="24.444444444444446" height="10" as="geometry" />
        </mxCell>
        <mxCell id="JJkMY_QVzMOAWTLExX79-502" value="" style="rounded=0;whiteSpace=wrap;html=1;" vertex="1" parent="JJkMY_QVzMOAWTLExX79-496">
          <mxGeometry x="48.88888888888889" width="24.444444444444446" height="10" as="geometry" />
        </mxCell>
        <mxCell id="JJkMY_QVzMOAWTLExX79-503" value="" style="rounded=0;whiteSpace=wrap;html=1;" vertex="1" parent="JJkMY_QVzMOAWTLExX79-496">
          <mxGeometry x="24.444444444444446" y="10" width="24.444444444444446" height="10" as="geometry" />
        </mxCell>
        <mxCell id="JJkMY_QVzMOAWTLExX79-504" value="" style="rounded=0;whiteSpace=wrap;html=1;" vertex="1" parent="JJkMY_QVzMOAWTLExX79-496">
          <mxGeometry x="48.88888888888889" y="10" width="24.444444444444446" height="10" as="geometry" />
        </mxCell>
        <mxCell id="JJkMY_QVzMOAWTLExX79-505" value="" style="rounded=0;whiteSpace=wrap;html=1;" vertex="1" parent="JJkMY_QVzMOAWTLExX79-496">
          <mxGeometry width="24.444444444444446" height="10" as="geometry" />
        </mxCell>
        <mxCell id="JJkMY_QVzMOAWTLExX79-506" value="" style="rounded=0;whiteSpace=wrap;html=1;" vertex="1" parent="JJkMY_QVzMOAWTLExX79-496">
          <mxGeometry y="10" width="24.444444444444446" height="10" as="geometry" />
        </mxCell>
        <mxCell id="JJkMY_QVzMOAWTLExX79-507" value="" style="rounded=0;whiteSpace=wrap;html=1;" vertex="1" parent="JJkMY_QVzMOAWTLExX79-496">
          <mxGeometry x="195.55555555555557" width="24.444444444444446" height="10" as="geometry" />
        </mxCell>
        <mxCell id="JJkMY_QVzMOAWTLExX79-508" value="" style="rounded=0;whiteSpace=wrap;html=1;" vertex="1" parent="JJkMY_QVzMOAWTLExX79-496">
          <mxGeometry x="195.55555555555557" y="10" width="24.444444444444446" height="10" as="geometry" />
        </mxCell>
        <mxCell id="JJkMY_QVzMOAWTLExX79-509" value="" style="rounded=0;whiteSpace=wrap;html=1;" vertex="1" parent="JJkMY_QVzMOAWTLExX79-496">
          <mxGeometry x="146.66666666666669" width="24.444444444444446" height="10" as="geometry" />
        </mxCell>
        <mxCell id="JJkMY_QVzMOAWTLExX79-510" value="" style="rounded=0;whiteSpace=wrap;html=1;" vertex="1" parent="JJkMY_QVzMOAWTLExX79-496">
          <mxGeometry x="171.11111111111111" width="24.444444444444446" height="10" as="geometry" />
        </mxCell>
        <mxCell id="JJkMY_QVzMOAWTLExX79-511" value="" style="rounded=0;whiteSpace=wrap;html=1;" vertex="1" parent="JJkMY_QVzMOAWTLExX79-496">
          <mxGeometry x="146.66666666666669" y="10" width="24.444444444444446" height="10" as="geometry" />
        </mxCell>
        <mxCell id="JJkMY_QVzMOAWTLExX79-512" value="" style="rounded=0;whiteSpace=wrap;html=1;" vertex="1" parent="JJkMY_QVzMOAWTLExX79-496">
          <mxGeometry x="171.11111111111111" y="10" width="24.444444444444446" height="10" as="geometry" />
        </mxCell>
        <mxCell id="JJkMY_QVzMOAWTLExX79-513" value="" style="rounded=0;whiteSpace=wrap;html=1;" vertex="1" parent="JJkMY_QVzMOAWTLExX79-496">
          <mxGeometry x="122.22222222222223" width="24.444444444444446" height="10" as="geometry" />
        </mxCell>
        <mxCell id="JJkMY_QVzMOAWTLExX79-514" value="" style="rounded=0;whiteSpace=wrap;html=1;" vertex="1" parent="JJkMY_QVzMOAWTLExX79-496">
          <mxGeometry x="122.22222222222223" y="10" width="24.444444444444446" height="10" as="geometry" />
        </mxCell>
        <mxCell id="JJkMY_QVzMOAWTLExX79-517" value="" style="group" vertex="1" connectable="0" parent="1">
          <mxGeometry x="590" y="340" width="220" height="20" as="geometry" />
        </mxCell>
        <mxCell id="JJkMY_QVzMOAWTLExX79-518" value="" style="rounded=0;whiteSpace=wrap;html=1;" vertex="1" parent="JJkMY_QVzMOAWTLExX79-517">
          <mxGeometry x="73.33333333333334" width="24.444444444444446" height="10" as="geometry" />
        </mxCell>
        <mxCell id="JJkMY_QVzMOAWTLExX79-519" value="" style="rounded=0;whiteSpace=wrap;html=1;" vertex="1" parent="JJkMY_QVzMOAWTLExX79-517">
          <mxGeometry x="97.77777777777779" width="24.444444444444446" height="10" as="geometry" />
        </mxCell>
        <mxCell id="JJkMY_QVzMOAWTLExX79-520" value="" style="rounded=0;whiteSpace=wrap;html=1;" vertex="1" parent="JJkMY_QVzMOAWTLExX79-517">
          <mxGeometry x="73.33333333333334" y="10" width="24.444444444444446" height="10" as="geometry" />
        </mxCell>
        <mxCell id="JJkMY_QVzMOAWTLExX79-521" value="" style="rounded=0;whiteSpace=wrap;html=1;" vertex="1" parent="JJkMY_QVzMOAWTLExX79-517">
          <mxGeometry x="97.77777777777779" y="10" width="24.444444444444446" height="10" as="geometry" />
        </mxCell>
        <mxCell id="JJkMY_QVzMOAWTLExX79-522" value="" style="rounded=0;whiteSpace=wrap;html=1;" vertex="1" parent="JJkMY_QVzMOAWTLExX79-517">
          <mxGeometry x="24.444444444444446" width="24.444444444444446" height="10" as="geometry" />
        </mxCell>
        <mxCell id="JJkMY_QVzMOAWTLExX79-523" value="" style="rounded=0;whiteSpace=wrap;html=1;" vertex="1" parent="JJkMY_QVzMOAWTLExX79-517">
          <mxGeometry x="48.88888888888889" width="24.444444444444446" height="10" as="geometry" />
        </mxCell>
        <mxCell id="JJkMY_QVzMOAWTLExX79-524" value="" style="rounded=0;whiteSpace=wrap;html=1;" vertex="1" parent="JJkMY_QVzMOAWTLExX79-517">
          <mxGeometry x="24.444444444444446" y="10" width="24.444444444444446" height="10" as="geometry" />
        </mxCell>
        <mxCell id="JJkMY_QVzMOAWTLExX79-525" value="" style="rounded=0;whiteSpace=wrap;html=1;" vertex="1" parent="JJkMY_QVzMOAWTLExX79-517">
          <mxGeometry x="48.88888888888889" y="10" width="24.444444444444446" height="10" as="geometry" />
        </mxCell>
        <mxCell id="JJkMY_QVzMOAWTLExX79-526" value="" style="rounded=0;whiteSpace=wrap;html=1;" vertex="1" parent="JJkMY_QVzMOAWTLExX79-517">
          <mxGeometry width="24.444444444444446" height="10" as="geometry" />
        </mxCell>
        <mxCell id="JJkMY_QVzMOAWTLExX79-527" value="" style="rounded=0;whiteSpace=wrap;html=1;" vertex="1" parent="JJkMY_QVzMOAWTLExX79-517">
          <mxGeometry y="10" width="24.444444444444446" height="10" as="geometry" />
        </mxCell>
        <mxCell id="JJkMY_QVzMOAWTLExX79-528" value="" style="rounded=0;whiteSpace=wrap;html=1;" vertex="1" parent="JJkMY_QVzMOAWTLExX79-517">
          <mxGeometry x="195.55555555555557" width="24.444444444444446" height="10" as="geometry" />
        </mxCell>
        <mxCell id="JJkMY_QVzMOAWTLExX79-529" value="" style="rounded=0;whiteSpace=wrap;html=1;" vertex="1" parent="JJkMY_QVzMOAWTLExX79-517">
          <mxGeometry x="195.55555555555557" y="10" width="24.444444444444446" height="10" as="geometry" />
        </mxCell>
        <mxCell id="JJkMY_QVzMOAWTLExX79-530" value="" style="rounded=0;whiteSpace=wrap;html=1;" vertex="1" parent="JJkMY_QVzMOAWTLExX79-517">
          <mxGeometry x="146.66666666666669" width="24.444444444444446" height="10" as="geometry" />
        </mxCell>
        <mxCell id="JJkMY_QVzMOAWTLExX79-531" value="" style="rounded=0;whiteSpace=wrap;html=1;" vertex="1" parent="JJkMY_QVzMOAWTLExX79-517">
          <mxGeometry x="171.11111111111111" width="24.444444444444446" height="10" as="geometry" />
        </mxCell>
        <mxCell id="JJkMY_QVzMOAWTLExX79-532" value="" style="rounded=0;whiteSpace=wrap;html=1;" vertex="1" parent="JJkMY_QVzMOAWTLExX79-517">
          <mxGeometry x="146.66666666666669" y="10" width="24.444444444444446" height="10" as="geometry" />
        </mxCell>
        <mxCell id="JJkMY_QVzMOAWTLExX79-533" value="" style="rounded=0;whiteSpace=wrap;html=1;" vertex="1" parent="JJkMY_QVzMOAWTLExX79-517">
          <mxGeometry x="171.11111111111111" y="10" width="24.444444444444446" height="10" as="geometry" />
        </mxCell>
        <mxCell id="JJkMY_QVzMOAWTLExX79-534" value="" style="rounded=0;whiteSpace=wrap;html=1;" vertex="1" parent="JJkMY_QVzMOAWTLExX79-517">
          <mxGeometry x="122.22222222222223" width="24.444444444444446" height="10" as="geometry" />
        </mxCell>
        <mxCell id="JJkMY_QVzMOAWTLExX79-535" value="" style="rounded=0;whiteSpace=wrap;html=1;" vertex="1" parent="JJkMY_QVzMOAWTLExX79-517">
          <mxGeometry x="122.22222222222223" y="10" width="24.444444444444446" height="10" as="geometry" />
        </mxCell>
        <mxCell id="JJkMY_QVzMOAWTLExX79-594" value="" style="group" vertex="1" connectable="0" parent="1">
          <mxGeometry x="130" y="370" width="220" height="20" as="geometry" />
        </mxCell>
        <mxCell id="JJkMY_QVzMOAWTLExX79-595" value="" style="rounded=0;whiteSpace=wrap;html=1;" vertex="1" parent="JJkMY_QVzMOAWTLExX79-594">
          <mxGeometry x="73.33333333333334" width="24.444444444444446" height="10" as="geometry" />
        </mxCell>
        <mxCell id="JJkMY_QVzMOAWTLExX79-596" value="" style="rounded=0;whiteSpace=wrap;html=1;" vertex="1" parent="JJkMY_QVzMOAWTLExX79-594">
          <mxGeometry x="97.77777777777779" width="24.444444444444446" height="10" as="geometry" />
        </mxCell>
        <mxCell id="JJkMY_QVzMOAWTLExX79-597" value="" style="rounded=0;whiteSpace=wrap;html=1;" vertex="1" parent="JJkMY_QVzMOAWTLExX79-594">
          <mxGeometry x="73.33333333333334" y="10" width="24.444444444444446" height="10" as="geometry" />
        </mxCell>
        <mxCell id="JJkMY_QVzMOAWTLExX79-598" value="" style="rounded=0;whiteSpace=wrap;html=1;" vertex="1" parent="JJkMY_QVzMOAWTLExX79-594">
          <mxGeometry x="97.77777777777779" y="10" width="24.444444444444446" height="10" as="geometry" />
        </mxCell>
        <mxCell id="JJkMY_QVzMOAWTLExX79-599" value="" style="rounded=0;whiteSpace=wrap;html=1;" vertex="1" parent="JJkMY_QVzMOAWTLExX79-594">
          <mxGeometry x="24.444444444444446" width="24.444444444444446" height="10" as="geometry" />
        </mxCell>
        <mxCell id="JJkMY_QVzMOAWTLExX79-600" value="" style="rounded=0;whiteSpace=wrap;html=1;" vertex="1" parent="JJkMY_QVzMOAWTLExX79-594">
          <mxGeometry x="48.88888888888889" width="24.444444444444446" height="10" as="geometry" />
        </mxCell>
        <mxCell id="JJkMY_QVzMOAWTLExX79-601" value="" style="rounded=0;whiteSpace=wrap;html=1;" vertex="1" parent="JJkMY_QVzMOAWTLExX79-594">
          <mxGeometry x="24.444444444444446" y="10" width="24.444444444444446" height="10" as="geometry" />
        </mxCell>
        <mxCell id="JJkMY_QVzMOAWTLExX79-602" value="" style="rounded=0;whiteSpace=wrap;html=1;" vertex="1" parent="JJkMY_QVzMOAWTLExX79-594">
          <mxGeometry x="48.88888888888889" y="10" width="24.444444444444446" height="10" as="geometry" />
        </mxCell>
        <mxCell id="JJkMY_QVzMOAWTLExX79-603" value="" style="rounded=0;whiteSpace=wrap;html=1;" vertex="1" parent="JJkMY_QVzMOAWTLExX79-594">
          <mxGeometry width="24.444444444444446" height="10" as="geometry" />
        </mxCell>
        <mxCell id="JJkMY_QVzMOAWTLExX79-604" value="" style="rounded=0;whiteSpace=wrap;html=1;" vertex="1" parent="JJkMY_QVzMOAWTLExX79-594">
          <mxGeometry y="10" width="24.444444444444446" height="10" as="geometry" />
        </mxCell>
        <mxCell id="JJkMY_QVzMOAWTLExX79-605" value="" style="rounded=0;whiteSpace=wrap;html=1;" vertex="1" parent="JJkMY_QVzMOAWTLExX79-594">
          <mxGeometry x="195.55555555555557" width="24.444444444444446" height="10" as="geometry" />
        </mxCell>
        <mxCell id="JJkMY_QVzMOAWTLExX79-606" value="" style="rounded=0;whiteSpace=wrap;html=1;" vertex="1" parent="JJkMY_QVzMOAWTLExX79-594">
          <mxGeometry x="195.55555555555557" y="10" width="24.444444444444446" height="10" as="geometry" />
        </mxCell>
        <mxCell id="JJkMY_QVzMOAWTLExX79-607" value="" style="rounded=0;whiteSpace=wrap;html=1;" vertex="1" parent="JJkMY_QVzMOAWTLExX79-594">
          <mxGeometry x="146.66666666666669" width="24.444444444444446" height="10" as="geometry" />
        </mxCell>
        <mxCell id="JJkMY_QVzMOAWTLExX79-608" value="" style="rounded=0;whiteSpace=wrap;html=1;" vertex="1" parent="JJkMY_QVzMOAWTLExX79-594">
          <mxGeometry x="171.11111111111111" width="24.444444444444446" height="10" as="geometry" />
        </mxCell>
        <mxCell id="JJkMY_QVzMOAWTLExX79-609" value="" style="rounded=0;whiteSpace=wrap;html=1;" vertex="1" parent="JJkMY_QVzMOAWTLExX79-594">
          <mxGeometry x="146.66666666666669" y="10" width="24.444444444444446" height="10" as="geometry" />
        </mxCell>
        <mxCell id="JJkMY_QVzMOAWTLExX79-610" value="" style="rounded=0;whiteSpace=wrap;html=1;" vertex="1" parent="JJkMY_QVzMOAWTLExX79-594">
          <mxGeometry x="171.11111111111111" y="10" width="24.444444444444446" height="10" as="geometry" />
        </mxCell>
        <mxCell id="JJkMY_QVzMOAWTLExX79-611" value="" style="rounded=0;whiteSpace=wrap;html=1;" vertex="1" parent="JJkMY_QVzMOAWTLExX79-594">
          <mxGeometry x="122.22222222222223" width="24.444444444444446" height="10" as="geometry" />
        </mxCell>
        <mxCell id="JJkMY_QVzMOAWTLExX79-612" value="" style="rounded=0;whiteSpace=wrap;html=1;" vertex="1" parent="JJkMY_QVzMOAWTLExX79-594">
          <mxGeometry x="122.22222222222223" y="10" width="24.444444444444446" height="10" as="geometry" />
        </mxCell>
        <mxCell id="JJkMY_QVzMOAWTLExX79-613" value="" style="group" vertex="1" connectable="0" parent="1">
          <mxGeometry x="360" y="370" width="220" height="20" as="geometry" />
        </mxCell>
        <mxCell id="JJkMY_QVzMOAWTLExX79-614" value="" style="rounded=0;whiteSpace=wrap;html=1;" vertex="1" parent="JJkMY_QVzMOAWTLExX79-613">
          <mxGeometry x="73.33333333333334" width="24.444444444444446" height="10" as="geometry" />
        </mxCell>
        <mxCell id="JJkMY_QVzMOAWTLExX79-615" value="" style="rounded=0;whiteSpace=wrap;html=1;" vertex="1" parent="JJkMY_QVzMOAWTLExX79-613">
          <mxGeometry x="97.77777777777779" width="24.444444444444446" height="10" as="geometry" />
        </mxCell>
        <mxCell id="JJkMY_QVzMOAWTLExX79-616" value="" style="rounded=0;whiteSpace=wrap;html=1;" vertex="1" parent="JJkMY_QVzMOAWTLExX79-613">
          <mxGeometry x="73.33333333333334" y="10" width="24.444444444444446" height="10" as="geometry" />
        </mxCell>
        <mxCell id="JJkMY_QVzMOAWTLExX79-617" value="" style="rounded=0;whiteSpace=wrap;html=1;" vertex="1" parent="JJkMY_QVzMOAWTLExX79-613">
          <mxGeometry x="97.77777777777779" y="10" width="24.444444444444446" height="10" as="geometry" />
        </mxCell>
        <mxCell id="JJkMY_QVzMOAWTLExX79-618" value="" style="rounded=0;whiteSpace=wrap;html=1;" vertex="1" parent="JJkMY_QVzMOAWTLExX79-613">
          <mxGeometry x="24.444444444444446" width="24.444444444444446" height="10" as="geometry" />
        </mxCell>
        <mxCell id="JJkMY_QVzMOAWTLExX79-619" value="" style="rounded=0;whiteSpace=wrap;html=1;" vertex="1" parent="JJkMY_QVzMOAWTLExX79-613">
          <mxGeometry x="48.88888888888889" width="24.444444444444446" height="10" as="geometry" />
        </mxCell>
        <mxCell id="JJkMY_QVzMOAWTLExX79-620" value="" style="rounded=0;whiteSpace=wrap;html=1;" vertex="1" parent="JJkMY_QVzMOAWTLExX79-613">
          <mxGeometry x="24.444444444444446" y="10" width="24.444444444444446" height="10" as="geometry" />
        </mxCell>
        <mxCell id="JJkMY_QVzMOAWTLExX79-621" value="" style="rounded=0;whiteSpace=wrap;html=1;" vertex="1" parent="JJkMY_QVzMOAWTLExX79-613">
          <mxGeometry x="48.88888888888889" y="10" width="24.444444444444446" height="10" as="geometry" />
        </mxCell>
        <mxCell id="JJkMY_QVzMOAWTLExX79-622" value="" style="rounded=0;whiteSpace=wrap;html=1;" vertex="1" parent="JJkMY_QVzMOAWTLExX79-613">
          <mxGeometry width="24.444444444444446" height="10" as="geometry" />
        </mxCell>
        <mxCell id="JJkMY_QVzMOAWTLExX79-623" value="" style="rounded=0;whiteSpace=wrap;html=1;" vertex="1" parent="JJkMY_QVzMOAWTLExX79-613">
          <mxGeometry y="10" width="24.444444444444446" height="10" as="geometry" />
        </mxCell>
        <mxCell id="JJkMY_QVzMOAWTLExX79-624" value="" style="rounded=0;whiteSpace=wrap;html=1;" vertex="1" parent="JJkMY_QVzMOAWTLExX79-613">
          <mxGeometry x="195.55555555555557" width="24.444444444444446" height="10" as="geometry" />
        </mxCell>
        <mxCell id="JJkMY_QVzMOAWTLExX79-625" value="" style="rounded=0;whiteSpace=wrap;html=1;" vertex="1" parent="JJkMY_QVzMOAWTLExX79-613">
          <mxGeometry x="195.55555555555557" y="10" width="24.444444444444446" height="10" as="geometry" />
        </mxCell>
        <mxCell id="JJkMY_QVzMOAWTLExX79-626" value="" style="rounded=0;whiteSpace=wrap;html=1;" vertex="1" parent="JJkMY_QVzMOAWTLExX79-613">
          <mxGeometry x="146.66666666666669" width="24.444444444444446" height="10" as="geometry" />
        </mxCell>
        <mxCell id="JJkMY_QVzMOAWTLExX79-627" value="" style="rounded=0;whiteSpace=wrap;html=1;" vertex="1" parent="JJkMY_QVzMOAWTLExX79-613">
          <mxGeometry x="171.11111111111111" width="24.444444444444446" height="10" as="geometry" />
        </mxCell>
        <mxCell id="JJkMY_QVzMOAWTLExX79-628" value="" style="rounded=0;whiteSpace=wrap;html=1;" vertex="1" parent="JJkMY_QVzMOAWTLExX79-613">
          <mxGeometry x="146.66666666666669" y="10" width="24.444444444444446" height="10" as="geometry" />
        </mxCell>
        <mxCell id="JJkMY_QVzMOAWTLExX79-629" value="" style="rounded=0;whiteSpace=wrap;html=1;" vertex="1" parent="JJkMY_QVzMOAWTLExX79-613">
          <mxGeometry x="171.11111111111111" y="10" width="24.444444444444446" height="10" as="geometry" />
        </mxCell>
        <mxCell id="JJkMY_QVzMOAWTLExX79-630" value="" style="rounded=0;whiteSpace=wrap;html=1;" vertex="1" parent="JJkMY_QVzMOAWTLExX79-613">
          <mxGeometry x="122.22222222222223" width="24.444444444444446" height="10" as="geometry" />
        </mxCell>
        <mxCell id="JJkMY_QVzMOAWTLExX79-631" value="" style="rounded=0;whiteSpace=wrap;html=1;" vertex="1" parent="JJkMY_QVzMOAWTLExX79-613">
          <mxGeometry x="122.22222222222223" y="10" width="24.444444444444446" height="10" as="geometry" />
        </mxCell>
        <mxCell id="JJkMY_QVzMOAWTLExX79-632" value="" style="group" vertex="1" connectable="0" parent="1">
          <mxGeometry x="590" y="370" width="220" height="20" as="geometry" />
        </mxCell>
        <mxCell id="JJkMY_QVzMOAWTLExX79-633" value="" style="rounded=0;whiteSpace=wrap;html=1;" vertex="1" parent="JJkMY_QVzMOAWTLExX79-632">
          <mxGeometry x="73.33333333333334" width="24.444444444444446" height="10" as="geometry" />
        </mxCell>
        <mxCell id="JJkMY_QVzMOAWTLExX79-634" value="" style="rounded=0;whiteSpace=wrap;html=1;" vertex="1" parent="JJkMY_QVzMOAWTLExX79-632">
          <mxGeometry x="97.77777777777779" width="24.444444444444446" height="10" as="geometry" />
        </mxCell>
        <mxCell id="JJkMY_QVzMOAWTLExX79-635" value="" style="rounded=0;whiteSpace=wrap;html=1;" vertex="1" parent="JJkMY_QVzMOAWTLExX79-632">
          <mxGeometry x="73.33333333333334" y="10" width="24.444444444444446" height="10" as="geometry" />
        </mxCell>
        <mxCell id="JJkMY_QVzMOAWTLExX79-636" value="" style="rounded=0;whiteSpace=wrap;html=1;" vertex="1" parent="JJkMY_QVzMOAWTLExX79-632">
          <mxGeometry x="97.77777777777779" y="10" width="24.444444444444446" height="10" as="geometry" />
        </mxCell>
        <mxCell id="JJkMY_QVzMOAWTLExX79-637" value="" style="rounded=0;whiteSpace=wrap;html=1;" vertex="1" parent="JJkMY_QVzMOAWTLExX79-632">
          <mxGeometry x="24.444444444444446" width="24.444444444444446" height="10" as="geometry" />
        </mxCell>
        <mxCell id="JJkMY_QVzMOAWTLExX79-638" value="" style="rounded=0;whiteSpace=wrap;html=1;" vertex="1" parent="JJkMY_QVzMOAWTLExX79-632">
          <mxGeometry x="48.88888888888889" width="24.444444444444446" height="10" as="geometry" />
        </mxCell>
        <mxCell id="JJkMY_QVzMOAWTLExX79-639" value="" style="rounded=0;whiteSpace=wrap;html=1;" vertex="1" parent="JJkMY_QVzMOAWTLExX79-632">
          <mxGeometry x="24.444444444444446" y="10" width="24.444444444444446" height="10" as="geometry" />
        </mxCell>
        <mxCell id="JJkMY_QVzMOAWTLExX79-640" value="" style="rounded=0;whiteSpace=wrap;html=1;" vertex="1" parent="JJkMY_QVzMOAWTLExX79-632">
          <mxGeometry x="48.88888888888889" y="10" width="24.444444444444446" height="10" as="geometry" />
        </mxCell>
        <mxCell id="JJkMY_QVzMOAWTLExX79-641" value="" style="rounded=0;whiteSpace=wrap;html=1;" vertex="1" parent="JJkMY_QVzMOAWTLExX79-632">
          <mxGeometry width="24.444444444444446" height="10" as="geometry" />
        </mxCell>
        <mxCell id="JJkMY_QVzMOAWTLExX79-642" value="" style="rounded=0;whiteSpace=wrap;html=1;" vertex="1" parent="JJkMY_QVzMOAWTLExX79-632">
          <mxGeometry y="10" width="24.444444444444446" height="10" as="geometry" />
        </mxCell>
        <mxCell id="JJkMY_QVzMOAWTLExX79-643" value="" style="rounded=0;whiteSpace=wrap;html=1;" vertex="1" parent="JJkMY_QVzMOAWTLExX79-632">
          <mxGeometry x="195.55555555555557" width="24.444444444444446" height="10" as="geometry" />
        </mxCell>
        <mxCell id="JJkMY_QVzMOAWTLExX79-644" value="" style="rounded=0;whiteSpace=wrap;html=1;" vertex="1" parent="JJkMY_QVzMOAWTLExX79-632">
          <mxGeometry x="195.55555555555557" y="10" width="24.444444444444446" height="10" as="geometry" />
        </mxCell>
        <mxCell id="JJkMY_QVzMOAWTLExX79-645" value="" style="rounded=0;whiteSpace=wrap;html=1;" vertex="1" parent="JJkMY_QVzMOAWTLExX79-632">
          <mxGeometry x="146.66666666666669" width="24.444444444444446" height="10" as="geometry" />
        </mxCell>
        <mxCell id="JJkMY_QVzMOAWTLExX79-646" value="" style="rounded=0;whiteSpace=wrap;html=1;" vertex="1" parent="JJkMY_QVzMOAWTLExX79-632">
          <mxGeometry x="171.11111111111111" width="24.444444444444446" height="10" as="geometry" />
        </mxCell>
        <mxCell id="JJkMY_QVzMOAWTLExX79-647" value="" style="rounded=0;whiteSpace=wrap;html=1;" vertex="1" parent="JJkMY_QVzMOAWTLExX79-632">
          <mxGeometry x="146.66666666666669" y="10" width="24.444444444444446" height="10" as="geometry" />
        </mxCell>
        <mxCell id="JJkMY_QVzMOAWTLExX79-648" value="" style="rounded=0;whiteSpace=wrap;html=1;" vertex="1" parent="JJkMY_QVzMOAWTLExX79-632">
          <mxGeometry x="171.11111111111111" y="10" width="24.444444444444446" height="10" as="geometry" />
        </mxCell>
        <mxCell id="JJkMY_QVzMOAWTLExX79-649" value="" style="rounded=0;whiteSpace=wrap;html=1;" vertex="1" parent="JJkMY_QVzMOAWTLExX79-632">
          <mxGeometry x="122.22222222222223" width="24.444444444444446" height="10" as="geometry" />
        </mxCell>
        <mxCell id="JJkMY_QVzMOAWTLExX79-650" value="" style="rounded=0;whiteSpace=wrap;html=1;" vertex="1" parent="JJkMY_QVzMOAWTLExX79-632">
          <mxGeometry x="122.22222222222223" y="10" width="24.444444444444446" height="10" as="geometry" />
        </mxCell>
        <mxCell id="JJkMY_QVzMOAWTLExX79-651" value="" style="group" vertex="1" connectable="0" parent="1">
          <mxGeometry x="130" y="310" width="220" height="20" as="geometry" />
        </mxCell>
        <mxCell id="JJkMY_QVzMOAWTLExX79-652" value="" style="rounded=0;whiteSpace=wrap;html=1;" vertex="1" parent="JJkMY_QVzMOAWTLExX79-651">
          <mxGeometry x="73.33333333333334" width="24.444444444444446" height="10" as="geometry" />
        </mxCell>
        <mxCell id="JJkMY_QVzMOAWTLExX79-653" value="" style="rounded=0;whiteSpace=wrap;html=1;" vertex="1" parent="JJkMY_QVzMOAWTLExX79-651">
          <mxGeometry x="97.77777777777779" width="24.444444444444446" height="10" as="geometry" />
        </mxCell>
        <mxCell id="JJkMY_QVzMOAWTLExX79-654" value="" style="rounded=0;whiteSpace=wrap;html=1;" vertex="1" parent="JJkMY_QVzMOAWTLExX79-651">
          <mxGeometry x="73.33333333333334" y="10" width="24.444444444444446" height="10" as="geometry" />
        </mxCell>
        <mxCell id="JJkMY_QVzMOAWTLExX79-655" value="" style="rounded=0;whiteSpace=wrap;html=1;" vertex="1" parent="JJkMY_QVzMOAWTLExX79-651">
          <mxGeometry x="97.77777777777779" y="10" width="24.444444444444446" height="10" as="geometry" />
        </mxCell>
        <mxCell id="JJkMY_QVzMOAWTLExX79-656" value="" style="rounded=0;whiteSpace=wrap;html=1;" vertex="1" parent="JJkMY_QVzMOAWTLExX79-651">
          <mxGeometry x="24.444444444444446" width="24.444444444444446" height="10" as="geometry" />
        </mxCell>
        <mxCell id="JJkMY_QVzMOAWTLExX79-657" value="" style="rounded=0;whiteSpace=wrap;html=1;" vertex="1" parent="JJkMY_QVzMOAWTLExX79-651">
          <mxGeometry x="48.88888888888889" width="24.444444444444446" height="10" as="geometry" />
        </mxCell>
        <mxCell id="JJkMY_QVzMOAWTLExX79-658" value="" style="rounded=0;whiteSpace=wrap;html=1;" vertex="1" parent="JJkMY_QVzMOAWTLExX79-651">
          <mxGeometry x="24.444444444444446" y="10" width="24.444444444444446" height="10" as="geometry" />
        </mxCell>
        <mxCell id="JJkMY_QVzMOAWTLExX79-659" value="" style="rounded=0;whiteSpace=wrap;html=1;" vertex="1" parent="JJkMY_QVzMOAWTLExX79-651">
          <mxGeometry x="48.88888888888889" y="10" width="24.444444444444446" height="10" as="geometry" />
        </mxCell>
        <mxCell id="JJkMY_QVzMOAWTLExX79-660" value="" style="rounded=0;whiteSpace=wrap;html=1;" vertex="1" parent="JJkMY_QVzMOAWTLExX79-651">
          <mxGeometry width="24.444444444444446" height="10" as="geometry" />
        </mxCell>
        <mxCell id="JJkMY_QVzMOAWTLExX79-661" value="" style="rounded=0;whiteSpace=wrap;html=1;" vertex="1" parent="JJkMY_QVzMOAWTLExX79-651">
          <mxGeometry y="10" width="24.444444444444446" height="10" as="geometry" />
        </mxCell>
        <mxCell id="JJkMY_QVzMOAWTLExX79-662" value="" style="rounded=0;whiteSpace=wrap;html=1;" vertex="1" parent="JJkMY_QVzMOAWTLExX79-651">
          <mxGeometry x="195.55555555555557" width="24.444444444444446" height="10" as="geometry" />
        </mxCell>
        <mxCell id="JJkMY_QVzMOAWTLExX79-663" value="" style="rounded=0;whiteSpace=wrap;html=1;" vertex="1" parent="JJkMY_QVzMOAWTLExX79-651">
          <mxGeometry x="195.55555555555557" y="10" width="24.444444444444446" height="10" as="geometry" />
        </mxCell>
        <mxCell id="JJkMY_QVzMOAWTLExX79-664" value="" style="rounded=0;whiteSpace=wrap;html=1;" vertex="1" parent="JJkMY_QVzMOAWTLExX79-651">
          <mxGeometry x="146.66666666666669" width="24.444444444444446" height="10" as="geometry" />
        </mxCell>
        <mxCell id="JJkMY_QVzMOAWTLExX79-665" value="" style="rounded=0;whiteSpace=wrap;html=1;" vertex="1" parent="JJkMY_QVzMOAWTLExX79-651">
          <mxGeometry x="171.11111111111111" width="24.444444444444446" height="10" as="geometry" />
        </mxCell>
        <mxCell id="JJkMY_QVzMOAWTLExX79-666" value="" style="rounded=0;whiteSpace=wrap;html=1;" vertex="1" parent="JJkMY_QVzMOAWTLExX79-651">
          <mxGeometry x="146.66666666666669" y="10" width="24.444444444444446" height="10" as="geometry" />
        </mxCell>
        <mxCell id="JJkMY_QVzMOAWTLExX79-667" value="" style="rounded=0;whiteSpace=wrap;html=1;" vertex="1" parent="JJkMY_QVzMOAWTLExX79-651">
          <mxGeometry x="171.11111111111111" y="10" width="24.444444444444446" height="10" as="geometry" />
        </mxCell>
        <mxCell id="JJkMY_QVzMOAWTLExX79-668" value="" style="rounded=0;whiteSpace=wrap;html=1;" vertex="1" parent="JJkMY_QVzMOAWTLExX79-651">
          <mxGeometry x="122.22222222222223" width="24.444444444444446" height="10" as="geometry" />
        </mxCell>
        <mxCell id="JJkMY_QVzMOAWTLExX79-669" value="" style="rounded=0;whiteSpace=wrap;html=1;" vertex="1" parent="JJkMY_QVzMOAWTLExX79-651">
          <mxGeometry x="122.22222222222223" y="10" width="24.444444444444446" height="10" as="geometry" />
        </mxCell>
        <mxCell id="JJkMY_QVzMOAWTLExX79-670" value="" style="group" vertex="1" connectable="0" parent="1">
          <mxGeometry x="360" y="310" width="220" height="20" as="geometry" />
        </mxCell>
        <mxCell id="JJkMY_QVzMOAWTLExX79-671" value="" style="rounded=0;whiteSpace=wrap;html=1;" vertex="1" parent="JJkMY_QVzMOAWTLExX79-670">
          <mxGeometry x="73.33333333333334" width="24.444444444444446" height="10" as="geometry" />
        </mxCell>
        <mxCell id="JJkMY_QVzMOAWTLExX79-672" value="" style="rounded=0;whiteSpace=wrap;html=1;" vertex="1" parent="JJkMY_QVzMOAWTLExX79-670">
          <mxGeometry x="97.77777777777779" width="24.444444444444446" height="10" as="geometry" />
        </mxCell>
        <mxCell id="JJkMY_QVzMOAWTLExX79-673" value="" style="rounded=0;whiteSpace=wrap;html=1;" vertex="1" parent="JJkMY_QVzMOAWTLExX79-670">
          <mxGeometry x="73.33333333333334" y="10" width="24.444444444444446" height="10" as="geometry" />
        </mxCell>
        <mxCell id="JJkMY_QVzMOAWTLExX79-674" value="" style="rounded=0;whiteSpace=wrap;html=1;" vertex="1" parent="JJkMY_QVzMOAWTLExX79-670">
          <mxGeometry x="97.77777777777779" y="10" width="24.444444444444446" height="10" as="geometry" />
        </mxCell>
        <mxCell id="JJkMY_QVzMOAWTLExX79-675" value="" style="rounded=0;whiteSpace=wrap;html=1;" vertex="1" parent="JJkMY_QVzMOAWTLExX79-670">
          <mxGeometry x="24.444444444444446" width="24.444444444444446" height="10" as="geometry" />
        </mxCell>
        <mxCell id="JJkMY_QVzMOAWTLExX79-676" value="" style="rounded=0;whiteSpace=wrap;html=1;" vertex="1" parent="JJkMY_QVzMOAWTLExX79-670">
          <mxGeometry x="48.88888888888889" width="24.444444444444446" height="10" as="geometry" />
        </mxCell>
        <mxCell id="JJkMY_QVzMOAWTLExX79-677" value="" style="rounded=0;whiteSpace=wrap;html=1;" vertex="1" parent="JJkMY_QVzMOAWTLExX79-670">
          <mxGeometry x="24.444444444444446" y="10" width="24.444444444444446" height="10" as="geometry" />
        </mxCell>
        <mxCell id="JJkMY_QVzMOAWTLExX79-678" value="" style="rounded=0;whiteSpace=wrap;html=1;" vertex="1" parent="JJkMY_QVzMOAWTLExX79-670">
          <mxGeometry x="48.88888888888889" y="10" width="24.444444444444446" height="10" as="geometry" />
        </mxCell>
        <mxCell id="JJkMY_QVzMOAWTLExX79-679" value="" style="rounded=0;whiteSpace=wrap;html=1;" vertex="1" parent="JJkMY_QVzMOAWTLExX79-670">
          <mxGeometry width="24.444444444444446" height="10" as="geometry" />
        </mxCell>
        <mxCell id="JJkMY_QVzMOAWTLExX79-680" value="" style="rounded=0;whiteSpace=wrap;html=1;" vertex="1" parent="JJkMY_QVzMOAWTLExX79-670">
          <mxGeometry y="10" width="24.444444444444446" height="10" as="geometry" />
        </mxCell>
        <mxCell id="JJkMY_QVzMOAWTLExX79-681" value="" style="rounded=0;whiteSpace=wrap;html=1;" vertex="1" parent="JJkMY_QVzMOAWTLExX79-670">
          <mxGeometry x="195.55555555555557" width="24.444444444444446" height="10" as="geometry" />
        </mxCell>
        <mxCell id="JJkMY_QVzMOAWTLExX79-682" value="" style="rounded=0;whiteSpace=wrap;html=1;" vertex="1" parent="JJkMY_QVzMOAWTLExX79-670">
          <mxGeometry x="195.55555555555557" y="10" width="24.444444444444446" height="10" as="geometry" />
        </mxCell>
        <mxCell id="JJkMY_QVzMOAWTLExX79-683" value="" style="rounded=0;whiteSpace=wrap;html=1;" vertex="1" parent="JJkMY_QVzMOAWTLExX79-670">
          <mxGeometry x="146.66666666666669" width="24.444444444444446" height="10" as="geometry" />
        </mxCell>
        <mxCell id="JJkMY_QVzMOAWTLExX79-684" value="" style="rounded=0;whiteSpace=wrap;html=1;" vertex="1" parent="JJkMY_QVzMOAWTLExX79-670">
          <mxGeometry x="171.11111111111111" width="24.444444444444446" height="10" as="geometry" />
        </mxCell>
        <mxCell id="JJkMY_QVzMOAWTLExX79-685" value="" style="rounded=0;whiteSpace=wrap;html=1;" vertex="1" parent="JJkMY_QVzMOAWTLExX79-670">
          <mxGeometry x="146.66666666666669" y="10" width="24.444444444444446" height="10" as="geometry" />
        </mxCell>
        <mxCell id="JJkMY_QVzMOAWTLExX79-686" value="" style="rounded=0;whiteSpace=wrap;html=1;" vertex="1" parent="JJkMY_QVzMOAWTLExX79-670">
          <mxGeometry x="171.11111111111111" y="10" width="24.444444444444446" height="10" as="geometry" />
        </mxCell>
        <mxCell id="JJkMY_QVzMOAWTLExX79-687" value="" style="rounded=0;whiteSpace=wrap;html=1;" vertex="1" parent="JJkMY_QVzMOAWTLExX79-670">
          <mxGeometry x="122.22222222222223" width="24.444444444444446" height="10" as="geometry" />
        </mxCell>
        <mxCell id="JJkMY_QVzMOAWTLExX79-688" value="" style="rounded=0;whiteSpace=wrap;html=1;" vertex="1" parent="JJkMY_QVzMOAWTLExX79-670">
          <mxGeometry x="122.22222222222223" y="10" width="24.444444444444446" height="10" as="geometry" />
        </mxCell>
        <mxCell id="JJkMY_QVzMOAWTLExX79-689" value="" style="group" vertex="1" connectable="0" parent="1">
          <mxGeometry x="590" y="310" width="220" height="20" as="geometry" />
        </mxCell>
        <mxCell id="JJkMY_QVzMOAWTLExX79-690" value="" style="rounded=0;whiteSpace=wrap;html=1;" vertex="1" parent="JJkMY_QVzMOAWTLExX79-689">
          <mxGeometry x="73.33333333333334" width="24.444444444444446" height="10" as="geometry" />
        </mxCell>
        <mxCell id="JJkMY_QVzMOAWTLExX79-691" value="" style="rounded=0;whiteSpace=wrap;html=1;" vertex="1" parent="JJkMY_QVzMOAWTLExX79-689">
          <mxGeometry x="97.77777777777779" width="24.444444444444446" height="10" as="geometry" />
        </mxCell>
        <mxCell id="JJkMY_QVzMOAWTLExX79-692" value="" style="rounded=0;whiteSpace=wrap;html=1;" vertex="1" parent="JJkMY_QVzMOAWTLExX79-689">
          <mxGeometry x="73.33333333333334" y="10" width="24.444444444444446" height="10" as="geometry" />
        </mxCell>
        <mxCell id="JJkMY_QVzMOAWTLExX79-693" value="" style="rounded=0;whiteSpace=wrap;html=1;" vertex="1" parent="JJkMY_QVzMOAWTLExX79-689">
          <mxGeometry x="97.77777777777779" y="10" width="24.444444444444446" height="10" as="geometry" />
        </mxCell>
        <mxCell id="JJkMY_QVzMOAWTLExX79-694" value="" style="rounded=0;whiteSpace=wrap;html=1;" vertex="1" parent="JJkMY_QVzMOAWTLExX79-689">
          <mxGeometry x="24.444444444444446" width="24.444444444444446" height="10" as="geometry" />
        </mxCell>
        <mxCell id="JJkMY_QVzMOAWTLExX79-695" value="" style="rounded=0;whiteSpace=wrap;html=1;" vertex="1" parent="JJkMY_QVzMOAWTLExX79-689">
          <mxGeometry x="48.88888888888889" width="24.444444444444446" height="10" as="geometry" />
        </mxCell>
        <mxCell id="JJkMY_QVzMOAWTLExX79-696" value="" style="rounded=0;whiteSpace=wrap;html=1;" vertex="1" parent="JJkMY_QVzMOAWTLExX79-689">
          <mxGeometry x="24.444444444444446" y="10" width="24.444444444444446" height="10" as="geometry" />
        </mxCell>
        <mxCell id="JJkMY_QVzMOAWTLExX79-697" value="" style="rounded=0;whiteSpace=wrap;html=1;" vertex="1" parent="JJkMY_QVzMOAWTLExX79-689">
          <mxGeometry x="48.88888888888889" y="10" width="24.444444444444446" height="10" as="geometry" />
        </mxCell>
        <mxCell id="JJkMY_QVzMOAWTLExX79-698" value="" style="rounded=0;whiteSpace=wrap;html=1;" vertex="1" parent="JJkMY_QVzMOAWTLExX79-689">
          <mxGeometry width="24.444444444444446" height="10" as="geometry" />
        </mxCell>
        <mxCell id="JJkMY_QVzMOAWTLExX79-699" value="" style="rounded=0;whiteSpace=wrap;html=1;" vertex="1" parent="JJkMY_QVzMOAWTLExX79-689">
          <mxGeometry y="10" width="24.444444444444446" height="10" as="geometry" />
        </mxCell>
        <mxCell id="JJkMY_QVzMOAWTLExX79-700" value="" style="rounded=0;whiteSpace=wrap;html=1;" vertex="1" parent="JJkMY_QVzMOAWTLExX79-689">
          <mxGeometry x="195.55555555555557" width="24.444444444444446" height="10" as="geometry" />
        </mxCell>
        <mxCell id="JJkMY_QVzMOAWTLExX79-701" value="" style="rounded=0;whiteSpace=wrap;html=1;" vertex="1" parent="JJkMY_QVzMOAWTLExX79-689">
          <mxGeometry x="195.55555555555557" y="10" width="24.444444444444446" height="10" as="geometry" />
        </mxCell>
        <mxCell id="JJkMY_QVzMOAWTLExX79-702" value="" style="rounded=0;whiteSpace=wrap;html=1;" vertex="1" parent="JJkMY_QVzMOAWTLExX79-689">
          <mxGeometry x="146.66666666666669" width="24.444444444444446" height="10" as="geometry" />
        </mxCell>
        <mxCell id="JJkMY_QVzMOAWTLExX79-703" value="" style="rounded=0;whiteSpace=wrap;html=1;" vertex="1" parent="JJkMY_QVzMOAWTLExX79-689">
          <mxGeometry x="171.11111111111111" width="24.444444444444446" height="10" as="geometry" />
        </mxCell>
        <mxCell id="JJkMY_QVzMOAWTLExX79-704" value="" style="rounded=0;whiteSpace=wrap;html=1;" vertex="1" parent="JJkMY_QVzMOAWTLExX79-689">
          <mxGeometry x="146.66666666666669" y="10" width="24.444444444444446" height="10" as="geometry" />
        </mxCell>
        <mxCell id="JJkMY_QVzMOAWTLExX79-705" value="" style="rounded=0;whiteSpace=wrap;html=1;" vertex="1" parent="JJkMY_QVzMOAWTLExX79-689">
          <mxGeometry x="171.11111111111111" y="10" width="24.444444444444446" height="10" as="geometry" />
        </mxCell>
        <mxCell id="JJkMY_QVzMOAWTLExX79-706" value="" style="rounded=0;whiteSpace=wrap;html=1;" vertex="1" parent="JJkMY_QVzMOAWTLExX79-689">
          <mxGeometry x="122.22222222222223" width="24.444444444444446" height="10" as="geometry" />
        </mxCell>
        <mxCell id="JJkMY_QVzMOAWTLExX79-707" value="" style="rounded=0;whiteSpace=wrap;html=1;" vertex="1" parent="JJkMY_QVzMOAWTLExX79-689">
          <mxGeometry x="122.22222222222223" y="10" width="24.444444444444446" height="10" as="geometry" />
        </mxCell>
        <mxCell id="JJkMY_QVzMOAWTLExX79-744" value="" style="group" vertex="1" connectable="0" parent="1">
          <mxGeometry x="480" y="52" width="430" height="50" as="geometry" />
        </mxCell>
        <mxCell id="JJkMY_QVzMOAWTLExX79-713" value="" style="group" vertex="1" connectable="0" parent="JJkMY_QVzMOAWTLExX79-744">
          <mxGeometry x="172.0023454332233" width="257.9976545667767" height="50" as="geometry" />
        </mxCell>
        <mxCell id="JJkMY_QVzMOAWTLExX79-714" value="" style="rounded=0;whiteSpace=wrap;html=1;" vertex="1" parent="JJkMY_QVzMOAWTLExX79-713">
          <mxGeometry x="85.99921818892558" width="28.66640606297519" height="25" as="geometry" />
        </mxCell>
        <mxCell id="JJkMY_QVzMOAWTLExX79-715" value="" style="rounded=0;whiteSpace=wrap;html=1;" vertex="1" parent="JJkMY_QVzMOAWTLExX79-713">
          <mxGeometry x="114.66562425190077" width="28.66640606297519" height="25" as="geometry" />
        </mxCell>
        <mxCell id="JJkMY_QVzMOAWTLExX79-716" value="" style="rounded=0;whiteSpace=wrap;html=1;" vertex="1" parent="JJkMY_QVzMOAWTLExX79-713">
          <mxGeometry x="85.99921818892558" y="25" width="28.66640606297519" height="25" as="geometry" />
        </mxCell>
        <mxCell id="JJkMY_QVzMOAWTLExX79-717" value="" style="rounded=0;whiteSpace=wrap;html=1;" vertex="1" parent="JJkMY_QVzMOAWTLExX79-713">
          <mxGeometry x="114.66562425190077" y="25" width="28.66640606297519" height="25" as="geometry" />
        </mxCell>
        <mxCell id="JJkMY_QVzMOAWTLExX79-718" value="" style="rounded=0;whiteSpace=wrap;html=1;" vertex="1" parent="JJkMY_QVzMOAWTLExX79-713">
          <mxGeometry x="28.66640606297519" width="28.66640606297519" height="25" as="geometry" />
        </mxCell>
        <mxCell id="JJkMY_QVzMOAWTLExX79-719" value="" style="rounded=0;whiteSpace=wrap;html=1;" vertex="1" parent="JJkMY_QVzMOAWTLExX79-713">
          <mxGeometry x="57.33281212595038" width="28.66640606297519" height="25" as="geometry" />
        </mxCell>
        <mxCell id="JJkMY_QVzMOAWTLExX79-720" value="" style="rounded=0;whiteSpace=wrap;html=1;" vertex="1" parent="JJkMY_QVzMOAWTLExX79-713">
          <mxGeometry x="28.66640606297519" y="25" width="28.66640606297519" height="25" as="geometry" />
        </mxCell>
        <mxCell id="JJkMY_QVzMOAWTLExX79-721" value="" style="rounded=0;whiteSpace=wrap;html=1;" vertex="1" parent="JJkMY_QVzMOAWTLExX79-713">
          <mxGeometry x="57.33281212595038" y="25" width="28.66640606297519" height="25" as="geometry" />
        </mxCell>
        <mxCell id="JJkMY_QVzMOAWTLExX79-722" value="" style="rounded=0;whiteSpace=wrap;html=1;" vertex="1" parent="JJkMY_QVzMOAWTLExX79-713">
          <mxGeometry width="28.66640606297519" height="25" as="geometry" />
        </mxCell>
        <mxCell id="JJkMY_QVzMOAWTLExX79-723" value="" style="rounded=0;whiteSpace=wrap;html=1;" vertex="1" parent="JJkMY_QVzMOAWTLExX79-713">
          <mxGeometry y="25" width="28.66640606297519" height="25" as="geometry" />
        </mxCell>
        <mxCell id="JJkMY_QVzMOAWTLExX79-724" value="" style="rounded=0;whiteSpace=wrap;html=1;" vertex="1" parent="JJkMY_QVzMOAWTLExX79-713">
          <mxGeometry x="229.33124850380153" width="28.66640606297519" height="25" as="geometry" />
        </mxCell>
        <mxCell id="JJkMY_QVzMOAWTLExX79-725" value="" style="rounded=0;whiteSpace=wrap;html=1;" vertex="1" parent="JJkMY_QVzMOAWTLExX79-713">
          <mxGeometry x="229.33124850380153" y="25" width="28.66640606297519" height="25" as="geometry" />
        </mxCell>
        <mxCell id="JJkMY_QVzMOAWTLExX79-726" value="" style="rounded=0;whiteSpace=wrap;html=1;" vertex="1" parent="JJkMY_QVzMOAWTLExX79-713">
          <mxGeometry x="171.99843637785116" width="28.66640606297519" height="25" as="geometry" />
        </mxCell>
        <mxCell id="JJkMY_QVzMOAWTLExX79-727" value="" style="rounded=0;whiteSpace=wrap;html=1;" vertex="1" parent="JJkMY_QVzMOAWTLExX79-713">
          <mxGeometry x="200.66484244082633" width="28.66640606297519" height="25" as="geometry" />
        </mxCell>
        <mxCell id="JJkMY_QVzMOAWTLExX79-728" value="" style="rounded=0;whiteSpace=wrap;html=1;" vertex="1" parent="JJkMY_QVzMOAWTLExX79-713">
          <mxGeometry x="171.99843637785116" y="25" width="28.66640606297519" height="25" as="geometry" />
        </mxCell>
        <mxCell id="JJkMY_QVzMOAWTLExX79-729" value="" style="rounded=0;whiteSpace=wrap;html=1;" vertex="1" parent="JJkMY_QVzMOAWTLExX79-713">
          <mxGeometry x="200.66484244082633" y="25" width="28.66640606297519" height="25" as="geometry" />
        </mxCell>
        <mxCell id="JJkMY_QVzMOAWTLExX79-730" value="" style="rounded=0;whiteSpace=wrap;html=1;" vertex="1" parent="JJkMY_QVzMOAWTLExX79-713">
          <mxGeometry x="143.33203031487594" width="28.66640606297519" height="25" as="geometry" />
        </mxCell>
        <mxCell id="JJkMY_QVzMOAWTLExX79-731" value="" style="rounded=0;whiteSpace=wrap;html=1;" vertex="1" parent="JJkMY_QVzMOAWTLExX79-713">
          <mxGeometry x="143.33203031487594" y="25" width="28.66640606297519" height="25" as="geometry" />
        </mxCell>
        <mxCell id="JJkMY_QVzMOAWTLExX79-732" value="" style="rounded=0;whiteSpace=wrap;html=1;" vertex="1" parent="JJkMY_QVzMOAWTLExX79-744">
          <mxGeometry x="85.99921818892561" width="28.66640606297519" height="25" as="geometry" />
        </mxCell>
        <mxCell id="JJkMY_QVzMOAWTLExX79-733" value="" style="rounded=0;whiteSpace=wrap;html=1;" vertex="1" parent="JJkMY_QVzMOAWTLExX79-744">
          <mxGeometry x="114.66562425190081" width="28.66640606297519" height="25" as="geometry" />
        </mxCell>
        <mxCell id="JJkMY_QVzMOAWTLExX79-734" value="" style="rounded=0;whiteSpace=wrap;html=1;" vertex="1" parent="JJkMY_QVzMOAWTLExX79-744">
          <mxGeometry x="85.99921818892561" y="25" width="28.66640606297519" height="25" as="geometry" />
        </mxCell>
        <mxCell id="JJkMY_QVzMOAWTLExX79-735" value="" style="rounded=0;whiteSpace=wrap;html=1;" vertex="1" parent="JJkMY_QVzMOAWTLExX79-744">
          <mxGeometry x="114.66562425190081" y="25" width="28.66640606297519" height="25" as="geometry" />
        </mxCell>
        <mxCell id="JJkMY_QVzMOAWTLExX79-736" value="" style="rounded=0;whiteSpace=wrap;html=1;" vertex="1" parent="JJkMY_QVzMOAWTLExX79-744">
          <mxGeometry x="28.666406062975202" width="28.66640606297519" height="25" as="geometry" />
        </mxCell>
        <mxCell id="JJkMY_QVzMOAWTLExX79-737" value="" style="rounded=0;whiteSpace=wrap;html=1;" vertex="1" parent="JJkMY_QVzMOAWTLExX79-744">
          <mxGeometry x="57.332812125950404" width="28.66640606297519" height="25" as="geometry" />
        </mxCell>
        <mxCell id="JJkMY_QVzMOAWTLExX79-738" value="" style="rounded=0;whiteSpace=wrap;html=1;" vertex="1" parent="JJkMY_QVzMOAWTLExX79-744">
          <mxGeometry x="28.666406062975202" y="25" width="28.66640606297519" height="25" as="geometry" />
        </mxCell>
        <mxCell id="JJkMY_QVzMOAWTLExX79-739" value="" style="rounded=0;whiteSpace=wrap;html=1;" vertex="1" parent="JJkMY_QVzMOAWTLExX79-744">
          <mxGeometry x="57.332812125950404" y="25" width="28.66640606297519" height="25" as="geometry" />
        </mxCell>
        <mxCell id="JJkMY_QVzMOAWTLExX79-740" value="" style="rounded=0;whiteSpace=wrap;html=1;" vertex="1" parent="JJkMY_QVzMOAWTLExX79-744">
          <mxGeometry width="28.66640606297519" height="25" as="geometry" />
        </mxCell>
        <mxCell id="JJkMY_QVzMOAWTLExX79-741" value="" style="rounded=0;whiteSpace=wrap;html=1;" vertex="1" parent="JJkMY_QVzMOAWTLExX79-744">
          <mxGeometry y="25" width="28.66640606297519" height="25" as="geometry" />
        </mxCell>
        <mxCell id="JJkMY_QVzMOAWTLExX79-742" value="" style="rounded=0;whiteSpace=wrap;html=1;" vertex="1" parent="JJkMY_QVzMOAWTLExX79-744">
          <mxGeometry x="143.33203031487588" width="28.66640606297519" height="25" as="geometry" />
        </mxCell>
        <mxCell id="JJkMY_QVzMOAWTLExX79-743" value="" style="rounded=0;whiteSpace=wrap;html=1;" vertex="1" parent="JJkMY_QVzMOAWTLExX79-744">
          <mxGeometry x="143.33203031487588" y="25" width="28.66640606297519" height="25" as="geometry" />
        </mxCell>
        <mxCell id="JJkMY_QVzMOAWTLExX79-797" value="" style="group" vertex="1" connectable="0" parent="1">
          <mxGeometry x="853" y="105" width="57" height="235" as="geometry" />
        </mxCell>
        <mxCell id="JJkMY_QVzMOAWTLExX79-783" value="" style="rounded=0;whiteSpace=wrap;html=1;" vertex="1" parent="JJkMY_QVzMOAWTLExX79-797">
          <mxGeometry width="28.5" height="33.57142857142856" as="geometry" />
        </mxCell>
        <mxCell id="JJkMY_QVzMOAWTLExX79-784" value="" style="rounded=0;whiteSpace=wrap;html=1;" vertex="1" parent="JJkMY_QVzMOAWTLExX79-797">
          <mxGeometry x="28.5" width="28.5" height="33.57142857142856" as="geometry" />
        </mxCell>
        <mxCell id="JJkMY_QVzMOAWTLExX79-785" value="" style="rounded=0;whiteSpace=wrap;html=1;" vertex="1" parent="JJkMY_QVzMOAWTLExX79-797">
          <mxGeometry y="33.57142857142856" width="28.5" height="33.57142857142856" as="geometry" />
        </mxCell>
        <mxCell id="JJkMY_QVzMOAWTLExX79-786" value="" style="rounded=0;whiteSpace=wrap;html=1;" vertex="1" parent="JJkMY_QVzMOAWTLExX79-797">
          <mxGeometry x="28.5" y="33.57142857142856" width="28.5" height="33.57142857142856" as="geometry" />
        </mxCell>
        <mxCell id="JJkMY_QVzMOAWTLExX79-787" value="" style="rounded=0;whiteSpace=wrap;html=1;" vertex="1" parent="JJkMY_QVzMOAWTLExX79-797">
          <mxGeometry y="67.14285714285712" width="28.5" height="33.57142857142856" as="geometry" />
        </mxCell>
        <mxCell id="JJkMY_QVzMOAWTLExX79-788" value="" style="rounded=0;whiteSpace=wrap;html=1;" vertex="1" parent="JJkMY_QVzMOAWTLExX79-797">
          <mxGeometry x="28.5" y="67.14285714285712" width="28.5" height="33.57142857142856" as="geometry" />
        </mxCell>
        <mxCell id="JJkMY_QVzMOAWTLExX79-789" value="" style="rounded=0;whiteSpace=wrap;html=1;" vertex="1" parent="JJkMY_QVzMOAWTLExX79-797">
          <mxGeometry y="100.7142857142857" width="28.5" height="33.57142857142856" as="geometry" />
        </mxCell>
        <mxCell id="JJkMY_QVzMOAWTLExX79-790" value="" style="rounded=0;whiteSpace=wrap;html=1;" vertex="1" parent="JJkMY_QVzMOAWTLExX79-797">
          <mxGeometry x="28.5" y="100.7142857142857" width="28.5" height="33.57142857142856" as="geometry" />
        </mxCell>
        <mxCell id="JJkMY_QVzMOAWTLExX79-791" value="" style="rounded=0;whiteSpace=wrap;html=1;" vertex="1" parent="JJkMY_QVzMOAWTLExX79-797">
          <mxGeometry y="134.28571428571425" width="28.5" height="33.57142857142856" as="geometry" />
        </mxCell>
        <mxCell id="JJkMY_QVzMOAWTLExX79-792" value="" style="rounded=0;whiteSpace=wrap;html=1;" vertex="1" parent="JJkMY_QVzMOAWTLExX79-797">
          <mxGeometry x="28.5" y="134.28571428571425" width="28.5" height="33.57142857142856" as="geometry" />
        </mxCell>
        <mxCell id="JJkMY_QVzMOAWTLExX79-793" value="" style="rounded=0;whiteSpace=wrap;html=1;" vertex="1" parent="JJkMY_QVzMOAWTLExX79-797">
          <mxGeometry y="167.85714285714283" width="28.5" height="33.57142857142856" as="geometry" />
        </mxCell>
        <mxCell id="JJkMY_QVzMOAWTLExX79-794" value="" style="rounded=0;whiteSpace=wrap;html=1;" vertex="1" parent="JJkMY_QVzMOAWTLExX79-797">
          <mxGeometry x="28.5" y="167.85714285714283" width="28.5" height="33.57142857142856" as="geometry" />
        </mxCell>
        <mxCell id="JJkMY_QVzMOAWTLExX79-795" value="" style="rounded=0;whiteSpace=wrap;html=1;" vertex="1" parent="JJkMY_QVzMOAWTLExX79-797">
          <mxGeometry y="201.4285714285714" width="28.5" height="33.57142857142856" as="geometry" />
        </mxCell>
        <mxCell id="JJkMY_QVzMOAWTLExX79-796" value="" style="rounded=0;whiteSpace=wrap;html=1;" vertex="1" parent="JJkMY_QVzMOAWTLExX79-797">
          <mxGeometry x="28.5" y="201.4285714285714" width="28.5" height="33.57142857142856" as="geometry" />
        </mxCell>
        <mxCell id="JJkMY_QVzMOAWTLExX79-798" value="" style="group" vertex="1" connectable="0" parent="1">
          <mxGeometry x="30" y="50" width="430" height="50" as="geometry" />
        </mxCell>
        <mxCell id="JJkMY_QVzMOAWTLExX79-799" value="" style="group" vertex="1" connectable="0" parent="JJkMY_QVzMOAWTLExX79-798">
          <mxGeometry x="172.0023454332233" width="257.9976545667767" height="50" as="geometry" />
        </mxCell>
        <mxCell id="JJkMY_QVzMOAWTLExX79-800" value="" style="rounded=0;whiteSpace=wrap;html=1;" vertex="1" parent="JJkMY_QVzMOAWTLExX79-799">
          <mxGeometry x="85.99921818892558" width="28.66640606297519" height="25" as="geometry" />
        </mxCell>
        <mxCell id="JJkMY_QVzMOAWTLExX79-801" value="" style="rounded=0;whiteSpace=wrap;html=1;" vertex="1" parent="JJkMY_QVzMOAWTLExX79-799">
          <mxGeometry x="114.66562425190077" width="28.66640606297519" height="25" as="geometry" />
        </mxCell>
        <mxCell id="JJkMY_QVzMOAWTLExX79-802" value="" style="rounded=0;whiteSpace=wrap;html=1;" vertex="1" parent="JJkMY_QVzMOAWTLExX79-799">
          <mxGeometry x="85.99921818892558" y="25" width="28.66640606297519" height="25" as="geometry" />
        </mxCell>
        <mxCell id="JJkMY_QVzMOAWTLExX79-803" value="" style="rounded=0;whiteSpace=wrap;html=1;" vertex="1" parent="JJkMY_QVzMOAWTLExX79-799">
          <mxGeometry x="114.66562425190077" y="25" width="28.66640606297519" height="25" as="geometry" />
        </mxCell>
        <mxCell id="JJkMY_QVzMOAWTLExX79-804" value="" style="rounded=0;whiteSpace=wrap;html=1;" vertex="1" parent="JJkMY_QVzMOAWTLExX79-799">
          <mxGeometry x="28.66640606297519" width="28.66640606297519" height="25" as="geometry" />
        </mxCell>
        <mxCell id="JJkMY_QVzMOAWTLExX79-805" value="" style="rounded=0;whiteSpace=wrap;html=1;" vertex="1" parent="JJkMY_QVzMOAWTLExX79-799">
          <mxGeometry x="57.33281212595038" width="28.66640606297519" height="25" as="geometry" />
        </mxCell>
        <mxCell id="JJkMY_QVzMOAWTLExX79-806" value="" style="rounded=0;whiteSpace=wrap;html=1;" vertex="1" parent="JJkMY_QVzMOAWTLExX79-799">
          <mxGeometry x="28.66640606297519" y="25" width="28.66640606297519" height="25" as="geometry" />
        </mxCell>
        <mxCell id="JJkMY_QVzMOAWTLExX79-807" value="" style="rounded=0;whiteSpace=wrap;html=1;" vertex="1" parent="JJkMY_QVzMOAWTLExX79-799">
          <mxGeometry x="57.33281212595038" y="25" width="28.66640606297519" height="25" as="geometry" />
        </mxCell>
        <mxCell id="JJkMY_QVzMOAWTLExX79-808" value="" style="rounded=0;whiteSpace=wrap;html=1;" vertex="1" parent="JJkMY_QVzMOAWTLExX79-799">
          <mxGeometry width="28.66640606297519" height="25" as="geometry" />
        </mxCell>
        <mxCell id="JJkMY_QVzMOAWTLExX79-809" value="" style="rounded=0;whiteSpace=wrap;html=1;" vertex="1" parent="JJkMY_QVzMOAWTLExX79-799">
          <mxGeometry y="25" width="28.66640606297519" height="25" as="geometry" />
        </mxCell>
        <mxCell id="JJkMY_QVzMOAWTLExX79-810" value="" style="rounded=0;whiteSpace=wrap;html=1;" vertex="1" parent="JJkMY_QVzMOAWTLExX79-799">
          <mxGeometry x="229.33124850380153" width="28.66640606297519" height="25" as="geometry" />
        </mxCell>
        <mxCell id="JJkMY_QVzMOAWTLExX79-811" value="" style="rounded=0;whiteSpace=wrap;html=1;" vertex="1" parent="JJkMY_QVzMOAWTLExX79-799">
          <mxGeometry x="229.33124850380153" y="25" width="28.66640606297519" height="25" as="geometry" />
        </mxCell>
        <mxCell id="JJkMY_QVzMOAWTLExX79-812" value="" style="rounded=0;whiteSpace=wrap;html=1;" vertex="1" parent="JJkMY_QVzMOAWTLExX79-799">
          <mxGeometry x="171.99843637785116" width="28.66640606297519" height="25" as="geometry" />
        </mxCell>
        <mxCell id="JJkMY_QVzMOAWTLExX79-813" value="" style="rounded=0;whiteSpace=wrap;html=1;" vertex="1" parent="JJkMY_QVzMOAWTLExX79-799">
          <mxGeometry x="200.66484244082633" width="28.66640606297519" height="25" as="geometry" />
        </mxCell>
        <mxCell id="JJkMY_QVzMOAWTLExX79-814" value="" style="rounded=0;whiteSpace=wrap;html=1;" vertex="1" parent="JJkMY_QVzMOAWTLExX79-799">
          <mxGeometry x="171.99843637785116" y="25" width="28.66640606297519" height="25" as="geometry" />
        </mxCell>
        <mxCell id="JJkMY_QVzMOAWTLExX79-815" value="" style="rounded=0;whiteSpace=wrap;html=1;" vertex="1" parent="JJkMY_QVzMOAWTLExX79-799">
          <mxGeometry x="200.66484244082633" y="25" width="28.66640606297519" height="25" as="geometry" />
        </mxCell>
        <mxCell id="JJkMY_QVzMOAWTLExX79-816" value="" style="rounded=0;whiteSpace=wrap;html=1;" vertex="1" parent="JJkMY_QVzMOAWTLExX79-799">
          <mxGeometry x="143.33203031487594" width="28.66640606297519" height="25" as="geometry" />
        </mxCell>
        <mxCell id="JJkMY_QVzMOAWTLExX79-817" value="" style="rounded=0;whiteSpace=wrap;html=1;" vertex="1" parent="JJkMY_QVzMOAWTLExX79-799">
          <mxGeometry x="143.33203031487594" y="25" width="28.66640606297519" height="25" as="geometry" />
        </mxCell>
        <mxCell id="JJkMY_QVzMOAWTLExX79-818" value="" style="rounded=0;whiteSpace=wrap;html=1;" vertex="1" parent="JJkMY_QVzMOAWTLExX79-798">
          <mxGeometry x="85.99921818892561" width="28.66640606297519" height="25" as="geometry" />
        </mxCell>
        <mxCell id="JJkMY_QVzMOAWTLExX79-819" value="" style="rounded=0;whiteSpace=wrap;html=1;" vertex="1" parent="JJkMY_QVzMOAWTLExX79-798">
          <mxGeometry x="114.66562425190081" width="28.66640606297519" height="25" as="geometry" />
        </mxCell>
        <mxCell id="JJkMY_QVzMOAWTLExX79-820" value="" style="rounded=0;whiteSpace=wrap;html=1;" vertex="1" parent="JJkMY_QVzMOAWTLExX79-798">
          <mxGeometry x="85.99921818892561" y="25" width="28.66640606297519" height="25" as="geometry" />
        </mxCell>
        <mxCell id="JJkMY_QVzMOAWTLExX79-821" value="" style="rounded=0;whiteSpace=wrap;html=1;" vertex="1" parent="JJkMY_QVzMOAWTLExX79-798">
          <mxGeometry x="114.66562425190081" y="25" width="28.66640606297519" height="25" as="geometry" />
        </mxCell>
        <mxCell id="JJkMY_QVzMOAWTLExX79-822" value="" style="rounded=0;whiteSpace=wrap;html=1;" vertex="1" parent="JJkMY_QVzMOAWTLExX79-798">
          <mxGeometry x="28.666406062975202" width="28.66640606297519" height="25" as="geometry" />
        </mxCell>
        <mxCell id="JJkMY_QVzMOAWTLExX79-823" value="" style="rounded=0;whiteSpace=wrap;html=1;" vertex="1" parent="JJkMY_QVzMOAWTLExX79-798">
          <mxGeometry x="57.332812125950404" width="28.66640606297519" height="25" as="geometry" />
        </mxCell>
        <mxCell id="JJkMY_QVzMOAWTLExX79-824" value="" style="rounded=0;whiteSpace=wrap;html=1;" vertex="1" parent="JJkMY_QVzMOAWTLExX79-798">
          <mxGeometry x="28.666406062975202" y="25" width="28.66640606297519" height="25" as="geometry" />
        </mxCell>
        <mxCell id="JJkMY_QVzMOAWTLExX79-825" value="" style="rounded=0;whiteSpace=wrap;html=1;" vertex="1" parent="JJkMY_QVzMOAWTLExX79-798">
          <mxGeometry x="57.332812125950404" y="25" width="28.66640606297519" height="25" as="geometry" />
        </mxCell>
        <mxCell id="JJkMY_QVzMOAWTLExX79-826" value="" style="rounded=0;whiteSpace=wrap;html=1;" vertex="1" parent="JJkMY_QVzMOAWTLExX79-798">
          <mxGeometry width="28.66640606297519" height="25" as="geometry" />
        </mxCell>
        <mxCell id="JJkMY_QVzMOAWTLExX79-827" value="" style="rounded=0;whiteSpace=wrap;html=1;" vertex="1" parent="JJkMY_QVzMOAWTLExX79-798">
          <mxGeometry y="25" width="28.66640606297519" height="25" as="geometry" />
        </mxCell>
        <mxCell id="JJkMY_QVzMOAWTLExX79-828" value="" style="rounded=0;whiteSpace=wrap;html=1;" vertex="1" parent="JJkMY_QVzMOAWTLExX79-798">
          <mxGeometry x="143.33203031487588" width="28.66640606297519" height="25" as="geometry" />
        </mxCell>
        <mxCell id="JJkMY_QVzMOAWTLExX79-829" value="" style="rounded=0;whiteSpace=wrap;html=1;" vertex="1" parent="JJkMY_QVzMOAWTLExX79-798">
          <mxGeometry x="143.33203031487588" y="25" width="28.66640606297519" height="25" as="geometry" />
        </mxCell>
        <mxCell id="JJkMY_QVzMOAWTLExX79-846" value="" style="group" vertex="1" connectable="0" parent="1">
          <mxGeometry x="853" y="350" width="57" height="235" as="geometry" />
        </mxCell>
        <mxCell id="JJkMY_QVzMOAWTLExX79-847" value="" style="rounded=0;whiteSpace=wrap;html=1;" vertex="1" parent="JJkMY_QVzMOAWTLExX79-846">
          <mxGeometry width="28.5" height="33.57142857142856" as="geometry" />
        </mxCell>
        <mxCell id="JJkMY_QVzMOAWTLExX79-848" value="" style="rounded=0;whiteSpace=wrap;html=1;" vertex="1" parent="JJkMY_QVzMOAWTLExX79-846">
          <mxGeometry x="28.5" width="28.5" height="33.57142857142856" as="geometry" />
        </mxCell>
        <mxCell id="JJkMY_QVzMOAWTLExX79-849" value="" style="rounded=0;whiteSpace=wrap;html=1;" vertex="1" parent="JJkMY_QVzMOAWTLExX79-846">
          <mxGeometry y="33.57142857142856" width="28.5" height="33.57142857142856" as="geometry" />
        </mxCell>
        <mxCell id="JJkMY_QVzMOAWTLExX79-850" value="" style="rounded=0;whiteSpace=wrap;html=1;" vertex="1" parent="JJkMY_QVzMOAWTLExX79-846">
          <mxGeometry x="28.5" y="33.57142857142856" width="28.5" height="33.57142857142856" as="geometry" />
        </mxCell>
        <mxCell id="JJkMY_QVzMOAWTLExX79-851" value="" style="rounded=0;whiteSpace=wrap;html=1;" vertex="1" parent="JJkMY_QVzMOAWTLExX79-846">
          <mxGeometry y="67.14285714285712" width="28.5" height="33.57142857142856" as="geometry" />
        </mxCell>
        <mxCell id="JJkMY_QVzMOAWTLExX79-852" value="" style="rounded=0;whiteSpace=wrap;html=1;" vertex="1" parent="JJkMY_QVzMOAWTLExX79-846">
          <mxGeometry x="28.5" y="67.14285714285712" width="28.5" height="33.57142857142856" as="geometry" />
        </mxCell>
        <mxCell id="JJkMY_QVzMOAWTLExX79-853" value="" style="rounded=0;whiteSpace=wrap;html=1;" vertex="1" parent="JJkMY_QVzMOAWTLExX79-846">
          <mxGeometry y="100.7142857142857" width="28.5" height="33.57142857142856" as="geometry" />
        </mxCell>
        <mxCell id="JJkMY_QVzMOAWTLExX79-854" value="" style="rounded=0;whiteSpace=wrap;html=1;" vertex="1" parent="JJkMY_QVzMOAWTLExX79-846">
          <mxGeometry x="28.5" y="100.7142857142857" width="28.5" height="33.57142857142856" as="geometry" />
        </mxCell>
        <mxCell id="JJkMY_QVzMOAWTLExX79-855" value="" style="rounded=0;whiteSpace=wrap;html=1;" vertex="1" parent="JJkMY_QVzMOAWTLExX79-846">
          <mxGeometry y="134.28571428571425" width="28.5" height="33.57142857142856" as="geometry" />
        </mxCell>
        <mxCell id="JJkMY_QVzMOAWTLExX79-856" value="" style="rounded=0;whiteSpace=wrap;html=1;" vertex="1" parent="JJkMY_QVzMOAWTLExX79-846">
          <mxGeometry x="28.5" y="134.28571428571425" width="28.5" height="33.57142857142856" as="geometry" />
        </mxCell>
        <mxCell id="JJkMY_QVzMOAWTLExX79-857" value="" style="rounded=0;whiteSpace=wrap;html=1;" vertex="1" parent="JJkMY_QVzMOAWTLExX79-846">
          <mxGeometry y="167.85714285714283" width="28.5" height="33.57142857142856" as="geometry" />
        </mxCell>
        <mxCell id="JJkMY_QVzMOAWTLExX79-858" value="" style="rounded=0;whiteSpace=wrap;html=1;" vertex="1" parent="JJkMY_QVzMOAWTLExX79-846">
          <mxGeometry x="28.5" y="167.85714285714283" width="28.5" height="33.57142857142856" as="geometry" />
        </mxCell>
        <mxCell id="JJkMY_QVzMOAWTLExX79-859" value="" style="rounded=0;whiteSpace=wrap;html=1;" vertex="1" parent="JJkMY_QVzMOAWTLExX79-846">
          <mxGeometry y="201.4285714285714" width="28.5" height="33.57142857142856" as="geometry" />
        </mxCell>
        <mxCell id="JJkMY_QVzMOAWTLExX79-860" value="" style="rounded=0;whiteSpace=wrap;html=1;" vertex="1" parent="JJkMY_QVzMOAWTLExX79-846">
          <mxGeometry x="28.5" y="201.4285714285714" width="28.5" height="33.57142857142856" as="geometry" />
        </mxCell>
        <mxCell id="JJkMY_QVzMOAWTLExX79-861" value="" style="group" vertex="1" connectable="0" parent="1">
          <mxGeometry x="480" y="588" width="430" height="50" as="geometry" />
        </mxCell>
        <mxCell id="JJkMY_QVzMOAWTLExX79-862" value="" style="group" vertex="1" connectable="0" parent="JJkMY_QVzMOAWTLExX79-861">
          <mxGeometry x="172.0023454332233" width="257.9976545667767" height="50" as="geometry" />
        </mxCell>
        <mxCell id="JJkMY_QVzMOAWTLExX79-863" value="" style="rounded=0;whiteSpace=wrap;html=1;" vertex="1" parent="JJkMY_QVzMOAWTLExX79-862">
          <mxGeometry x="85.99921818892558" width="28.66640606297519" height="25" as="geometry" />
        </mxCell>
        <mxCell id="JJkMY_QVzMOAWTLExX79-864" value="" style="rounded=0;whiteSpace=wrap;html=1;" vertex="1" parent="JJkMY_QVzMOAWTLExX79-862">
          <mxGeometry x="114.66562425190077" width="28.66640606297519" height="25" as="geometry" />
        </mxCell>
        <mxCell id="JJkMY_QVzMOAWTLExX79-865" value="" style="rounded=0;whiteSpace=wrap;html=1;" vertex="1" parent="JJkMY_QVzMOAWTLExX79-862">
          <mxGeometry x="85.99921818892558" y="25" width="28.66640606297519" height="25" as="geometry" />
        </mxCell>
        <mxCell id="JJkMY_QVzMOAWTLExX79-866" value="" style="rounded=0;whiteSpace=wrap;html=1;" vertex="1" parent="JJkMY_QVzMOAWTLExX79-862">
          <mxGeometry x="114.66562425190077" y="25" width="28.66640606297519" height="25" as="geometry" />
        </mxCell>
        <mxCell id="JJkMY_QVzMOAWTLExX79-867" value="" style="rounded=0;whiteSpace=wrap;html=1;" vertex="1" parent="JJkMY_QVzMOAWTLExX79-862">
          <mxGeometry x="28.66640606297519" width="28.66640606297519" height="25" as="geometry" />
        </mxCell>
        <mxCell id="JJkMY_QVzMOAWTLExX79-868" value="" style="rounded=0;whiteSpace=wrap;html=1;" vertex="1" parent="JJkMY_QVzMOAWTLExX79-862">
          <mxGeometry x="57.33281212595038" width="28.66640606297519" height="25" as="geometry" />
        </mxCell>
        <mxCell id="JJkMY_QVzMOAWTLExX79-869" value="" style="rounded=0;whiteSpace=wrap;html=1;" vertex="1" parent="JJkMY_QVzMOAWTLExX79-862">
          <mxGeometry x="28.66640606297519" y="25" width="28.66640606297519" height="25" as="geometry" />
        </mxCell>
        <mxCell id="JJkMY_QVzMOAWTLExX79-870" value="" style="rounded=0;whiteSpace=wrap;html=1;" vertex="1" parent="JJkMY_QVzMOAWTLExX79-862">
          <mxGeometry x="57.33281212595038" y="25" width="28.66640606297519" height="25" as="geometry" />
        </mxCell>
        <mxCell id="JJkMY_QVzMOAWTLExX79-871" value="" style="rounded=0;whiteSpace=wrap;html=1;" vertex="1" parent="JJkMY_QVzMOAWTLExX79-862">
          <mxGeometry width="28.66640606297519" height="25" as="geometry" />
        </mxCell>
        <mxCell id="JJkMY_QVzMOAWTLExX79-872" value="" style="rounded=0;whiteSpace=wrap;html=1;" vertex="1" parent="JJkMY_QVzMOAWTLExX79-862">
          <mxGeometry y="25" width="28.66640606297519" height="25" as="geometry" />
        </mxCell>
        <mxCell id="JJkMY_QVzMOAWTLExX79-873" value="" style="rounded=0;whiteSpace=wrap;html=1;" vertex="1" parent="JJkMY_QVzMOAWTLExX79-862">
          <mxGeometry x="229.33124850380153" width="28.66640606297519" height="25" as="geometry" />
        </mxCell>
        <mxCell id="JJkMY_QVzMOAWTLExX79-874" value="" style="rounded=0;whiteSpace=wrap;html=1;" vertex="1" parent="JJkMY_QVzMOAWTLExX79-862">
          <mxGeometry x="229.33124850380153" y="25" width="28.66640606297519" height="25" as="geometry" />
        </mxCell>
        <mxCell id="JJkMY_QVzMOAWTLExX79-875" value="" style="rounded=0;whiteSpace=wrap;html=1;" vertex="1" parent="JJkMY_QVzMOAWTLExX79-862">
          <mxGeometry x="171.99843637785116" width="28.66640606297519" height="25" as="geometry" />
        </mxCell>
        <mxCell id="JJkMY_QVzMOAWTLExX79-876" value="" style="rounded=0;whiteSpace=wrap;html=1;" vertex="1" parent="JJkMY_QVzMOAWTLExX79-862">
          <mxGeometry x="200.66484244082633" width="28.66640606297519" height="25" as="geometry" />
        </mxCell>
        <mxCell id="JJkMY_QVzMOAWTLExX79-877" value="" style="rounded=0;whiteSpace=wrap;html=1;" vertex="1" parent="JJkMY_QVzMOAWTLExX79-862">
          <mxGeometry x="171.99843637785116" y="25" width="28.66640606297519" height="25" as="geometry" />
        </mxCell>
        <mxCell id="JJkMY_QVzMOAWTLExX79-878" value="" style="rounded=0;whiteSpace=wrap;html=1;" vertex="1" parent="JJkMY_QVzMOAWTLExX79-862">
          <mxGeometry x="200.66484244082633" y="25" width="28.66640606297519" height="25" as="geometry" />
        </mxCell>
        <mxCell id="JJkMY_QVzMOAWTLExX79-879" value="" style="rounded=0;whiteSpace=wrap;html=1;" vertex="1" parent="JJkMY_QVzMOAWTLExX79-862">
          <mxGeometry x="143.33203031487594" width="28.66640606297519" height="25" as="geometry" />
        </mxCell>
        <mxCell id="JJkMY_QVzMOAWTLExX79-880" value="" style="rounded=0;whiteSpace=wrap;html=1;" vertex="1" parent="JJkMY_QVzMOAWTLExX79-862">
          <mxGeometry x="143.33203031487594" y="25" width="28.66640606297519" height="25" as="geometry" />
        </mxCell>
        <mxCell id="JJkMY_QVzMOAWTLExX79-881" value="" style="rounded=0;whiteSpace=wrap;html=1;" vertex="1" parent="JJkMY_QVzMOAWTLExX79-861">
          <mxGeometry x="85.99921818892561" width="28.66640606297519" height="25" as="geometry" />
        </mxCell>
        <mxCell id="JJkMY_QVzMOAWTLExX79-882" value="" style="rounded=0;whiteSpace=wrap;html=1;" vertex="1" parent="JJkMY_QVzMOAWTLExX79-861">
          <mxGeometry x="114.66562425190081" width="28.66640606297519" height="25" as="geometry" />
        </mxCell>
        <mxCell id="JJkMY_QVzMOAWTLExX79-883" value="" style="rounded=0;whiteSpace=wrap;html=1;" vertex="1" parent="JJkMY_QVzMOAWTLExX79-861">
          <mxGeometry x="85.99921818892561" y="25" width="28.66640606297519" height="25" as="geometry" />
        </mxCell>
        <mxCell id="JJkMY_QVzMOAWTLExX79-884" value="" style="rounded=0;whiteSpace=wrap;html=1;" vertex="1" parent="JJkMY_QVzMOAWTLExX79-861">
          <mxGeometry x="114.66562425190081" y="25" width="28.66640606297519" height="25" as="geometry" />
        </mxCell>
        <mxCell id="JJkMY_QVzMOAWTLExX79-885" value="" style="rounded=0;whiteSpace=wrap;html=1;" vertex="1" parent="JJkMY_QVzMOAWTLExX79-861">
          <mxGeometry x="28.666406062975202" width="28.66640606297519" height="25" as="geometry" />
        </mxCell>
        <mxCell id="JJkMY_QVzMOAWTLExX79-886" value="" style="rounded=0;whiteSpace=wrap;html=1;" vertex="1" parent="JJkMY_QVzMOAWTLExX79-861">
          <mxGeometry x="57.332812125950404" width="28.66640606297519" height="25" as="geometry" />
        </mxCell>
        <mxCell id="JJkMY_QVzMOAWTLExX79-887" value="" style="rounded=0;whiteSpace=wrap;html=1;" vertex="1" parent="JJkMY_QVzMOAWTLExX79-861">
          <mxGeometry x="28.666406062975202" y="25" width="28.66640606297519" height="25" as="geometry" />
        </mxCell>
        <mxCell id="JJkMY_QVzMOAWTLExX79-888" value="" style="rounded=0;whiteSpace=wrap;html=1;" vertex="1" parent="JJkMY_QVzMOAWTLExX79-861">
          <mxGeometry x="57.332812125950404" y="25" width="28.66640606297519" height="25" as="geometry" />
        </mxCell>
        <mxCell id="JJkMY_QVzMOAWTLExX79-889" value="" style="rounded=0;whiteSpace=wrap;html=1;" vertex="1" parent="JJkMY_QVzMOAWTLExX79-861">
          <mxGeometry width="28.66640606297519" height="25" as="geometry" />
        </mxCell>
        <mxCell id="JJkMY_QVzMOAWTLExX79-890" value="" style="rounded=0;whiteSpace=wrap;html=1;" vertex="1" parent="JJkMY_QVzMOAWTLExX79-861">
          <mxGeometry y="25" width="28.66640606297519" height="25" as="geometry" />
        </mxCell>
        <mxCell id="JJkMY_QVzMOAWTLExX79-891" value="" style="rounded=0;whiteSpace=wrap;html=1;" vertex="1" parent="JJkMY_QVzMOAWTLExX79-861">
          <mxGeometry x="143.33203031487588" width="28.66640606297519" height="25" as="geometry" />
        </mxCell>
        <mxCell id="JJkMY_QVzMOAWTLExX79-892" value="" style="rounded=0;whiteSpace=wrap;html=1;" vertex="1" parent="JJkMY_QVzMOAWTLExX79-861">
          <mxGeometry x="143.33203031487588" y="25" width="28.66640606297519" height="25" as="geometry" />
        </mxCell>
        <mxCell id="JJkMY_QVzMOAWTLExX79-893" value="" style="group" vertex="1" connectable="0" parent="1">
          <mxGeometry x="30" y="588" width="430" height="50" as="geometry" />
        </mxCell>
        <mxCell id="JJkMY_QVzMOAWTLExX79-894" value="" style="group" vertex="1" connectable="0" parent="JJkMY_QVzMOAWTLExX79-893">
          <mxGeometry x="172.0023454332233" width="257.9976545667767" height="50" as="geometry" />
        </mxCell>
        <mxCell id="JJkMY_QVzMOAWTLExX79-895" value="" style="rounded=0;whiteSpace=wrap;html=1;" vertex="1" parent="JJkMY_QVzMOAWTLExX79-894">
          <mxGeometry x="85.99921818892558" width="28.66640606297519" height="25" as="geometry" />
        </mxCell>
        <mxCell id="JJkMY_QVzMOAWTLExX79-896" value="" style="rounded=0;whiteSpace=wrap;html=1;" vertex="1" parent="JJkMY_QVzMOAWTLExX79-894">
          <mxGeometry x="114.66562425190077" width="28.66640606297519" height="25" as="geometry" />
        </mxCell>
        <mxCell id="JJkMY_QVzMOAWTLExX79-897" value="" style="rounded=0;whiteSpace=wrap;html=1;" vertex="1" parent="JJkMY_QVzMOAWTLExX79-894">
          <mxGeometry x="85.99921818892558" y="25" width="28.66640606297519" height="25" as="geometry" />
        </mxCell>
        <mxCell id="JJkMY_QVzMOAWTLExX79-898" value="" style="rounded=0;whiteSpace=wrap;html=1;" vertex="1" parent="JJkMY_QVzMOAWTLExX79-894">
          <mxGeometry x="114.66562425190077" y="25" width="28.66640606297519" height="25" as="geometry" />
        </mxCell>
        <mxCell id="JJkMY_QVzMOAWTLExX79-899" value="" style="rounded=0;whiteSpace=wrap;html=1;" vertex="1" parent="JJkMY_QVzMOAWTLExX79-894">
          <mxGeometry x="28.66640606297519" width="28.66640606297519" height="25" as="geometry" />
        </mxCell>
        <mxCell id="JJkMY_QVzMOAWTLExX79-900" value="" style="rounded=0;whiteSpace=wrap;html=1;" vertex="1" parent="JJkMY_QVzMOAWTLExX79-894">
          <mxGeometry x="57.33281212595038" width="28.66640606297519" height="25" as="geometry" />
        </mxCell>
        <mxCell id="JJkMY_QVzMOAWTLExX79-901" value="" style="rounded=0;whiteSpace=wrap;html=1;" vertex="1" parent="JJkMY_QVzMOAWTLExX79-894">
          <mxGeometry x="28.66640606297519" y="25" width="28.66640606297519" height="25" as="geometry" />
        </mxCell>
        <mxCell id="JJkMY_QVzMOAWTLExX79-902" value="" style="rounded=0;whiteSpace=wrap;html=1;" vertex="1" parent="JJkMY_QVzMOAWTLExX79-894">
          <mxGeometry x="57.33281212595038" y="25" width="28.66640606297519" height="25" as="geometry" />
        </mxCell>
        <mxCell id="JJkMY_QVzMOAWTLExX79-903" value="" style="rounded=0;whiteSpace=wrap;html=1;" vertex="1" parent="JJkMY_QVzMOAWTLExX79-894">
          <mxGeometry width="28.66640606297519" height="25" as="geometry" />
        </mxCell>
        <mxCell id="JJkMY_QVzMOAWTLExX79-904" value="" style="rounded=0;whiteSpace=wrap;html=1;" vertex="1" parent="JJkMY_QVzMOAWTLExX79-894">
          <mxGeometry y="25" width="28.66640606297519" height="25" as="geometry" />
        </mxCell>
        <mxCell id="JJkMY_QVzMOAWTLExX79-905" value="" style="rounded=0;whiteSpace=wrap;html=1;" vertex="1" parent="JJkMY_QVzMOAWTLExX79-894">
          <mxGeometry x="229.33124850380153" width="28.66640606297519" height="25" as="geometry" />
        </mxCell>
        <mxCell id="JJkMY_QVzMOAWTLExX79-906" value="" style="rounded=0;whiteSpace=wrap;html=1;" vertex="1" parent="JJkMY_QVzMOAWTLExX79-894">
          <mxGeometry x="229.33124850380153" y="25" width="28.66640606297519" height="25" as="geometry" />
        </mxCell>
        <mxCell id="JJkMY_QVzMOAWTLExX79-907" value="" style="rounded=0;whiteSpace=wrap;html=1;" vertex="1" parent="JJkMY_QVzMOAWTLExX79-894">
          <mxGeometry x="171.99843637785116" width="28.66640606297519" height="25" as="geometry" />
        </mxCell>
        <mxCell id="JJkMY_QVzMOAWTLExX79-908" value="" style="rounded=0;whiteSpace=wrap;html=1;" vertex="1" parent="JJkMY_QVzMOAWTLExX79-894">
          <mxGeometry x="200.66484244082633" width="28.66640606297519" height="25" as="geometry" />
        </mxCell>
        <mxCell id="JJkMY_QVzMOAWTLExX79-909" value="" style="rounded=0;whiteSpace=wrap;html=1;" vertex="1" parent="JJkMY_QVzMOAWTLExX79-894">
          <mxGeometry x="171.99843637785116" y="25" width="28.66640606297519" height="25" as="geometry" />
        </mxCell>
        <mxCell id="JJkMY_QVzMOAWTLExX79-910" value="" style="rounded=0;whiteSpace=wrap;html=1;" vertex="1" parent="JJkMY_QVzMOAWTLExX79-894">
          <mxGeometry x="200.66484244082633" y="25" width="28.66640606297519" height="25" as="geometry" />
        </mxCell>
        <mxCell id="JJkMY_QVzMOAWTLExX79-911" value="" style="rounded=0;whiteSpace=wrap;html=1;" vertex="1" parent="JJkMY_QVzMOAWTLExX79-894">
          <mxGeometry x="143.33203031487594" width="28.66640606297519" height="25" as="geometry" />
        </mxCell>
        <mxCell id="JJkMY_QVzMOAWTLExX79-912" value="" style="rounded=0;whiteSpace=wrap;html=1;" vertex="1" parent="JJkMY_QVzMOAWTLExX79-894">
          <mxGeometry x="143.33203031487594" y="25" width="28.66640606297519" height="25" as="geometry" />
        </mxCell>
        <mxCell id="JJkMY_QVzMOAWTLExX79-913" value="" style="rounded=0;whiteSpace=wrap;html=1;" vertex="1" parent="JJkMY_QVzMOAWTLExX79-893">
          <mxGeometry x="85.99921818892561" width="28.66640606297519" height="25" as="geometry" />
        </mxCell>
        <mxCell id="JJkMY_QVzMOAWTLExX79-914" value="" style="rounded=0;whiteSpace=wrap;html=1;" vertex="1" parent="JJkMY_QVzMOAWTLExX79-893">
          <mxGeometry x="114.66562425190081" width="28.66640606297519" height="25" as="geometry" />
        </mxCell>
        <mxCell id="JJkMY_QVzMOAWTLExX79-915" value="" style="rounded=0;whiteSpace=wrap;html=1;" vertex="1" parent="JJkMY_QVzMOAWTLExX79-893">
          <mxGeometry x="85.99921818892561" y="25" width="28.66640606297519" height="25" as="geometry" />
        </mxCell>
        <mxCell id="JJkMY_QVzMOAWTLExX79-916" value="" style="rounded=0;whiteSpace=wrap;html=1;" vertex="1" parent="JJkMY_QVzMOAWTLExX79-893">
          <mxGeometry x="114.66562425190081" y="25" width="28.66640606297519" height="25" as="geometry" />
        </mxCell>
        <mxCell id="JJkMY_QVzMOAWTLExX79-917" value="" style="rounded=0;whiteSpace=wrap;html=1;" vertex="1" parent="JJkMY_QVzMOAWTLExX79-893">
          <mxGeometry x="28.666406062975202" width="28.66640606297519" height="25" as="geometry" />
        </mxCell>
        <mxCell id="JJkMY_QVzMOAWTLExX79-918" value="" style="rounded=0;whiteSpace=wrap;html=1;" vertex="1" parent="JJkMY_QVzMOAWTLExX79-893">
          <mxGeometry x="57.332812125950404" width="28.66640606297519" height="25" as="geometry" />
        </mxCell>
        <mxCell id="JJkMY_QVzMOAWTLExX79-919" value="" style="rounded=0;whiteSpace=wrap;html=1;" vertex="1" parent="JJkMY_QVzMOAWTLExX79-893">
          <mxGeometry x="28.666406062975202" y="25" width="28.66640606297519" height="25" as="geometry" />
        </mxCell>
        <mxCell id="JJkMY_QVzMOAWTLExX79-920" value="" style="rounded=0;whiteSpace=wrap;html=1;" vertex="1" parent="JJkMY_QVzMOAWTLExX79-893">
          <mxGeometry x="57.332812125950404" y="25" width="28.66640606297519" height="25" as="geometry" />
        </mxCell>
        <mxCell id="JJkMY_QVzMOAWTLExX79-921" value="" style="rounded=0;whiteSpace=wrap;html=1;" vertex="1" parent="JJkMY_QVzMOAWTLExX79-893">
          <mxGeometry width="28.66640606297519" height="25" as="geometry" />
        </mxCell>
        <mxCell id="JJkMY_QVzMOAWTLExX79-922" value="" style="rounded=0;whiteSpace=wrap;html=1;" vertex="1" parent="JJkMY_QVzMOAWTLExX79-893">
          <mxGeometry y="25" width="28.66640606297519" height="25" as="geometry" />
        </mxCell>
        <mxCell id="JJkMY_QVzMOAWTLExX79-923" value="" style="rounded=0;whiteSpace=wrap;html=1;" vertex="1" parent="JJkMY_QVzMOAWTLExX79-893">
          <mxGeometry x="143.33203031487588" width="28.66640606297519" height="25" as="geometry" />
        </mxCell>
        <mxCell id="JJkMY_QVzMOAWTLExX79-924" value="" style="rounded=0;whiteSpace=wrap;html=1;" vertex="1" parent="JJkMY_QVzMOAWTLExX79-893">
          <mxGeometry x="143.33203031487588" y="25" width="28.66640606297519" height="25" as="geometry" />
        </mxCell>
        <mxCell id="JJkMY_QVzMOAWTLExX79-925" value="" style="group" vertex="1" connectable="0" parent="1">
          <mxGeometry x="30" y="107.5" width="57" height="235" as="geometry" />
        </mxCell>
        <mxCell id="JJkMY_QVzMOAWTLExX79-926" value="" style="rounded=0;whiteSpace=wrap;html=1;" vertex="1" parent="JJkMY_QVzMOAWTLExX79-925">
          <mxGeometry width="28.5" height="33.57142857142856" as="geometry" />
        </mxCell>
        <mxCell id="JJkMY_QVzMOAWTLExX79-927" value="" style="rounded=0;whiteSpace=wrap;html=1;" vertex="1" parent="JJkMY_QVzMOAWTLExX79-925">
          <mxGeometry x="28.5" width="28.5" height="33.57142857142856" as="geometry" />
        </mxCell>
        <mxCell id="JJkMY_QVzMOAWTLExX79-928" value="" style="rounded=0;whiteSpace=wrap;html=1;" vertex="1" parent="JJkMY_QVzMOAWTLExX79-925">
          <mxGeometry y="33.57142857142856" width="28.5" height="33.57142857142856" as="geometry" />
        </mxCell>
        <mxCell id="JJkMY_QVzMOAWTLExX79-929" value="" style="rounded=0;whiteSpace=wrap;html=1;" vertex="1" parent="JJkMY_QVzMOAWTLExX79-925">
          <mxGeometry x="28.5" y="33.57142857142856" width="28.5" height="33.57142857142856" as="geometry" />
        </mxCell>
        <mxCell id="JJkMY_QVzMOAWTLExX79-930" value="" style="rounded=0;whiteSpace=wrap;html=1;" vertex="1" parent="JJkMY_QVzMOAWTLExX79-925">
          <mxGeometry y="67.14285714285712" width="28.5" height="33.57142857142856" as="geometry" />
        </mxCell>
        <mxCell id="JJkMY_QVzMOAWTLExX79-931" value="" style="rounded=0;whiteSpace=wrap;html=1;" vertex="1" parent="JJkMY_QVzMOAWTLExX79-925">
          <mxGeometry x="28.5" y="67.14285714285712" width="28.5" height="33.57142857142856" as="geometry" />
        </mxCell>
        <mxCell id="JJkMY_QVzMOAWTLExX79-932" value="" style="rounded=0;whiteSpace=wrap;html=1;" vertex="1" parent="JJkMY_QVzMOAWTLExX79-925">
          <mxGeometry y="100.7142857142857" width="28.5" height="33.57142857142856" as="geometry" />
        </mxCell>
        <mxCell id="JJkMY_QVzMOAWTLExX79-933" value="" style="rounded=0;whiteSpace=wrap;html=1;" vertex="1" parent="JJkMY_QVzMOAWTLExX79-925">
          <mxGeometry x="28.5" y="100.7142857142857" width="28.5" height="33.57142857142856" as="geometry" />
        </mxCell>
        <mxCell id="JJkMY_QVzMOAWTLExX79-934" value="" style="rounded=0;whiteSpace=wrap;html=1;" vertex="1" parent="JJkMY_QVzMOAWTLExX79-925">
          <mxGeometry y="134.28571428571425" width="28.5" height="33.57142857142856" as="geometry" />
        </mxCell>
        <mxCell id="JJkMY_QVzMOAWTLExX79-935" value="" style="rounded=0;whiteSpace=wrap;html=1;" vertex="1" parent="JJkMY_QVzMOAWTLExX79-925">
          <mxGeometry x="28.5" y="134.28571428571425" width="28.5" height="33.57142857142856" as="geometry" />
        </mxCell>
        <mxCell id="JJkMY_QVzMOAWTLExX79-936" value="" style="rounded=0;whiteSpace=wrap;html=1;" vertex="1" parent="JJkMY_QVzMOAWTLExX79-925">
          <mxGeometry y="167.85714285714283" width="28.5" height="33.57142857142856" as="geometry" />
        </mxCell>
        <mxCell id="JJkMY_QVzMOAWTLExX79-937" value="" style="rounded=0;whiteSpace=wrap;html=1;" vertex="1" parent="JJkMY_QVzMOAWTLExX79-925">
          <mxGeometry x="28.5" y="167.85714285714283" width="28.5" height="33.57142857142856" as="geometry" />
        </mxCell>
        <mxCell id="JJkMY_QVzMOAWTLExX79-938" value="" style="rounded=0;whiteSpace=wrap;html=1;" vertex="1" parent="JJkMY_QVzMOAWTLExX79-925">
          <mxGeometry y="201.4285714285714" width="28.5" height="33.57142857142856" as="geometry" />
        </mxCell>
        <mxCell id="JJkMY_QVzMOAWTLExX79-939" value="" style="rounded=0;whiteSpace=wrap;html=1;" vertex="1" parent="JJkMY_QVzMOAWTLExX79-925">
          <mxGeometry x="28.5" y="201.4285714285714" width="28.5" height="33.57142857142856" as="geometry" />
        </mxCell>
        <mxCell id="JJkMY_QVzMOAWTLExX79-940" value="" style="group" vertex="1" connectable="0" parent="1">
          <mxGeometry x="30" y="350" width="57" height="235" as="geometry" />
        </mxCell>
        <mxCell id="JJkMY_QVzMOAWTLExX79-941" value="" style="rounded=0;whiteSpace=wrap;html=1;" vertex="1" parent="JJkMY_QVzMOAWTLExX79-940">
          <mxGeometry width="28.5" height="33.57142857142856" as="geometry" />
        </mxCell>
        <mxCell id="JJkMY_QVzMOAWTLExX79-942" value="" style="rounded=0;whiteSpace=wrap;html=1;" vertex="1" parent="JJkMY_QVzMOAWTLExX79-940">
          <mxGeometry x="28.5" width="28.5" height="33.57142857142856" as="geometry" />
        </mxCell>
        <mxCell id="JJkMY_QVzMOAWTLExX79-943" value="" style="rounded=0;whiteSpace=wrap;html=1;" vertex="1" parent="JJkMY_QVzMOAWTLExX79-940">
          <mxGeometry y="33.57142857142856" width="28.5" height="33.57142857142856" as="geometry" />
        </mxCell>
        <mxCell id="JJkMY_QVzMOAWTLExX79-944" value="" style="rounded=0;whiteSpace=wrap;html=1;" vertex="1" parent="JJkMY_QVzMOAWTLExX79-940">
          <mxGeometry x="28.5" y="33.57142857142856" width="28.5" height="33.57142857142856" as="geometry" />
        </mxCell>
        <mxCell id="JJkMY_QVzMOAWTLExX79-945" value="" style="rounded=0;whiteSpace=wrap;html=1;" vertex="1" parent="JJkMY_QVzMOAWTLExX79-940">
          <mxGeometry y="67.14285714285712" width="28.5" height="33.57142857142856" as="geometry" />
        </mxCell>
        <mxCell id="JJkMY_QVzMOAWTLExX79-946" value="" style="rounded=0;whiteSpace=wrap;html=1;" vertex="1" parent="JJkMY_QVzMOAWTLExX79-940">
          <mxGeometry x="28.5" y="67.14285714285712" width="28.5" height="33.57142857142856" as="geometry" />
        </mxCell>
        <mxCell id="JJkMY_QVzMOAWTLExX79-947" value="" style="rounded=0;whiteSpace=wrap;html=1;" vertex="1" parent="JJkMY_QVzMOAWTLExX79-940">
          <mxGeometry y="100.7142857142857" width="28.5" height="33.57142857142856" as="geometry" />
        </mxCell>
        <mxCell id="JJkMY_QVzMOAWTLExX79-948" value="" style="rounded=0;whiteSpace=wrap;html=1;" vertex="1" parent="JJkMY_QVzMOAWTLExX79-940">
          <mxGeometry x="28.5" y="100.7142857142857" width="28.5" height="33.57142857142856" as="geometry" />
        </mxCell>
        <mxCell id="JJkMY_QVzMOAWTLExX79-949" value="" style="rounded=0;whiteSpace=wrap;html=1;" vertex="1" parent="JJkMY_QVzMOAWTLExX79-940">
          <mxGeometry y="134.28571428571425" width="28.5" height="33.57142857142856" as="geometry" />
        </mxCell>
        <mxCell id="JJkMY_QVzMOAWTLExX79-950" value="" style="rounded=0;whiteSpace=wrap;html=1;" vertex="1" parent="JJkMY_QVzMOAWTLExX79-940">
          <mxGeometry x="28.5" y="134.28571428571425" width="28.5" height="33.57142857142856" as="geometry" />
        </mxCell>
        <mxCell id="JJkMY_QVzMOAWTLExX79-951" value="" style="rounded=0;whiteSpace=wrap;html=1;" vertex="1" parent="JJkMY_QVzMOAWTLExX79-940">
          <mxGeometry y="167.85714285714283" width="28.5" height="33.57142857142856" as="geometry" />
        </mxCell>
        <mxCell id="JJkMY_QVzMOAWTLExX79-952" value="" style="rounded=0;whiteSpace=wrap;html=1;" vertex="1" parent="JJkMY_QVzMOAWTLExX79-940">
          <mxGeometry x="28.5" y="167.85714285714283" width="28.5" height="33.57142857142856" as="geometry" />
        </mxCell>
        <mxCell id="JJkMY_QVzMOAWTLExX79-953" value="" style="rounded=0;whiteSpace=wrap;html=1;" vertex="1" parent="JJkMY_QVzMOAWTLExX79-940">
          <mxGeometry y="201.4285714285714" width="28.5" height="33.57142857142856" as="geometry" />
        </mxCell>
        <mxCell id="JJkMY_QVzMOAWTLExX79-954" value="" style="rounded=0;whiteSpace=wrap;html=1;" vertex="1" parent="JJkMY_QVzMOAWTLExX79-940">
          <mxGeometry x="28.5" y="201.4285714285714" width="28.5" height="33.57142857142856" as="geometry" />
        </mxCell>
        <mxCell id="JJkMY_QVzMOAWTLExX79-1036" value="" style="group" vertex="1" connectable="0" parent="1">
          <mxGeometry x="130" y="450" width="330" height="90" as="geometry" />
        </mxCell>
        <mxCell id="JJkMY_QVzMOAWTLExX79-972" value="" style="group" vertex="1" connectable="0" parent="JJkMY_QVzMOAWTLExX79-1036">
          <mxGeometry width="41.77215189873418" height="40" as="geometry" />
        </mxCell>
        <mxCell id="JJkMY_QVzMOAWTLExX79-956" value="" style="rounded=0;whiteSpace=wrap;html=1;" vertex="1" parent="JJkMY_QVzMOAWTLExX79-972">
          <mxGeometry width="20.88607594936709" height="20" as="geometry" />
        </mxCell>
        <mxCell id="JJkMY_QVzMOAWTLExX79-957" value="" style="rounded=0;whiteSpace=wrap;html=1;" vertex="1" parent="JJkMY_QVzMOAWTLExX79-972">
          <mxGeometry x="20.88607594936709" width="20.88607594936709" height="20" as="geometry" />
        </mxCell>
        <mxCell id="JJkMY_QVzMOAWTLExX79-958" value="" style="rounded=0;whiteSpace=wrap;html=1;" vertex="1" parent="JJkMY_QVzMOAWTLExX79-972">
          <mxGeometry y="20" width="20.88607594936709" height="20" as="geometry" />
        </mxCell>
        <mxCell id="JJkMY_QVzMOAWTLExX79-959" value="" style="rounded=0;whiteSpace=wrap;html=1;" vertex="1" parent="JJkMY_QVzMOAWTLExX79-972">
          <mxGeometry x="20.88607594936709" y="20" width="20.88607594936709" height="20" as="geometry" />
        </mxCell>
        <mxCell id="JJkMY_QVzMOAWTLExX79-973" value="" style="group" vertex="1" connectable="0" parent="JJkMY_QVzMOAWTLExX79-1036">
          <mxGeometry y="50" width="41.77215189873418" height="40" as="geometry" />
        </mxCell>
        <mxCell id="JJkMY_QVzMOAWTLExX79-974" value="" style="rounded=0;whiteSpace=wrap;html=1;" vertex="1" parent="JJkMY_QVzMOAWTLExX79-973">
          <mxGeometry width="20.88607594936709" height="20" as="geometry" />
        </mxCell>
        <mxCell id="JJkMY_QVzMOAWTLExX79-975" value="" style="rounded=0;whiteSpace=wrap;html=1;" vertex="1" parent="JJkMY_QVzMOAWTLExX79-973">
          <mxGeometry x="20.88607594936709" width="20.88607594936709" height="20" as="geometry" />
        </mxCell>
        <mxCell id="JJkMY_QVzMOAWTLExX79-976" value="" style="rounded=0;whiteSpace=wrap;html=1;" vertex="1" parent="JJkMY_QVzMOAWTLExX79-973">
          <mxGeometry y="20" width="20.88607594936709" height="20" as="geometry" />
        </mxCell>
        <mxCell id="JJkMY_QVzMOAWTLExX79-977" value="" style="rounded=0;whiteSpace=wrap;html=1;" vertex="1" parent="JJkMY_QVzMOAWTLExX79-973">
          <mxGeometry x="20.88607594936709" y="20" width="20.88607594936709" height="20" as="geometry" />
        </mxCell>
        <mxCell id="JJkMY_QVzMOAWTLExX79-978" value="" style="group" vertex="1" connectable="0" parent="JJkMY_QVzMOAWTLExX79-1036">
          <mxGeometry x="50.12658227848101" width="41.77215189873418" height="40" as="geometry" />
        </mxCell>
        <mxCell id="JJkMY_QVzMOAWTLExX79-979" value="" style="rounded=0;whiteSpace=wrap;html=1;" vertex="1" parent="JJkMY_QVzMOAWTLExX79-978">
          <mxGeometry width="20.88607594936709" height="20" as="geometry" />
        </mxCell>
        <mxCell id="JJkMY_QVzMOAWTLExX79-980" value="" style="rounded=0;whiteSpace=wrap;html=1;" vertex="1" parent="JJkMY_QVzMOAWTLExX79-978">
          <mxGeometry x="20.88607594936709" width="20.88607594936709" height="20" as="geometry" />
        </mxCell>
        <mxCell id="JJkMY_QVzMOAWTLExX79-981" value="" style="rounded=0;whiteSpace=wrap;html=1;" vertex="1" parent="JJkMY_QVzMOAWTLExX79-978">
          <mxGeometry y="20" width="20.88607594936709" height="20" as="geometry" />
        </mxCell>
        <mxCell id="JJkMY_QVzMOAWTLExX79-982" value="" style="rounded=0;whiteSpace=wrap;html=1;" vertex="1" parent="JJkMY_QVzMOAWTLExX79-978">
          <mxGeometry x="20.88607594936709" y="20" width="20.88607594936709" height="20" as="geometry" />
        </mxCell>
        <mxCell id="JJkMY_QVzMOAWTLExX79-983" value="" style="group" vertex="1" connectable="0" parent="JJkMY_QVzMOAWTLExX79-1036">
          <mxGeometry x="50.12658227848101" y="50" width="41.77215189873418" height="40" as="geometry" />
        </mxCell>
        <mxCell id="JJkMY_QVzMOAWTLExX79-984" value="" style="rounded=0;whiteSpace=wrap;html=1;" vertex="1" parent="JJkMY_QVzMOAWTLExX79-983">
          <mxGeometry width="20.88607594936709" height="20" as="geometry" />
        </mxCell>
        <mxCell id="JJkMY_QVzMOAWTLExX79-985" value="" style="rounded=0;whiteSpace=wrap;html=1;" vertex="1" parent="JJkMY_QVzMOAWTLExX79-983">
          <mxGeometry x="20.88607594936709" width="20.88607594936709" height="20" as="geometry" />
        </mxCell>
        <mxCell id="JJkMY_QVzMOAWTLExX79-986" value="" style="rounded=0;whiteSpace=wrap;html=1;" vertex="1" parent="JJkMY_QVzMOAWTLExX79-983">
          <mxGeometry y="20" width="20.88607594936709" height="20" as="geometry" />
        </mxCell>
        <mxCell id="JJkMY_QVzMOAWTLExX79-987" value="" style="rounded=0;whiteSpace=wrap;html=1;" vertex="1" parent="JJkMY_QVzMOAWTLExX79-983">
          <mxGeometry x="20.88607594936709" y="20" width="20.88607594936709" height="20" as="geometry" />
        </mxCell>
        <mxCell id="JJkMY_QVzMOAWTLExX79-988" value="" style="group" vertex="1" connectable="0" parent="JJkMY_QVzMOAWTLExX79-1036">
          <mxGeometry x="100.25316455696202" width="41.77215189873418" height="40" as="geometry" />
        </mxCell>
        <mxCell id="JJkMY_QVzMOAWTLExX79-989" value="" style="rounded=0;whiteSpace=wrap;html=1;" vertex="1" parent="JJkMY_QVzMOAWTLExX79-988">
          <mxGeometry width="20.88607594936709" height="20" as="geometry" />
        </mxCell>
        <mxCell id="JJkMY_QVzMOAWTLExX79-990" value="" style="rounded=0;whiteSpace=wrap;html=1;" vertex="1" parent="JJkMY_QVzMOAWTLExX79-988">
          <mxGeometry x="20.88607594936709" width="20.88607594936709" height="20" as="geometry" />
        </mxCell>
        <mxCell id="JJkMY_QVzMOAWTLExX79-991" value="" style="rounded=0;whiteSpace=wrap;html=1;" vertex="1" parent="JJkMY_QVzMOAWTLExX79-988">
          <mxGeometry y="20" width="20.88607594936709" height="20" as="geometry" />
        </mxCell>
        <mxCell id="JJkMY_QVzMOAWTLExX79-992" value="" style="rounded=0;whiteSpace=wrap;html=1;" vertex="1" parent="JJkMY_QVzMOAWTLExX79-988">
          <mxGeometry x="20.88607594936709" y="20" width="20.88607594936709" height="20" as="geometry" />
        </mxCell>
        <mxCell id="JJkMY_QVzMOAWTLExX79-993" value="" style="group" vertex="1" connectable="0" parent="JJkMY_QVzMOAWTLExX79-1036">
          <mxGeometry x="142.0253164556962" width="41.77215189873418" height="40" as="geometry" />
        </mxCell>
        <mxCell id="JJkMY_QVzMOAWTLExX79-994" value="" style="rounded=0;whiteSpace=wrap;html=1;" vertex="1" parent="JJkMY_QVzMOAWTLExX79-993">
          <mxGeometry width="20.88607594936709" height="20" as="geometry" />
        </mxCell>
        <mxCell id="JJkMY_QVzMOAWTLExX79-995" value="" style="rounded=0;whiteSpace=wrap;html=1;" vertex="1" parent="JJkMY_QVzMOAWTLExX79-993">
          <mxGeometry x="20.88607594936709" width="20.88607594936709" height="20" as="geometry" />
        </mxCell>
        <mxCell id="JJkMY_QVzMOAWTLExX79-996" value="" style="rounded=0;whiteSpace=wrap;html=1;" vertex="1" parent="JJkMY_QVzMOAWTLExX79-993">
          <mxGeometry y="20" width="20.88607594936709" height="20" as="geometry" />
        </mxCell>
        <mxCell id="JJkMY_QVzMOAWTLExX79-997" value="" style="rounded=0;whiteSpace=wrap;html=1;" vertex="1" parent="JJkMY_QVzMOAWTLExX79-993">
          <mxGeometry x="20.88607594936709" y="20" width="20.88607594936709" height="20" as="geometry" />
        </mxCell>
        <mxCell id="JJkMY_QVzMOAWTLExX79-998" value="" style="group" vertex="1" connectable="0" parent="JJkMY_QVzMOAWTLExX79-1036">
          <mxGeometry x="100.25316455696202" y="50" width="41.77215189873418" height="40" as="geometry" />
        </mxCell>
        <mxCell id="JJkMY_QVzMOAWTLExX79-999" value="" style="rounded=0;whiteSpace=wrap;html=1;" vertex="1" parent="JJkMY_QVzMOAWTLExX79-998">
          <mxGeometry width="20.88607594936709" height="20" as="geometry" />
        </mxCell>
        <mxCell id="JJkMY_QVzMOAWTLExX79-1000" value="" style="rounded=0;whiteSpace=wrap;html=1;" vertex="1" parent="JJkMY_QVzMOAWTLExX79-998">
          <mxGeometry x="20.88607594936709" width="20.88607594936709" height="20" as="geometry" />
        </mxCell>
        <mxCell id="JJkMY_QVzMOAWTLExX79-1001" value="" style="rounded=0;whiteSpace=wrap;html=1;" vertex="1" parent="JJkMY_QVzMOAWTLExX79-998">
          <mxGeometry y="20" width="20.88607594936709" height="20" as="geometry" />
        </mxCell>
        <mxCell id="JJkMY_QVzMOAWTLExX79-1002" value="" style="rounded=0;whiteSpace=wrap;html=1;" vertex="1" parent="JJkMY_QVzMOAWTLExX79-998">
          <mxGeometry x="20.88607594936709" y="20" width="20.88607594936709" height="20" as="geometry" />
        </mxCell>
        <mxCell id="JJkMY_QVzMOAWTLExX79-1003" value="" style="group" vertex="1" connectable="0" parent="JJkMY_QVzMOAWTLExX79-1036">
          <mxGeometry x="142.0253164556962" y="50" width="41.77215189873418" height="40" as="geometry" />
        </mxCell>
        <mxCell id="JJkMY_QVzMOAWTLExX79-1004" value="" style="rounded=0;whiteSpace=wrap;html=1;" vertex="1" parent="JJkMY_QVzMOAWTLExX79-1003">
          <mxGeometry width="20.88607594936709" height="20" as="geometry" />
        </mxCell>
        <mxCell id="JJkMY_QVzMOAWTLExX79-1005" value="" style="rounded=0;whiteSpace=wrap;html=1;" vertex="1" parent="JJkMY_QVzMOAWTLExX79-1003">
          <mxGeometry x="20.88607594936709" width="20.88607594936709" height="20" as="geometry" />
        </mxCell>
        <mxCell id="JJkMY_QVzMOAWTLExX79-1006" value="" style="rounded=0;whiteSpace=wrap;html=1;" vertex="1" parent="JJkMY_QVzMOAWTLExX79-1003">
          <mxGeometry y="20" width="20.88607594936709" height="20" as="geometry" />
        </mxCell>
        <mxCell id="JJkMY_QVzMOAWTLExX79-1007" value="" style="rounded=0;whiteSpace=wrap;html=1;" vertex="1" parent="JJkMY_QVzMOAWTLExX79-1003">
          <mxGeometry x="20.88607594936709" y="20" width="20.88607594936709" height="20" as="geometry" />
        </mxCell>
        <mxCell id="JJkMY_QVzMOAWTLExX79-1008" value="" style="group" vertex="1" connectable="0" parent="JJkMY_QVzMOAWTLExX79-1036">
          <mxGeometry x="195.49367088607596" width="41.77215189873418" height="40" as="geometry" />
        </mxCell>
        <mxCell id="JJkMY_QVzMOAWTLExX79-1009" value="" style="rounded=0;whiteSpace=wrap;html=1;" vertex="1" parent="JJkMY_QVzMOAWTLExX79-1008">
          <mxGeometry width="20.88607594936709" height="20" as="geometry" />
        </mxCell>
        <mxCell id="JJkMY_QVzMOAWTLExX79-1010" value="" style="rounded=0;whiteSpace=wrap;html=1;" vertex="1" parent="JJkMY_QVzMOAWTLExX79-1008">
          <mxGeometry x="20.88607594936709" width="20.88607594936709" height="20" as="geometry" />
        </mxCell>
        <mxCell id="JJkMY_QVzMOAWTLExX79-1011" value="" style="rounded=0;whiteSpace=wrap;html=1;" vertex="1" parent="JJkMY_QVzMOAWTLExX79-1008">
          <mxGeometry y="20" width="20.88607594936709" height="20" as="geometry" />
        </mxCell>
        <mxCell id="JJkMY_QVzMOAWTLExX79-1012" value="" style="rounded=0;whiteSpace=wrap;html=1;" vertex="1" parent="JJkMY_QVzMOAWTLExX79-1008">
          <mxGeometry x="20.88607594936709" y="20" width="20.88607594936709" height="20" as="geometry" />
        </mxCell>
        <mxCell id="JJkMY_QVzMOAWTLExX79-1013" value="" style="rounded=0;whiteSpace=wrap;html=1;" vertex="1" parent="JJkMY_QVzMOAWTLExX79-1036">
          <mxGeometry x="237.26582278481013" width="20.88607594936709" height="20" as="geometry" />
        </mxCell>
        <mxCell id="JJkMY_QVzMOAWTLExX79-1014" value="" style="rounded=0;whiteSpace=wrap;html=1;" vertex="1" parent="JJkMY_QVzMOAWTLExX79-1036">
          <mxGeometry x="237.26582278481013" y="20" width="20.88607594936709" height="20" as="geometry" />
        </mxCell>
        <mxCell id="JJkMY_QVzMOAWTLExX79-1015" value="" style="rounded=0;whiteSpace=wrap;html=1;" vertex="1" parent="JJkMY_QVzMOAWTLExX79-1036">
          <mxGeometry x="237.26582278481013" y="50" width="20.88607594936709" height="20" as="geometry" />
        </mxCell>
        <mxCell id="JJkMY_QVzMOAWTLExX79-1016" value="" style="rounded=0;whiteSpace=wrap;html=1;" vertex="1" parent="JJkMY_QVzMOAWTLExX79-1036">
          <mxGeometry x="237.26582278481013" y="70" width="20.88607594936709" height="20" as="geometry" />
        </mxCell>
        <mxCell id="JJkMY_QVzMOAWTLExX79-1017" value="" style="group" vertex="1" connectable="0" parent="JJkMY_QVzMOAWTLExX79-1036">
          <mxGeometry x="195.49367088607596" y="50" width="41.77215189873418" height="40" as="geometry" />
        </mxCell>
        <mxCell id="JJkMY_QVzMOAWTLExX79-1018" value="" style="rounded=0;whiteSpace=wrap;html=1;" vertex="1" parent="JJkMY_QVzMOAWTLExX79-1017">
          <mxGeometry width="20.88607594936709" height="20" as="geometry" />
        </mxCell>
        <mxCell id="JJkMY_QVzMOAWTLExX79-1019" value="" style="rounded=0;whiteSpace=wrap;html=1;" vertex="1" parent="JJkMY_QVzMOAWTLExX79-1017">
          <mxGeometry x="20.88607594936709" width="20.88607594936709" height="20" as="geometry" />
        </mxCell>
        <mxCell id="JJkMY_QVzMOAWTLExX79-1020" value="" style="rounded=0;whiteSpace=wrap;html=1;" vertex="1" parent="JJkMY_QVzMOAWTLExX79-1017">
          <mxGeometry y="20" width="20.88607594936709" height="20" as="geometry" />
        </mxCell>
        <mxCell id="JJkMY_QVzMOAWTLExX79-1021" value="" style="rounded=0;whiteSpace=wrap;html=1;" vertex="1" parent="JJkMY_QVzMOAWTLExX79-1017">
          <mxGeometry x="20.88607594936709" y="20" width="20.88607594936709" height="20" as="geometry" />
        </mxCell>
        <mxCell id="JJkMY_QVzMOAWTLExX79-1022" value="" style="group" vertex="1" connectable="0" parent="JJkMY_QVzMOAWTLExX79-1036">
          <mxGeometry x="267.34177215189874" width="41.77215189873418" height="40" as="geometry" />
        </mxCell>
        <mxCell id="JJkMY_QVzMOAWTLExX79-1023" value="" style="rounded=0;whiteSpace=wrap;html=1;" vertex="1" parent="JJkMY_QVzMOAWTLExX79-1022">
          <mxGeometry width="20.88607594936709" height="20" as="geometry" />
        </mxCell>
        <mxCell id="JJkMY_QVzMOAWTLExX79-1024" value="" style="rounded=0;whiteSpace=wrap;html=1;" vertex="1" parent="JJkMY_QVzMOAWTLExX79-1022">
          <mxGeometry x="20.88607594936709" width="20.88607594936709" height="20" as="geometry" />
        </mxCell>
        <mxCell id="JJkMY_QVzMOAWTLExX79-1025" value="" style="rounded=0;whiteSpace=wrap;html=1;" vertex="1" parent="JJkMY_QVzMOAWTLExX79-1022">
          <mxGeometry y="20" width="20.88607594936709" height="20" as="geometry" />
        </mxCell>
        <mxCell id="JJkMY_QVzMOAWTLExX79-1026" value="" style="rounded=0;whiteSpace=wrap;html=1;" vertex="1" parent="JJkMY_QVzMOAWTLExX79-1022">
          <mxGeometry x="20.88607594936709" y="20" width="20.88607594936709" height="20" as="geometry" />
        </mxCell>
        <mxCell id="JJkMY_QVzMOAWTLExX79-1027" value="" style="rounded=0;whiteSpace=wrap;html=1;" vertex="1" parent="JJkMY_QVzMOAWTLExX79-1036">
          <mxGeometry x="309.11392405063293" width="20.88607594936709" height="20" as="geometry" />
        </mxCell>
        <mxCell id="JJkMY_QVzMOAWTLExX79-1028" value="" style="rounded=0;whiteSpace=wrap;html=1;" vertex="1" parent="JJkMY_QVzMOAWTLExX79-1036">
          <mxGeometry x="309.11392405063293" y="20" width="20.88607594936709" height="20" as="geometry" />
        </mxCell>
        <mxCell id="JJkMY_QVzMOAWTLExX79-1029" value="" style="group" vertex="1" connectable="0" parent="JJkMY_QVzMOAWTLExX79-1036">
          <mxGeometry x="267.34177215189874" y="50" width="41.77215189873418" height="40" as="geometry" />
        </mxCell>
        <mxCell id="JJkMY_QVzMOAWTLExX79-1030" value="" style="rounded=0;whiteSpace=wrap;html=1;" vertex="1" parent="JJkMY_QVzMOAWTLExX79-1029">
          <mxGeometry width="20.88607594936709" height="20" as="geometry" />
        </mxCell>
        <mxCell id="JJkMY_QVzMOAWTLExX79-1031" value="" style="rounded=0;whiteSpace=wrap;html=1;" vertex="1" parent="JJkMY_QVzMOAWTLExX79-1029">
          <mxGeometry x="20.88607594936709" width="20.88607594936709" height="20" as="geometry" />
        </mxCell>
        <mxCell id="JJkMY_QVzMOAWTLExX79-1032" value="" style="rounded=0;whiteSpace=wrap;html=1;" vertex="1" parent="JJkMY_QVzMOAWTLExX79-1029">
          <mxGeometry y="20" width="20.88607594936709" height="20" as="geometry" />
        </mxCell>
        <mxCell id="JJkMY_QVzMOAWTLExX79-1033" value="" style="rounded=0;whiteSpace=wrap;html=1;" vertex="1" parent="JJkMY_QVzMOAWTLExX79-1029">
          <mxGeometry x="20.88607594936709" y="20" width="20.88607594936709" height="20" as="geometry" />
        </mxCell>
        <mxCell id="JJkMY_QVzMOAWTLExX79-1034" value="" style="rounded=0;whiteSpace=wrap;html=1;" vertex="1" parent="JJkMY_QVzMOAWTLExX79-1036">
          <mxGeometry x="309.11392405063293" y="50" width="20.88607594936709" height="20" as="geometry" />
        </mxCell>
        <mxCell id="JJkMY_QVzMOAWTLExX79-1035" value="" style="rounded=0;whiteSpace=wrap;html=1;" vertex="1" parent="JJkMY_QVzMOAWTLExX79-1036">
          <mxGeometry x="309.11392405063293" y="70" width="20.88607594936709" height="20" as="geometry" />
        </mxCell>
        <mxCell id="JJkMY_QVzMOAWTLExX79-1109" value="" style="group" vertex="1" connectable="0" parent="1">
          <mxGeometry x="480" y="450" width="330" height="90" as="geometry" />
        </mxCell>
        <mxCell id="JJkMY_QVzMOAWTLExX79-1037" value="" style="rounded=0;whiteSpace=wrap;html=1;" vertex="1" parent="JJkMY_QVzMOAWTLExX79-1109">
          <mxGeometry width="20.010922398782224" height="20" as="geometry" />
        </mxCell>
        <mxCell id="JJkMY_QVzMOAWTLExX79-1038" value="" style="rounded=0;whiteSpace=wrap;html=1;" vertex="1" parent="JJkMY_QVzMOAWTLExX79-1109">
          <mxGeometry x="20.010922398782203" width="20.010922398782224" height="20" as="geometry" />
        </mxCell>
        <mxCell id="JJkMY_QVzMOAWTLExX79-1039" value="" style="rounded=0;whiteSpace=wrap;html=1;" vertex="1" parent="JJkMY_QVzMOAWTLExX79-1109">
          <mxGeometry y="20" width="20.010922398782224" height="20" as="geometry" />
        </mxCell>
        <mxCell id="JJkMY_QVzMOAWTLExX79-1040" value="" style="rounded=0;whiteSpace=wrap;html=1;" vertex="1" parent="JJkMY_QVzMOAWTLExX79-1109">
          <mxGeometry x="20.010922398782203" y="20" width="20.010922398782224" height="20" as="geometry" />
        </mxCell>
        <mxCell id="JJkMY_QVzMOAWTLExX79-1045" value="" style="rounded=0;whiteSpace=wrap;html=1;" vertex="1" parent="JJkMY_QVzMOAWTLExX79-1109">
          <mxGeometry y="50" width="20.010922398782224" height="20" as="geometry" />
        </mxCell>
        <mxCell id="JJkMY_QVzMOAWTLExX79-1046" value="" style="rounded=0;whiteSpace=wrap;html=1;" vertex="1" parent="JJkMY_QVzMOAWTLExX79-1109">
          <mxGeometry x="20.010922398782203" y="50" width="20.010922398782224" height="20" as="geometry" />
        </mxCell>
        <mxCell id="JJkMY_QVzMOAWTLExX79-1047" value="" style="rounded=0;whiteSpace=wrap;html=1;" vertex="1" parent="JJkMY_QVzMOAWTLExX79-1109">
          <mxGeometry y="70" width="20.010922398782224" height="20" as="geometry" />
        </mxCell>
        <mxCell id="JJkMY_QVzMOAWTLExX79-1048" value="" style="rounded=0;whiteSpace=wrap;html=1;" vertex="1" parent="JJkMY_QVzMOAWTLExX79-1109">
          <mxGeometry x="20.010922398782203" y="70" width="20.010922398782224" height="20" as="geometry" />
        </mxCell>
        <mxCell id="JJkMY_QVzMOAWTLExX79-1049" value="" style="rounded=0;whiteSpace=wrap;html=1;" vertex="1" parent="JJkMY_QVzMOAWTLExX79-1109">
          <mxGeometry x="47.904935439508954" width="20.010922398782224" height="20" as="geometry" />
        </mxCell>
        <mxCell id="JJkMY_QVzMOAWTLExX79-1050" value="" style="rounded=0;whiteSpace=wrap;html=1;" vertex="1" parent="JJkMY_QVzMOAWTLExX79-1109">
          <mxGeometry x="67.91585783829116" width="20.010922398782224" height="20" as="geometry" />
        </mxCell>
        <mxCell id="JJkMY_QVzMOAWTLExX79-1051" value="" style="rounded=0;whiteSpace=wrap;html=1;" vertex="1" parent="JJkMY_QVzMOAWTLExX79-1109">
          <mxGeometry x="47.904935439508954" y="20" width="20.010922398782224" height="20" as="geometry" />
        </mxCell>
        <mxCell id="JJkMY_QVzMOAWTLExX79-1052" value="" style="rounded=0;whiteSpace=wrap;html=1;" vertex="1" parent="JJkMY_QVzMOAWTLExX79-1109">
          <mxGeometry x="67.91585783829116" y="20" width="20.010922398782224" height="20" as="geometry" />
        </mxCell>
        <mxCell id="JJkMY_QVzMOAWTLExX79-1053" value="" style="rounded=0;whiteSpace=wrap;html=1;" vertex="1" parent="JJkMY_QVzMOAWTLExX79-1109">
          <mxGeometry x="47.904935439508954" y="50" width="20.010922398782224" height="20" as="geometry" />
        </mxCell>
        <mxCell id="JJkMY_QVzMOAWTLExX79-1054" value="" style="rounded=0;whiteSpace=wrap;html=1;" vertex="1" parent="JJkMY_QVzMOAWTLExX79-1109">
          <mxGeometry x="67.91585783829116" y="50" width="20.010922398782224" height="20" as="geometry" />
        </mxCell>
        <mxCell id="JJkMY_QVzMOAWTLExX79-1055" value="" style="rounded=0;whiteSpace=wrap;html=1;" vertex="1" parent="JJkMY_QVzMOAWTLExX79-1109">
          <mxGeometry x="47.904935439508954" y="70" width="20.010922398782224" height="20" as="geometry" />
        </mxCell>
        <mxCell id="JJkMY_QVzMOAWTLExX79-1056" value="" style="rounded=0;whiteSpace=wrap;html=1;" vertex="1" parent="JJkMY_QVzMOAWTLExX79-1109">
          <mxGeometry x="67.91585783829116" y="70" width="20.010922398782224" height="20" as="geometry" />
        </mxCell>
        <mxCell id="JJkMY_QVzMOAWTLExX79-1057" value="" style="group" vertex="1" connectable="0" parent="JJkMY_QVzMOAWTLExX79-1109">
          <mxGeometry x="95.81484329003824" width="40.02184479756445" height="40" as="geometry" />
        </mxCell>
        <mxCell id="JJkMY_QVzMOAWTLExX79-1058" value="" style="rounded=0;whiteSpace=wrap;html=1;" vertex="1" parent="JJkMY_QVzMOAWTLExX79-1057">
          <mxGeometry width="20.010922398782224" height="20" as="geometry" />
        </mxCell>
        <mxCell id="JJkMY_QVzMOAWTLExX79-1059" value="" style="rounded=0;whiteSpace=wrap;html=1;" vertex="1" parent="JJkMY_QVzMOAWTLExX79-1057">
          <mxGeometry x="20.010922398782224" width="20.010922398782224" height="20" as="geometry" />
        </mxCell>
        <mxCell id="JJkMY_QVzMOAWTLExX79-1060" value="" style="rounded=0;whiteSpace=wrap;html=1;" vertex="1" parent="JJkMY_QVzMOAWTLExX79-1057">
          <mxGeometry y="20" width="20.010922398782224" height="20" as="geometry" />
        </mxCell>
        <mxCell id="JJkMY_QVzMOAWTLExX79-1061" value="" style="rounded=0;whiteSpace=wrap;html=1;" vertex="1" parent="JJkMY_QVzMOAWTLExX79-1057">
          <mxGeometry x="20.010922398782224" y="20" width="20.010922398782224" height="20" as="geometry" />
        </mxCell>
        <mxCell id="JJkMY_QVzMOAWTLExX79-1062" value="" style="rounded=0;whiteSpace=wrap;html=1;" vertex="1" parent="JJkMY_QVzMOAWTLExX79-1109">
          <mxGeometry x="135.83668808760265" width="20.010922398782224" height="20" as="geometry" />
        </mxCell>
        <mxCell id="JJkMY_QVzMOAWTLExX79-1063" value="" style="rounded=0;whiteSpace=wrap;html=1;" vertex="1" parent="JJkMY_QVzMOAWTLExX79-1109">
          <mxGeometry x="135.83668808760265" y="20" width="20.010922398782224" height="20" as="geometry" />
        </mxCell>
        <mxCell id="JJkMY_QVzMOAWTLExX79-1064" value="" style="group" vertex="1" connectable="0" parent="JJkMY_QVzMOAWTLExX79-1109">
          <mxGeometry x="95.81484329003824" y="50" width="40.02184479756445" height="40" as="geometry" />
        </mxCell>
        <mxCell id="JJkMY_QVzMOAWTLExX79-1065" value="" style="rounded=0;whiteSpace=wrap;html=1;" vertex="1" parent="JJkMY_QVzMOAWTLExX79-1064">
          <mxGeometry width="20.010922398782224" height="20" as="geometry" />
        </mxCell>
        <mxCell id="JJkMY_QVzMOAWTLExX79-1066" value="" style="rounded=0;whiteSpace=wrap;html=1;" vertex="1" parent="JJkMY_QVzMOAWTLExX79-1064">
          <mxGeometry x="20.010922398782224" width="20.010922398782224" height="20" as="geometry" />
        </mxCell>
        <mxCell id="JJkMY_QVzMOAWTLExX79-1067" value="" style="rounded=0;whiteSpace=wrap;html=1;" vertex="1" parent="JJkMY_QVzMOAWTLExX79-1064">
          <mxGeometry y="20" width="20.010922398782224" height="20" as="geometry" />
        </mxCell>
        <mxCell id="JJkMY_QVzMOAWTLExX79-1068" value="" style="rounded=0;whiteSpace=wrap;html=1;" vertex="1" parent="JJkMY_QVzMOAWTLExX79-1064">
          <mxGeometry x="20.010922398782224" y="20" width="20.010922398782224" height="20" as="geometry" />
        </mxCell>
        <mxCell id="JJkMY_QVzMOAWTLExX79-1069" value="" style="rounded=0;whiteSpace=wrap;html=1;" vertex="1" parent="JJkMY_QVzMOAWTLExX79-1109">
          <mxGeometry x="135.83668808760265" y="50" width="20.010922398782224" height="20" as="geometry" />
        </mxCell>
        <mxCell id="JJkMY_QVzMOAWTLExX79-1070" value="" style="rounded=0;whiteSpace=wrap;html=1;" vertex="1" parent="JJkMY_QVzMOAWTLExX79-1109">
          <mxGeometry x="135.83668808760265" y="70" width="20.010922398782224" height="20" as="geometry" />
        </mxCell>
        <mxCell id="JJkMY_QVzMOAWTLExX79-1071" value="" style="group" vertex="1" connectable="0" parent="JJkMY_QVzMOAWTLExX79-1109">
          <mxGeometry x="162.88175290535077" width="40.02184479756445" height="40" as="geometry" />
        </mxCell>
        <mxCell id="JJkMY_QVzMOAWTLExX79-1072" value="" style="rounded=0;whiteSpace=wrap;html=1;" vertex="1" parent="JJkMY_QVzMOAWTLExX79-1071">
          <mxGeometry width="20.010922398782224" height="20" as="geometry" />
        </mxCell>
        <mxCell id="JJkMY_QVzMOAWTLExX79-1073" value="" style="rounded=0;whiteSpace=wrap;html=1;" vertex="1" parent="JJkMY_QVzMOAWTLExX79-1071">
          <mxGeometry x="20.010922398782224" width="20.010922398782224" height="20" as="geometry" />
        </mxCell>
        <mxCell id="JJkMY_QVzMOAWTLExX79-1074" value="" style="rounded=0;whiteSpace=wrap;html=1;" vertex="1" parent="JJkMY_QVzMOAWTLExX79-1071">
          <mxGeometry y="20" width="20.010922398782224" height="20" as="geometry" />
        </mxCell>
        <mxCell id="JJkMY_QVzMOAWTLExX79-1075" value="" style="rounded=0;whiteSpace=wrap;html=1;" vertex="1" parent="JJkMY_QVzMOAWTLExX79-1071">
          <mxGeometry x="20.010922398782224" y="20" width="20.010922398782224" height="20" as="geometry" />
        </mxCell>
        <mxCell id="JJkMY_QVzMOAWTLExX79-1076" value="" style="rounded=0;whiteSpace=wrap;html=1;" vertex="1" parent="JJkMY_QVzMOAWTLExX79-1109">
          <mxGeometry x="202.9035977029152" width="20.010922398782224" height="20" as="geometry" />
        </mxCell>
        <mxCell id="JJkMY_QVzMOAWTLExX79-1077" value="" style="rounded=0;whiteSpace=wrap;html=1;" vertex="1" parent="JJkMY_QVzMOAWTLExX79-1109">
          <mxGeometry x="202.9035977029152" y="20" width="20.010922398782224" height="20" as="geometry" />
        </mxCell>
        <mxCell id="JJkMY_QVzMOAWTLExX79-1078" value="" style="group" vertex="1" connectable="0" parent="JJkMY_QVzMOAWTLExX79-1109">
          <mxGeometry x="162.88175290535077" y="50" width="40.02184479756445" height="40" as="geometry" />
        </mxCell>
        <mxCell id="JJkMY_QVzMOAWTLExX79-1079" value="" style="rounded=0;whiteSpace=wrap;html=1;" vertex="1" parent="JJkMY_QVzMOAWTLExX79-1078">
          <mxGeometry width="20.010922398782224" height="20" as="geometry" />
        </mxCell>
        <mxCell id="JJkMY_QVzMOAWTLExX79-1080" value="" style="rounded=0;whiteSpace=wrap;html=1;" vertex="1" parent="JJkMY_QVzMOAWTLExX79-1078">
          <mxGeometry x="20.010922398782224" width="20.010922398782224" height="20" as="geometry" />
        </mxCell>
        <mxCell id="JJkMY_QVzMOAWTLExX79-1081" value="" style="rounded=0;whiteSpace=wrap;html=1;" vertex="1" parent="JJkMY_QVzMOAWTLExX79-1078">
          <mxGeometry y="20" width="20.010922398782224" height="20" as="geometry" />
        </mxCell>
        <mxCell id="JJkMY_QVzMOAWTLExX79-1082" value="" style="rounded=0;whiteSpace=wrap;html=1;" vertex="1" parent="JJkMY_QVzMOAWTLExX79-1078">
          <mxGeometry x="20.010922398782224" y="20" width="20.010922398782224" height="20" as="geometry" />
        </mxCell>
        <mxCell id="JJkMY_QVzMOAWTLExX79-1083" value="" style="rounded=0;whiteSpace=wrap;html=1;" vertex="1" parent="JJkMY_QVzMOAWTLExX79-1109">
          <mxGeometry x="202.9035977029152" y="50" width="20.010922398782224" height="20" as="geometry" />
        </mxCell>
        <mxCell id="JJkMY_QVzMOAWTLExX79-1084" value="" style="rounded=0;whiteSpace=wrap;html=1;" vertex="1" parent="JJkMY_QVzMOAWTLExX79-1109">
          <mxGeometry x="202.9035977029152" y="70" width="20.010922398782224" height="20" as="geometry" />
        </mxCell>
        <mxCell id="JJkMY_QVzMOAWTLExX79-1085" value="" style="group" vertex="1" connectable="0" parent="JJkMY_QVzMOAWTLExX79-1109">
          <mxGeometry x="229.9486625206633" width="40.02184479756445" height="40" as="geometry" />
        </mxCell>
        <mxCell id="JJkMY_QVzMOAWTLExX79-1086" value="" style="rounded=0;whiteSpace=wrap;html=1;" vertex="1" parent="JJkMY_QVzMOAWTLExX79-1085">
          <mxGeometry width="20.010922398782224" height="20" as="geometry" />
        </mxCell>
        <mxCell id="JJkMY_QVzMOAWTLExX79-1087" value="" style="rounded=0;whiteSpace=wrap;html=1;" vertex="1" parent="JJkMY_QVzMOAWTLExX79-1085">
          <mxGeometry x="20.010922398782224" width="20.010922398782224" height="20" as="geometry" />
        </mxCell>
        <mxCell id="JJkMY_QVzMOAWTLExX79-1088" value="" style="rounded=0;whiteSpace=wrap;html=1;" vertex="1" parent="JJkMY_QVzMOAWTLExX79-1085">
          <mxGeometry y="20" width="20.010922398782224" height="20" as="geometry" />
        </mxCell>
        <mxCell id="JJkMY_QVzMOAWTLExX79-1089" value="" style="rounded=0;whiteSpace=wrap;html=1;" vertex="1" parent="JJkMY_QVzMOAWTLExX79-1085">
          <mxGeometry x="20.010922398782224" y="20" width="20.010922398782224" height="20" as="geometry" />
        </mxCell>
        <mxCell id="JJkMY_QVzMOAWTLExX79-1090" value="" style="rounded=0;whiteSpace=wrap;html=1;" vertex="1" parent="JJkMY_QVzMOAWTLExX79-1109">
          <mxGeometry x="269.9705073182278" width="20.010922398782224" height="20" as="geometry" />
        </mxCell>
        <mxCell id="JJkMY_QVzMOAWTLExX79-1091" value="" style="rounded=0;whiteSpace=wrap;html=1;" vertex="1" parent="JJkMY_QVzMOAWTLExX79-1109">
          <mxGeometry x="269.9705073182278" y="20" width="20.010922398782224" height="20" as="geometry" />
        </mxCell>
        <mxCell id="JJkMY_QVzMOAWTLExX79-1092" value="" style="group" vertex="1" connectable="0" parent="JJkMY_QVzMOAWTLExX79-1109">
          <mxGeometry x="229.9486625206633" y="50" width="40.02184479756445" height="40" as="geometry" />
        </mxCell>
        <mxCell id="JJkMY_QVzMOAWTLExX79-1093" value="" style="rounded=0;whiteSpace=wrap;html=1;" vertex="1" parent="JJkMY_QVzMOAWTLExX79-1092">
          <mxGeometry width="20.010922398782224" height="20" as="geometry" />
        </mxCell>
        <mxCell id="JJkMY_QVzMOAWTLExX79-1094" value="" style="rounded=0;whiteSpace=wrap;html=1;" vertex="1" parent="JJkMY_QVzMOAWTLExX79-1092">
          <mxGeometry x="20.010922398782224" width="20.010922398782224" height="20" as="geometry" />
        </mxCell>
        <mxCell id="JJkMY_QVzMOAWTLExX79-1095" value="" style="rounded=0;whiteSpace=wrap;html=1;" vertex="1" parent="JJkMY_QVzMOAWTLExX79-1092">
          <mxGeometry y="20" width="20.010922398782224" height="20" as="geometry" />
        </mxCell>
        <mxCell id="JJkMY_QVzMOAWTLExX79-1096" value="" style="rounded=0;whiteSpace=wrap;html=1;" vertex="1" parent="JJkMY_QVzMOAWTLExX79-1092">
          <mxGeometry x="20.010922398782224" y="20" width="20.010922398782224" height="20" as="geometry" />
        </mxCell>
        <mxCell id="JJkMY_QVzMOAWTLExX79-1097" value="" style="rounded=0;whiteSpace=wrap;html=1;" vertex="1" parent="JJkMY_QVzMOAWTLExX79-1109">
          <mxGeometry x="269.9705073182278" y="50" width="20.010922398782224" height="20" as="geometry" />
        </mxCell>
        <mxCell id="JJkMY_QVzMOAWTLExX79-1098" value="" style="rounded=0;whiteSpace=wrap;html=1;" vertex="1" parent="JJkMY_QVzMOAWTLExX79-1109">
          <mxGeometry x="269.9705073182278" y="70" width="20.010922398782224" height="20" as="geometry" />
        </mxCell>
        <mxCell id="JJkMY_QVzMOAWTLExX79-1101" value="" style="rounded=0;whiteSpace=wrap;html=1;" vertex="1" parent="JJkMY_QVzMOAWTLExX79-1109">
          <mxGeometry x="289.9781552024356" width="20.010922398782224" height="20" as="geometry" />
        </mxCell>
        <mxCell id="JJkMY_QVzMOAWTLExX79-1102" value="" style="rounded=0;whiteSpace=wrap;html=1;" vertex="1" parent="JJkMY_QVzMOAWTLExX79-1109">
          <mxGeometry x="309.9890776012178" width="20.010922398782224" height="20" as="geometry" />
        </mxCell>
        <mxCell id="JJkMY_QVzMOAWTLExX79-1103" value="" style="rounded=0;whiteSpace=wrap;html=1;" vertex="1" parent="JJkMY_QVzMOAWTLExX79-1109">
          <mxGeometry x="289.9781552024356" y="20" width="20.010922398782224" height="20" as="geometry" />
        </mxCell>
        <mxCell id="JJkMY_QVzMOAWTLExX79-1104" value="" style="rounded=0;whiteSpace=wrap;html=1;" vertex="1" parent="JJkMY_QVzMOAWTLExX79-1109">
          <mxGeometry x="309.9890776012178" y="20" width="20.010922398782224" height="20" as="geometry" />
        </mxCell>
        <mxCell id="JJkMY_QVzMOAWTLExX79-1105" value="" style="rounded=0;whiteSpace=wrap;html=1;" vertex="1" parent="JJkMY_QVzMOAWTLExX79-1109">
          <mxGeometry x="289.9781552024356" y="50" width="20.010922398782224" height="20" as="geometry" />
        </mxCell>
        <mxCell id="JJkMY_QVzMOAWTLExX79-1106" value="" style="rounded=0;whiteSpace=wrap;html=1;" vertex="1" parent="JJkMY_QVzMOAWTLExX79-1109">
          <mxGeometry x="309.9890776012178" y="50" width="20.010922398782224" height="20" as="geometry" />
        </mxCell>
        <mxCell id="JJkMY_QVzMOAWTLExX79-1107" value="" style="rounded=0;whiteSpace=wrap;html=1;" vertex="1" parent="JJkMY_QVzMOAWTLExX79-1109">
          <mxGeometry x="289.9781552024356" y="70" width="20.010922398782224" height="20" as="geometry" />
        </mxCell>
        <mxCell id="JJkMY_QVzMOAWTLExX79-1108" value="" style="rounded=0;whiteSpace=wrap;html=1;" vertex="1" parent="JJkMY_QVzMOAWTLExX79-1109">
          <mxGeometry x="309.9890776012178" y="70" width="20.010922398782224" height="20" as="geometry" />
        </mxCell>
      </root>
    </mxGraphModel>
  </diagram>
</mxfile>
